{"glyphs":{"0":{"ha":893,"x_min":97,"x_max":796,"o":"m 97 225 l 97 792 q 164 958 97 900 q 336 1017 232 1017 l 564 1017 q 739 953 683 1017 q 796 792 796 890 l 796 225 q 564 0 796 0 l 336 0 q 164 54 232 0 q 97 225 97 108 m 200 225 q 239 132 200 161 q 336 103 279 103 l 564 103 q 693 225 693 103 l 693 792 q 564 914 693 914 l 336 914 q 233 881 267 914 q 200 792 200 846 l 200 225 z "},"1":{"ha":503,"x_min":56,"x_max":392,"o":"m 392 1017 l 392 0 l 289 0 l 289 900 l 56 825 l 56 899 l 289 1017 l 392 1017 z "},"2":{"ha":829,"x_min":56,"x_max":760,"o":"m 56 926 l 56 1003 q 478 1031 274 1031 q 689 944 618 1031 q 760 739 760 858 q 717 575 760 663 q 615 417 674 488 q 481 278 557 347 q 264 103 363 168 l 760 103 l 760 0 l 65 0 l 65 94 q 493 444 340 282 q 607 594 558 514 q 656 750 656 676 q 611 875 656 824 q 476 926 567 926 l 56 926 z "},"3":{"ha":825,"x_min":42,"x_max":721,"o":"m 42 981 q 374 1021 150 1021 q 483 1019 428 1021 q 658 953 594 1018 q 721 790 721 889 l 721 694 q 629 506 721 542 q 721 306 721 447 l 721 224 q 474 -10 721 -10 l 392 -10 q 322 -8 360 -10 q 271 -8 285 -8 q 225 -6 257 -7 q 178 0 194 -3 l 136 7 q 50 29 92 14 l 51 94 l 465 94 q 603 156 575 94 q 615 224 615 182 l 615 306 q 474 453 615 447 l 136 463 l 136 543 l 474 557 q 618 694 618 564 l 618 790 q 575 885 618 853 q 474 917 533 917 l 42 917 l 42 981 z "},"4":{"ha":838,"x_min":28,"x_max":810,"o":"m 582 368 l 582 656 l 633 760 l 685 760 l 685 368 l 810 368 l 810 286 l 685 260 l 685 3 l 582 3 l 582 260 l 75 260 l 28 311 l 474 1017 l 596 1017 l 188 368 l 582 368 z "},"5":{"ha":838,"x_min":106,"x_max":756,"o":"m 393 624 l 528 619 q 700 558 646 619 q 756 389 756 496 l 756 231 q 733 114 756 164 q 672 42 710 65 q 528 -6 603 -6 q 313 0 388 -6 q 106 28 238 6 l 106 104 l 528 104 q 622 142 593 104 q 653 233 653 179 l 653 386 q 599 504 653 479 q 528 517 571 517 l 314 517 q 233 490 268 517 q 200 413 200 464 l 108 413 l 139 1017 l 725 1017 l 725 914 l 233 914 l 217 578 q 393 624 254 624 z "},"6":{"ha":865,"x_min":90,"x_max":783,"o":"m 90 533 q 161 906 90 788 q 329 1025 231 1025 q 749 999 556 1025 l 749 922 l 347 922 q 271 885 303 922 q 224 786 239 847 q 193 565 196 675 q 564 594 442 594 q 735 539 688 594 q 782 388 782 483 l 782 206 q 558 -1 782 -1 l 351 -1 q 246 22 290 -1 q 164 101 201 44 q 90 533 90 217 m 193 492 q 215 247 193 319 q 242 175 226 210 q 351 101 275 101 l 558 101 q 650 124 619 101 q 681 214 681 146 l 681 388 q 558 492 681 492 l 193 492 z "},"7":{"ha":758,"x_min":42,"x_max":717,"o":"m 42 914 l 42 1017 l 679 1017 l 717 950 l 349 0 l 226 0 l 585 914 l 42 914 z "},"8":{"ha":881,"x_min":103,"x_max":778,"o":"m 104 214 l 104 350 q 124 431 104 397 q 165 475 143 463 q 222 499 189 488 q 133 575 161 519 q 104 693 104 629 l 104 783 q 168 969 104 915 q 349 1024 232 1024 l 551 1024 q 721 967 665 1024 q 776 783 776 910 l 776 693 l 776 678 q 775 653 776 669 q 764 610 772 638 q 731 561 754 582 q 672 532 707 539 q 750 464 724 522 q 776 350 778 406 l 776 214 q 754 106 776 150 q 694 39 732 60 q 550 0 629 0 l 349 0 q 232 17 281 0 q 158 58 183 35 q 122 114 135 81 q 104 214 104 160 m 207 210 q 349 103 207 103 l 550 103 q 636 131 600 103 q 674 210 674 158 l 674 356 q 639 439 674 411 q 554 468 604 468 l 333 468 q 243 442 279 468 q 207 356 207 415 l 207 210 m 207 686 q 247 597 207 624 q 333 569 286 569 l 554 569 q 674 686 674 569 l 674 781 q 644 889 674 856 q 551 921 614 921 l 349 921 q 240 894 274 921 q 207 781 207 868 l 207 686 z "},"9":{"ha":865,"x_min":82,"x_max":775,"o":"m 83 636 l 83 818 q 307 1025 83 1025 l 514 1025 q 619 1003 575 1025 q 700 922 664 979 q 775 490 775 807 q 706 117 775 236 q 536 -1 635 -1 q 117 25 244 -1 l 117 101 l 518 101 q 594 139 563 101 q 642 238 626 176 q 672 458 669 349 q 301 429 425 429 q 131 485 178 429 q 83 636 83 540 m 185 636 q 307 532 185 532 l 672 532 q 650 778 672 703 q 622 850 639 814 q 514 922 590 922 l 307 922 q 215 900 246 922 q 185 810 185 878 l 185 636 z "},"অ":{"ha":1292,"x_min":-19,"x_max":1314,"o":"m 404 619 l 393 693 q 589 715 393 693 q 690 719 650 719 q 929 593 872 719 q 949 499 949 550 q 932 406 949 453 l 908 349 l 1065 290 l 1065 796 l -19 796 l -19 883 l 1314 883 l 1314 796 l 1167 796 l 1167 0 l 1065 0 l 1065 193 l 858 263 q 819 222 858 263 q 686 135 758 168 q 581 111 633 111 q 307 253 440 113 q 75 558 204 361 l 126 596 l 376 325 q 578 213 479 214 q 651 229 617 213 q 818 383 756 276 q 838 422 831 404 q 853 501 853 463 q 750 613 853 593 q 667 619 715 619 l 404 619 z "},"আ":{"ha":1457,"x_min":-21,"x_max":1479,"o":"m 1289 796 l 1289 0 l 1390 0 l 1390 796 l 1478 796 l 1478 883 l 1375 883 l 1343 975 l 1288 975 l 1293 872 l 1193 883 l -21 883 l -21 796 l 1064 796 l 1064 290 l 907 349 q 931 406 907 350 q 947 499 947 454 q 844 685 947 626 q 689 719 781 719 q 566 713 640 719 q 442 700 492 706 l 392 693 l 403 619 l 665 619 q 846 544 819 619 q 851 501 851 525 q 836 422 851 461 q 725 275 806 342 q 650 229 688 247 q 576 213 614 213 q 375 325 478 214 l 125 596 l 74 558 q 176 411 74 558 q 306 253 251 310 q 579 111 440 111 q 685 135 633 111 q 857 263 793 185 l 1064 193 l 1064 0 l 1165 0 l 1165 796 l 1289 796 z "},"ত":{"ha":1013,"x_min":-47,"x_max":1068,"o":"m 1068 883 l 1068 796 l -47 796 l -47 883 l 1068 883 m 651 79 q 535 51 590 51 q 317 143 422 51 q 261 196 290 167 q 43 501 156 304 l 94 539 l 331 268 q 532 156 429 156 q 617 174 578 156 q 792 326 714 218 q 832 397 821 367 q 853 500 853 454 q 747 611 853 593 q 671 617 714 617 l 388 617 l 376 689 q 608 713 376 689 q 694 717 663 717 q 947 535 925 717 q 950 497 950 515 q 928 381 950 440 q 703 107 861 203 q 651 79 676 90 z "},"ই":{"ha":813,"x_min":-19,"x_max":828,"o":"m 436 615 l 144 615 l 133 689 q 301 711 133 689 q 438 718 381 718 q 667 608 622 718 q 688 440 688 557 q 644 353 688 394 q 542 288 601 313 q 421 244 483 263 q 319 217 358 225 q 276 210 281 210 q 683 -25 406 136 l 649 -90 q 431 7 649 -90 q 103 181 225 104 l 114 289 q 267 315 114 289 q 586 475 585 382 q 532 604 586 582 q 436 615 504 615 m 564 883 q 521 976 564 961 q 475 983 503 983 l 113 983 l 107 1053 q 463 1072 107 1053 q 483 1072 475 1072 q 661 883 657 1065 l 828 883 l 828 796 l -19 796 l -19 883 l 564 883 z "},"e":{"ha":729,"x_min":69,"x_max":674,"o":"m 69 372 q 147 683 69 608 q 357 743 206 739 q 392 743 374 743 q 592 708 536 743 q 674 482 674 654 q 483 313 671 314 l 172 313 q 217 122 172 161 q 313 96 247 96 l 314 96 l 315 96 l 317 96 l 318 96 l 319 96 l 321 96 l 322 96 l 324 96 l 325 96 l 326 96 l 328 96 l 329 96 l 331 96 l 332 96 l 333 96 l 335 96 l 336 96 l 338 96 l 339 96 l 340 96 l 342 96 l 343 96 l 344 96 l 346 96 l 347 96 l 349 96 l 350 96 l 351 96 l 353 96 l 354 96 l 356 96 l 357 96 l 371 96 q 660 110 565 96 l 660 32 q 313 -7 522 -7 q 121 75 172 -7 q 69 372 69 157 m 172 414 l 483 414 q 571 482 569 417 q 539 615 571 588 q 393 640 503 640 q 240 622 276 640 q 174 468 182 592 q 172 414 172 443 z "},"হ":{"ha":785,"x_min":-19,"x_max":800,"o":"m 436 615 l 144 615 l 133 689 q 301 711 133 689 q 438 718 381 718 q 667 608 622 718 q 688 440 688 557 q 644 353 688 394 q 542 288 601 313 q 421 244 483 263 q 319 217 358 225 q 276 210 281 210 q 683 -25 406 136 l 649 -90 q 431 7 649 -90 q 103 181 225 104 l 114 289 q 267 315 114 289 q 586 475 585 382 q 532 604 586 582 q 436 615 504 615 m 800 883 l 800 796 l -19 796 l -19 883 l 800 883 z "},"উ":{"ha":1042,"x_min":-19,"x_max":1054,"o":"m 732 883 q 693 972 732 957 q 643 979 674 979 l 190 979 l 185 1053 q 651 1072 186 1053 q 829 900 821 1074 q 829 883 829 892 l 1054 883 l 1054 796 l 553 796 l 553 572 q 682 590 553 572 q 764 594 728 594 q 939 506 890 594 q 957 432 957 471 q 746 64 956 240 q 572 0 668 0 q 340 135 460 1 q 205 325 264 221 q 125 492 146 429 l 103 553 l 168 578 q 289 383 168 578 q 396 232 354 282 q 518 119 469 142 q 576 106 547 106 q 697 160 636 107 q 857 417 857 300 q 756 494 854 493 l 451 472 l 451 796 l -19 796 l -19 883 l 732 883 z "},"ড":{"ha":1021,"x_min":-19,"x_max":1036,"o":"m 1036 883 l 1036 796 l 538 796 l 538 572 q 667 590 538 572 q 749 594 713 594 q 924 506 875 594 q 942 432 942 471 q 731 64 940 239 q 557 0 653 0 q 325 135 444 1 q 94 531 174 307 q 88 553 90 544 l 153 578 q 274 383 153 578 q 381 232 340 282 q 503 119 454 142 q 561 106 531 106 q 682 160 621 107 q 843 417 842 301 q 740 494 839 493 l 436 472 l 436 796 l -19 796 l -19 883 l 1036 883 z "},"ড়":{"ha":1028,"x_min":-19,"x_max":1040,"o":"m 1040 883 l 1040 796 l 524 796 l 524 572 q 653 590 524 572 q 735 594 699 594 q 910 506 861 594 q 928 432 928 471 q 717 64 926 239 q 543 0 639 0 q 311 135 431 1 q 81 531 160 307 q 74 553 76 544 l 139 578 q 260 383 139 578 q 367 232 326 282 q 489 119 440 142 q 547 106 517 106 q 668 160 607 107 q 829 417 828 301 q 726 494 825 493 l 422 472 l 422 796 l -19 796 l -19 883 l 1040 883 m 418 -183 l 418 -104 q 446 -75 421 -76 l 521 -75 q 550 -104 549 -78 l 550 -183 q 521 -211 547 -210 l 446 -211 q 418 -183 419 -208 z "},"ঊ":{"ha":1042,"x_min":-19,"x_max":1054,"o":"m 356 119 q 206 263 278 183 q 100 390 133 343 l 68 438 l 119 483 l 322 257 q 199 579 276 300 l 267 604 q 324 444 267 604 q 429 232 383 293 q 585 108 513 121 q 610 106 597 106 q 731 160 669 107 q 890 417 890 300 q 789 494 888 493 l 485 472 l 485 796 l -19 796 l -19 883 l 765 883 q 726 972 765 957 q 676 979 707 979 l 224 979 l 218 1053 q 685 1072 219 1053 q 863 900 854 1074 q 863 883 863 892 l 1054 883 l 1054 796 l 586 796 l 586 572 q 715 590 586 572 q 797 594 761 594 q 972 506 924 594 q 990 432 990 471 q 779 64 989 239 q 606 0 701 0 q 356 119 501 0 z "},"ক":{"ha":1194,"x_min":-14,"x_max":1218,"o":"m 722 635 l 722 0 l 621 0 l 104 383 l 104 503 l 621 739 l 621 796 l -14 796 l -14 883 l 1217 883 l 1217 796 l 722 796 l 722 739 l 982 650 q 1108 544 1076 619 q 1121 483 1121 515 q 1094 385 1121 435 q 978 228 1051 297 l 911 274 q 1000 426 911 274 q 1019 482 1019 458 q 911 572 1017 542 l 722 635 m 621 124 l 621 631 l 203 432 l 621 124 z "},"ঋ":{"ha":1069,"x_min":64,"x_max":1086,"o":"m 858 222 l 718 274 l 718 0 l 617 0 l 78 333 l 78 446 l 467 615 l 426 701 q 361 665 426 701 q 219 626 279 626 q 104 665 144 628 q 64 768 64 704 q 106 853 65 825 q 249 900 153 883 l 261 844 q 178 810 260 843 q 153 769 154 797 q 171 726 154 744 q 222 711 188 711 q 454 810 301 711 q 457 813 457 813 q 468 813 465 817 l 544 650 l 617 682 l 617 883 l 718 882 l 718 375 l 858 315 l 858 883 l 851 975 l 908 975 l 940 883 l 1086 883 l 1086 796 l 960 796 l 960 54 l 858 54 l 858 222 m 617 114 l 617 581 l 176 382 l 617 114 z "},"ঝ":{"ha":1056,"x_min":-19,"x_max":1075,"o":"m 722 376 l 863 315 l 863 883 l 856 975 l 917 975 l 949 883 l 1075 883 l 1075 796 l 964 796 l 964 54 l 863 54 l 863 222 l 722 275 l 722 0 l 621 0 l 96 390 l 96 503 l 621 739 l 621 796 l -19 796 l -19 883 l 722 883 l 722 376 m 621 114 l 621 638 l 194 439 l 621 114 z "},"ধ":{"ha":799,"x_min":96,"x_max":815,"o":"m 621 131 l 621 631 l 200 436 l 621 131 m 388 632 l 621 736 l 621 883 l 615 975 l 676 975 l 708 883 l 815 883 l 815 796 l 722 796 l 722 0 l 621 0 l 96 390 l 96 500 l 285 586 q 226 613 285 586 q 113 750 114 674 q 158 874 113 817 q 236 918 194 917 q 315 909 269 918 q 390 890 361 900 l 419 881 l 406 822 q 289 839 406 822 q 268 840 276 840 q 207 790 226 840 q 200 753 200 771 q 247 695 200 725 q 342 649 294 665 l 388 632 z "},"ব":{"ha":813,"x_min":-19,"x_max":826,"o":"m 722 796 l 722 0 l 621 0 l 96 379 l 96 503 l 621 739 l 621 796 l -19 796 l -19 883 l 826 883 l 826 796 l 722 796 m 621 131 l 621 631 l 200 436 l 621 131 z "},"র":{"ha":813,"x_min":-19,"x_max":826,"o":"m 724 796 l 722 0 l 621 0 l 96 379 l 96 503 l 621 739 l 621 796 l -19 796 l -19 883 l 826 883 l 826 796 l 724 796 m 621 131 l 621 631 l 200 436 l 621 131 m 178 15 l 178 94 q 206 124 181 122 l 281 124 q 310 94 308 122 l 310 15 q 281 -11 307 -11 l 206 -11 q 178 15 179 -10 z "},"এ":{"ha":938,"x_min":76,"x_max":843,"o":"m 251 583 l 210 636 q 454 839 360 790 q 586 875 525 875 q 799 786 729 875 q 843 643 843 728 l 843 0 l 742 0 l 742 117 q 661 69 742 117 q 440 0 531 0 q 231 61 307 0 q 174 124 199 88 q 76 353 122 200 l 135 383 l 249 201 q 444 100 313 100 q 574 131 500 100 q 694 192 649 161 l 742 222 l 742 635 q 682 746 742 704 q 596 772 644 772 q 461 725 547 772 q 314 631 375 678 l 251 583 z "},"ঐ":{"ha":1111,"x_min":61,"x_max":1036,"o":"m 828 388 q 1036 565 1035 390 l 1017 1032 l 935 1026 l 935 574 q 875 489 935 503 q 828 485 856 485 l 828 643 q 688 854 828 801 q 571 875 633 875 q 249 690 436 875 q 194 636 226 668 l 236 583 q 342 660 236 583 q 581 772 506 771 q 708 701 667 772 q 726 635 726 669 l 726 222 q 647 174 726 222 q 429 100 515 100 q 233 201 297 103 l 119 383 l 61 353 q 163 124 104 208 q 425 0 260 1 q 715 110 544 0 q 726 117 726 117 l 726 0 l 828 0 l 828 388 z "},"ঞ":{"ha":1285,"x_min":103,"x_max":1194,"o":"m 871 694 q 988 717 871 694 q 1031 721 1014 721 q 1150 697 1119 721 q 1194 563 1194 661 l 1194 551 q 1132 432 1193 443 q 1193 311 1193 419 l 1193 299 q 1110 149 1193 171 q 1031 143 1083 143 q 957 149 997 143 q 894 161 917 156 l 871 168 l 871 0 l 768 0 l 768 117 q 688 69 768 117 q 467 0 557 0 q 257 61 333 0 q 200 124 225 88 q 103 353 149 200 l 158 388 l 275 201 q 471 100 339 100 q 601 131 526 100 q 722 192 675 161 l 768 222 l 768 635 q 707 744 768 704 q 622 768 669 768 q 488 722 574 768 q 340 629 401 675 l 278 583 l 236 636 q 549 867 401 826 q 613 875 582 875 q 851 743 783 875 q 871 694 867 717 m 871 242 q 1031 231 882 242 q 1094 289 1093 233 l 1094 318 q 1051 383 1094 375 q 1021 386 1038 386 l 947 386 l 947 469 l 1021 469 q 1092 510 1082 469 q 1094 538 1094 522 l 1094 572 q 1033 631 1092 629 l 871 617 l 871 242 z "},"ট":{"ha":833,"x_min":-32,"x_max":847,"o":"m 568 560 q 710 474 675 560 q 721 411 721 444 q 690 297 721 368 q 467 61 629 154 q 279 0 358 0 q 113 131 146 0 q 101 221 101 171 l 101 796 l -32 796 l -32 883 l 590 883 q 501 1017 589 1015 l -19 1017 l -25 1090 q 510 1110 -18 1090 q 674 982 633 1110 q 688 883 688 936 l 847 883 l 847 796 l 203 796 l 203 235 q 246 111 203 131 q 285 103 263 103 q 465 178 364 103 q 581 296 538 231 q 622 404 622 361 q 542 468 619 467 l 406 468 l 397 551 q 568 560 399 551 z "},"ঢ":{"ha":847,"x_min":-18,"x_max":861,"o":"m 861 883 l 861 796 l 204 796 l 204 235 q 247 111 204 131 q 286 103 264 103 q 467 178 365 103 q 582 296 539 231 q 624 404 624 361 q 543 468 621 467 l 407 468 l 399 551 q 569 560 400 551 q 711 474 676 560 q 722 411 722 444 q 692 297 722 368 q 463 58 629 151 q 281 0 356 0 q 114 131 147 0 q 103 221 103 171 l 103 796 l -18 796 l -18 883 l 861 883 z "},"ঢ়":{"ha":833,"x_min":-18,"x_max":850,"o":"m 103 796 l 103 221 q 239 4 103 32 q 281 0 260 0 q 492 76 371 0 q 692 297 636 167 q 722 411 722 369 q 644 544 722 507 q 569 560 611 560 l 399 551 l 407 468 l 543 468 q 624 404 622 465 q 582 296 622 360 q 388 131 513 188 q 286 103 328 103 q 208 171 222 103 q 204 235 204 196 l 204 796 l 850 796 l 850 883 l -18 883 l -18 796 l 103 796 m 196 -186 l 196 -107 q 224 -78 199 -79 l 299 -78 q 328 -107 326 -81 l 328 -186 q 299 -214 325 -212 l 224 -214 q 196 -186 197 -211 z "},"য":{"ha":868,"x_min":-11,"x_max":879,"o":"m 782 796 l 782 0 l 681 0 l 161 274 l 161 378 q 275 431 161 378 q 408 540 408 501 q 125 739 408 582 q 110 747 110 747 l 132 796 l -11 796 l -11 883 l 879 883 l 879 796 l 782 796 m 681 796 l 181 796 q 333 722 181 796 q 418 676 383 697 q 515 582 499 628 q 521 549 521 565 q 449 419 521 476 q 292 325 399 381 l 681 118 l 681 796 z "},"য়":{"ha":868,"x_min":-11,"x_max":879,"o":"m 782 796 l 782 0 l 681 0 l 163 274 l 161 378 q 275 431 161 378 q 408 540 408 501 q 125 739 408 582 q 110 747 110 747 l 132 796 l -11 796 l -11 883 l 879 883 l 879 796 l 782 796 m 681 796 l 181 796 q 333 722 181 796 q 418 676 383 697 q 515 582 499 628 q 521 549 521 565 q 449 419 521 476 q 292 325 399 381 l 681 118 l 681 796 m 256 -24 l 256 56 q 283 85 258 83 l 358 85 q 388 56 386 82 l 388 -24 q 358 -50 385 -49 l 283 -50 q 256 -24 257 -47 z "},"ষ":{"ha":868,"x_min":-11,"x_max":885,"o":"m 768 796 l 768 0 l 667 0 l 147 274 l 147 378 q 261 431 147 378 q 394 540 394 501 q 111 739 394 582 q 96 747 96 747 l 118 796 l -11 796 l -11 883 l 885 883 l 885 796 l 768 796 m 404 676 q 667 596 561 596 l 667 796 l 167 796 q 404 676 168 794 m 504 519 q 496 493 504 519 q 275 325 454 408 q 272 324 274 324 l 667 118 l 667 490 q 594 497 635 490 q 529 513 553 504 l 504 519 z "},"ফ":{"ha":1174,"x_min":-19,"x_max":1188,"o":"m 151 796 q 304 722 151 796 q 389 676 354 697 q 486 582 469 628 q 492 549 492 565 q 421 419 492 476 q 265 325 371 379 l 643 118 l 643 685 l 876 685 q 1093 514 1090 681 q 1064 414 1092 471 q 946 269 1033 353 l 875 317 q 961 446 876 318 q 988 521 988 486 q 881 585 985 585 l 744 585 l 744 0 l 643 0 l 133 274 l 133 378 q 247 432 133 378 q 379 540 379 501 q 96 739 379 582 q 81 747 81 747 l 103 796 l -19 796 l -19 883 l 1188 883 l 1188 796 l 151 796 z "},"ঘ":{"ha":833,"x_min":-14,"x_max":850,"o":"m 232 796 q 183 711 232 796 q 164 656 164 672 q 175 619 165 632 q 350 596 199 596 l 482 596 l 511 475 l 225 313 l 643 114 l 643 796 l 232 796 m 744 796 l 744 0 l 643 0 l 110 257 l 110 361 l 385 507 q 315 507 383 507 q 81 567 125 507 q 63 626 63 592 q 142 796 64 697 l -14 796 l -14 883 l 849 883 l 849 796 l 744 796 z "},"ভ":{"ha":1146,"x_min":-15,"x_max":1158,"o":"m 600 394 q 393 469 436 394 q 374 560 374 506 q 407 690 374 656 q 411 694 410 693 q 486 717 439 717 q 504 717 493 717 q 565 713 525 717 q 635 707 606 710 l 664 703 l 656 628 l 511 628 q 476 550 478 617 q 568 499 476 503 q 608 499 585 499 q 739 554 656 499 q 851 606 817 606 q 968 517 897 606 q 1033 385 1032 433 q 892 183 1033 300 q 743 85 819 124 q 585 44 664 44 q 296 194 444 46 q 85 479 183 307 l 143 522 l 351 292 q 579 151 476 153 q 707 185 644 151 q 881 314 815 242 q 918 385 917 356 q 878 458 918 411 q 835 488 851 488 q 768 451 822 488 q 600 394 679 394 m 1158 796 l -15 796 l -15 883 l 1158 883 l 1158 796 z "},"খ":{"ha":931,"x_min":69,"x_max":942,"o":"m 658 536 l 294 376 l 753 118 l 753 883 l 746 975 l 807 975 l 839 883 l 942 883 l 942 796 l 854 796 l 854 0 l 753 0 l 185 324 l 185 439 l 535 592 q 513 656 533 593 q 475 692 496 690 q 399 660 469 692 q 231 615 301 615 q 115 656 154 615 q 71 751 78 694 q 69 764 69 758 q 106 853 71 819 q 124 866 113 860 q 147 877 135 872 q 174 886 160 882 q 201 894 188 890 q 227 899 214 897 q 251 903 240 901 q 270 905 261 904 q 283 906 279 906 l 288 907 l 304 851 q 194 801 303 850 q 165 763 167 786 q 181 729 167 743 q 233 714 196 715 q 428 765 299 710 q 518 796 497 796 q 581 757 565 794 q 658 536 658 536 z "},"থ":{"ha":882,"x_min":85,"x_max":894,"o":"m 303 740 l 96 740 l 85 814 q 203 833 85 814 q 304 840 260 840 q 528 767 479 840 q 557 613 557 719 q 524 531 557 571 q 445 463 492 490 q 351 415 399 436 q 272 383 304 394 l 239 374 l 689 114 l 689 988 l 753 988 l 779 883 l 893 883 l 893 796 l 790 796 l 790 0 l 689 0 l 126 321 l 126 442 q 240 476 126 442 q 457 631 456 551 q 431 719 457 700 q 303 740 399 740 z "},"চ":{"ha":851,"x_min":-29,"x_max":868,"o":"m 203 563 l 203 231 q 278 100 203 110 q 293 99 286 99 q 475 182 364 99 q 606 318 560 246 q 647 426 647 383 q 604 485 647 471 q 567 493 592 488 q 416 523 507 506 q 264 551 325 540 l 203 563 m 203 643 q 354 626 204 643 q 593 596 556 603 q 746 433 744 568 q 711 314 746 379 q 490 74 636 171 q 290 0 378 0 q 124 101 169 0 q 101 221 103 153 l 101 796 l -29 796 l -29 883 l 867 883 l 867 796 l 203 796 l 203 643 z "},"ছ":{"ha":917,"x_min":-19,"x_max":933,"o":"m 476 478 q 504 535 503 501 q 443 596 504 581 q 393 606 431 599 q 203 639 203 639 l 203 444 q 271 369 214 376 q 472 475 343 369 q 476 478 475 476 m 597 563 q 603 529 597 561 q 532 410 603 471 q 521 401 525 406 q 260 275 365 276 q 146 324 194 275 q 101 433 101 368 l 101 796 l -19 796 l -19 883 l 933 883 l 933 796 l 203 796 l 203 717 q 406 689 204 717 q 660 644 578 664 q 810 546 781 617 q 821 479 821 517 q 804 343 821 435 q 709 244 796 294 q 539 167 622 193 l 457 142 l 799 4 l 776 -61 q 554 8 776 -61 q 317 103 390 63 l 317 203 q 461 244 317 203 q 715 390 697 322 q 724 472 724 428 q 697 528 724 511 q 661 544 683 536 q 628 556 644 551 q 604 561 611 560 l 597 563 z "},"ঙ":{"ha":958,"x_min":42,"x_max":890,"o":"m 424 403 l 424 608 q 311 647 424 608 q 246 676 274 663 q 196 703 196 703 l 228 767 l 424 694 q 460 836 425 794 q 558 883 496 876 q 601 885 578 885 q 751 861 715 885 q 799 739 799 828 q 751 615 799 642 q 671 599 722 599 l 514 599 l 514 485 q 729 500 528 485 q 875 428 836 500 q 890 371 889 401 q 697 97 890 231 q 653 69 675 83 q 499 22 575 24 q 278 147 388 24 q 224 215 251 176 q 174 292 197 254 q 131 370 151 331 q 94 442 110 410 q 66 501 78 475 q 47 542 54 528 l 42 557 l 107 582 q 213 410 107 582 q 346 228 294 285 q 476 126 426 138 q 499 125 488 125 q 594 153 544 125 q 790 357 789 264 q 700 403 788 401 l 424 403 m 514 682 l 647 682 q 713 729 710 686 q 699 783 713 774 q 611 793 681 793 q 531 779 544 793 q 514 682 514 760 z "},"ন":{"ha":819,"x_min":-19,"x_max":833,"o":"m 636 400 q 471 457 636 400 q 282 499 338 499 q 194 438 219 499 q 185 390 185 414 q 196 344 185 363 q 321 201 233 282 l 272 139 q 167 221 272 139 q 146 240 153 233 q 82 401 83 307 q 143 546 83 492 q 301 600 208 600 q 433 574 349 600 q 576 521 517 547 l 636 494 l 636 796 l -19 796 l -19 883 l 833 883 l 833 796 l 738 796 l 738 0 l 636 0 l 636 400 z "},"ণ":{"ha":799,"x_min":65,"x_max":814,"o":"m 701 796 l 701 0 l 600 0 l 600 642 q 507 688 600 642 q 296 743 379 742 q 196 672 240 743 q 169 596 169 629 q 174 569 169 583 q 186 540 178 554 q 205 511 194 526 q 226 482 215 496 q 249 455 238 468 q 270 431 260 442 q 288 413 281 421 q 301 400 296 404 q 306 396 306 396 l 256 340 q 192 385 256 340 q 129 442 154 414 q 65 592 67 511 q 129 756 65 669 q 163 793 147 779 q 303 843 226 842 q 390 832 347 843 q 491 799 439 819 q 572 764 543 779 l 600 750 l 600 883 l 631 999 l 701 999 l 701 883 l 814 883 l 814 796 l 701 796 z "},"গ":{"ha":750,"x_min":28,"x_max":767,"o":"m 558 697 l 558 0 l 658 0 l 658 796 l 767 796 l 767 883 l 640 883 l 604 975 l 547 975 l 558 883 l 558 779 q 436 822 558 779 q 222 864 303 864 q 126 833 163 863 q 57 725 93 806 q 29 622 29 665 q 150 519 29 565 q 207 499 169 511 q 265 478 249 485 q 303 403 303 461 q 297 390 303 399 q 281 373 290 382 q 258 353 271 364 q 231 331 244 342 q 202 309 217 319 q 174 290 188 299 q 151 274 161 281 q 135 263 142 267 q 129 258 129 258 l 174 188 q 281 250 174 188 q 404 367 403 328 q 381 499 404 428 q 379 501 379 500 q 331 558 365 540 q 300 572 317 565 q 229 597 275 582 q 144 639 154 621 q 143 649 143 644 q 183 735 143 688 q 224 763 207 763 q 368 738 256 763 l 558 697 z "},"প":{"ha":917,"x_min":53,"x_max":931,"o":"m 617 646 q 543 710 615 647 q 428 761 475 761 q 338 726 393 761 l 239 658 l 394 463 l 617 646 m 815 0 l 714 0 l 714 558 l 683 588 l 413 357 l 350 367 l 161 613 l 97 569 l 53 631 q 151 714 53 631 q 290 813 231 778 q 424 863 376 863 q 546 818 482 861 q 620 760 578 796 q 689 699 663 724 l 714 674 l 714 883 l 704 975 l 763 975 l 799 883 l 931 883 l 931 796 l 815 796 l 815 0 z "},"ল":{"ha":1007,"x_min":-19,"x_max":1029,"o":"m 817 590 l 817 796 l -19 796 l -19 883 l 1029 883 l 1029 796 l 918 796 l 918 0 l 817 0 l 817 400 q 760 524 817 504 q 722 529 743 529 q 592 488 625 529 q 561 400 569 457 l 546 286 l 468 286 l 464 353 q 415 504 460 472 q 267 529 378 529 q 178 468 203 529 q 169 419 169 444 l 222 163 l 158 139 q 124 204 158 139 q 65 447 65 331 q 224 633 65 614 q 263 636 243 636 q 478 592 424 636 q 515 535 504 569 q 649 626 553 614 q 715 629 676 629 q 817 590 792 628 z "},"দ":{"ha":729,"x_min":-15,"x_max":742,"o":"m 90 410 l 90 796 l -15 796 l -15 883 l 742 883 l 742 796 l 193 796 l 193 461 l 581 628 l 643 593 l 560 -49 l 457 -49 l 529 496 l 153 331 l 90 410 z "},"শ":{"ha":896,"x_min":-15,"x_max":903,"o":"m 663 831 l 663 883 l 693 996 l 764 996 l 764 883 l 903 883 l 903 796 l 764 796 l 764 0 l 663 0 l 663 708 q 568 769 663 746 q 489 781 524 781 q 382 664 383 778 q 404 554 382 581 q 438 526 417 539 q 563 467 486 497 l 538 392 q 463 410 538 392 q 431 421 444 415 q 382 444 406 431 q 347 464 358 457 l 336 472 q 300 447 336 472 q 244 421 275 433 q 107 388 188 399 l 86 464 q 199 510 86 464 q 207 514 204 513 q 268 579 257 538 q 275 671 275 607 q 217 775 275 763 q 203 778 208 776 q -15 796 -15 796 l -15 883 l 222 883 q 339 842 300 883 q 347 832 344 836 q 443 881 386 876 q 465 881 454 881 q 650 839 574 881 q 663 831 657 835 z "},"ম":{"ha":785,"x_min":-17,"x_max":836,"o":"m 314 619 q 226 676 279 644 q 138 728 174 708 l 101 747 l 124 796 l -17 796 l -17 883 l 836 883 l 836 796 l 726 796 l 726 0 l 625 0 l 625 306 q 372 393 625 306 q 301 411 315 411 q 243 369 268 410 q 219 301 219 329 q 232 272 221 283 q 339 178 339 178 l 299 124 q 215 171 299 124 q 169 203 188 189 q 118 293 119 246 q 153 417 119 357 q 281 514 210 513 l 335 510 q 343 571 343 568 q 314 619 342 599 m 443 579 l 431 483 l 625 399 l 625 796 l 174 796 q 265 753 174 796 q 340 711 304 733 q 443 579 442 649 z "},"স":{"ha":861,"x_min":-12,"x_max":876,"o":"m 681 365 q 582 414 681 365 q 511 436 532 436 q 457 403 476 436 q 447 381 451 392 q 336 186 386 229 q 260 157 301 157 q 178 173 228 157 q 97 204 129 189 l 64 219 l 86 297 q 222 263 86 297 q 236 261 232 261 q 365 449 290 263 q 381 518 381 488 q 274 642 381 564 q 269 644 271 643 q 129 743 129 743 l 156 796 l -12 796 l -12 883 l 876 883 l 876 796 l 782 796 l 782 0 l 681 0 l 681 365 m 681 474 l 681 796 l 192 796 q 278 751 193 796 q 456 624 422 669 q 474 590 467 608 q 483 561 482 572 l 486 551 q 531 544 504 551 q 582 525 557 536 q 627 503 607 514 q 664 483 647 492 l 681 474 z "},"জ":{"ha":1215,"x_min":-22,"x_max":1242,"o":"m 424 425 q 618 438 424 425 q 639 438 629 438 q 772 408 751 438 q 779 385 779 397 q 642 207 778 321 q 518 149 572 150 q 371 239 449 149 q 338 279 358 253 l 124 551 l 61 517 q 96 443 61 517 q 282 182 165 314 q 518 42 407 42 q 694 114 608 42 q 890 425 889 279 q 647 531 883 529 l 525 522 l 525 685 q 951 578 525 685 q 954 576 953 576 q 1028 447 1054 544 q 890 -22 890 -22 l 992 -22 l 1132 457 q 1140 518 1140 492 q 1044 644 1140 601 q 938 682 1015 657 q 781 721 885 699 q 601 757 678 743 l 525 771 l 525 796 l 1242 796 l 1242 883 l -21 883 l -21 796 l 424 796 l 424 425 z "},"ও":{"ha":1007,"x_min":75,"x_max":899,"o":"m 600 782 l 351 782 l 340 856 q 461 875 340 856 q 600 883 535 883 q 822 781 806 883 q 824 758 824 769 q 821 671 824 706 q 807 550 813 569 q 789 522 799 531 q 881 407 843 506 q 899 322 899 358 q 764 111 899 213 q 708 74 738 92 q 568 35 643 35 q 360 97 442 35 q 268 197 310 136 q 75 549 160 357 l 129 582 l 336 283 q 493 146 414 171 q 565 136 526 136 q 718 208 635 136 q 792 342 792 272 q 753 425 792 381 q 685 463 719 461 l 511 463 l 511 551 l 654 551 q 711 601 700 551 q 718 658 715 619 q 721 717 721 692 q 667 778 721 768 q 600 782 642 782 z "},"ঔ":{"ha":1076,"x_min":67,"x_max":1006,"o":"m 835 478 q 875 382 835 478 q 890 322 890 340 q 768 121 890 219 q 696 71 735 94 q 550 35 635 35 q 260 197 369 36 q 67 549 151 356 l 121 582 l 332 275 q 510 139 414 156 q 551 136 531 136 q 707 206 618 136 q 710 208 708 207 q 783 342 783 268 q 744 425 783 381 q 676 463 711 461 l 503 463 l 503 551 l 646 551 q 703 601 692 551 q 710 658 707 619 q 713 717 713 692 q 658 778 713 768 q 592 782 633 782 l 343 782 l 332 856 q 453 875 332 856 q 592 883 526 883 q 814 781 797 883 q 815 758 815 769 q 813 671 815 706 q 804 571 804 571 q 917 675 915 574 l 917 1022 l 986 1028 q 1006 694 986 1028 q 1006 669 1006 679 q 915 496 1006 543 q 835 478 879 478 z "},"ঈ":{"ha":1042,"x_min":-19,"x_max":1057,"o":"m 132 589 l 113 664 q 389 717 253 717 q 513 661 472 717 q 533 599 533 633 q 490 478 532 547 l 432 383 l 788 611 l 931 611 l 938 543 l 829 510 l 749 -94 l 650 -94 l 726 446 l 213 131 l 176 204 l 250 278 l 393 492 q 435 583 433 550 q 375 624 432 622 q 286 615 347 624 q 179 597 225 606 l 132 589 m 783 883 l 1057 883 l 1057 796 l -19 796 l -19 883 l 686 883 q 646 974 686 958 q 597 981 628 979 l 164 981 l 158 1053 q 606 1072 167 1053 q 783 883 782 1069 z "},"ঌ":{"ha":875,"x_min":75,"x_max":799,"o":"m 208 56 l 142 29 q 114 96 142 29 q 107 121 108 110 q 167 315 75 264 q 239 340 197 331 q 397 349 344 364 q 417 342 407 346 q 501 194 474 318 l 519 97 q 638 119 521 99 q 694 181 681 129 q 699 208 699 194 q 683 306 699 281 q 532 417 667 329 q 308 592 351 533 q 286 646 286 621 q 397 847 286 742 q 460 899 428 875 l 508 846 q 388 672 404 740 q 386 660 386 665 q 508 554 386 633 q 710 418 672 450 q 771 354 754 382 q 799 200 799 304 q 721 49 799 101 q 665 25 693 31 q 454 0 597 10 l 429 113 q 375 253 404 229 q 296 253 356 267 l 294 253 l 293 253 l 292 253 l 290 253 l 289 251 l 288 251 l 286 251 l 285 251 l 283 251 l 282 250 l 281 250 l 279 250 l 278 250 l 276 249 l 275 249 l 274 249 l 272 249 l 271 249 l 269 247 l 268 247 l 267 247 l 265 247 l 264 246 l 263 246 l 261 246 l 260 246 l 258 244 q 192 133 178 228 q 199 96 193 118 q 208 56 208 56 z "},"ঠ":{"ha":806,"x_min":-19,"x_max":824,"o":"m 733 313 q 640 136 733 235 q 413 3 532 24 q 374 0 393 0 q 163 157 274 0 q 61 364 81 274 q 58 388 58 378 q 167 446 58 388 q 267 519 239 490 q 314 617 314 572 q 272 701 314 643 q 268 707 271 703 q 264 713 265 711 q 233 796 233 756 l -19 796 l -19 883 l 235 883 q 244 915 235 883 q 272 954 256 936 q 486 1133 346 1035 l 531 1082 q 353 914 529 1081 q 340 899 346 907 q 333 888 335 892 l 331 883 l 824 883 l 824 796 l 333 796 q 454 647 333 757 q 629 486 603 514 q 733 313 732 378 m 632 308 q 573 400 632 335 q 456 517 514 465 l 396 568 q 346 469 394 526 q 172 338 286 400 q 219 251 172 338 q 383 103 314 104 q 561 199 465 103 q 632 308 631 269 z "},"A":{"ha":931,"x_min":63,"x_max":896,"o":"m 63 0 l 436 1017 l 539 1017 l 896 0 l 774 0 l 686 283 l 281 283 l 189 0 l 63 0 m 318 386 l 650 386 l 486 860 l 318 386 z "},"B":{"ha":828,"x_min":111,"x_max":772,"o":"m 111 0 l 111 1017 l 503 1017 q 744 869 683 1017 q 767 753 767 814 q 639 528 765 568 q 747 424 711 511 q 772 283 772 363 q 572 6 772 40 q 503 0 539 0 l 111 0 m 215 103 l 503 103 q 669 268 661 103 q 669 286 669 278 q 588 460 669 413 q 503 481 550 481 l 215 481 l 215 103 m 215 583 l 503 583 q 664 753 663 586 q 503 914 657 910 l 215 914 l 215 583 z "},"C":{"ha":803,"x_min":76,"x_max":754,"o":"m 76 511 q 164 925 76 811 q 415 1028 246 1028 q 732 997 546 1028 q 754 993 744 994 l 754 911 q 749 911 754 911 q 415 925 531 925 q 239 853 288 925 q 179 508 179 765 q 415 94 181 96 l 754 104 l 754 22 q 415 -8 593 -6 q 76 511 78 -6 z "},"D":{"ha":913,"x_min":111,"x_max":850,"o":"m 111 0 l 111 1017 l 489 1017 q 838 674 781 1017 q 850 504 850 596 q 747 131 850 272 q 489 0 650 1 l 111 0 m 214 107 l 489 107 q 717 296 654 107 q 747 506 747 386 q 532 911 747 881 q 489 914 511 914 l 214 914 l 214 107 z "},"E":{"ha":788,"x_min":111,"x_max":725,"o":"m 111 171 l 111 836 q 224 1011 111 981 q 275 1017 249 1017 q 286 1017 282 1017 l 725 994 l 725 914 l 286 914 q 215 864 221 914 q 214 836 214 854 l 214 558 l 669 544 l 669 463 l 214 449 l 214 171 q 268 100 215 106 q 296 99 279 99 q 297 99 296 99 q 300 99 299 99 l 725 99 l 725 19 l 300 -4 q 278 -6 288 -4 q 111 171 113 -1 z "},"F":{"ha":788,"x_min":111,"x_max":725,"o":"m 111 0 l 111 836 q 224 1011 111 981 q 275 1017 249 1017 q 286 1017 282 1017 l 725 994 l 725 914 l 286 914 q 215 864 221 914 q 214 836 214 854 l 214 558 l 669 544 l 669 463 l 214 449 l 214 0 l 111 0 z "},"G":{"ha":853,"x_min":76,"x_max":776,"o":"m 76 514 q 176 938 76 821 q 401 1028 256 1028 q 725 996 525 1028 q 754 990 742 993 l 754 908 q 728 910 753 908 q 401 925 511 925 q 217 813 264 925 q 179 511 179 721 q 251 156 179 240 q 407 94 303 97 q 410 94 408 94 q 447 97 428 94 q 486 102 467 99 q 526 110 506 106 q 564 121 546 115 q 599 132 582 126 q 629 142 615 138 q 653 151 643 147 q 668 156 663 154 q 674 158 674 158 l 674 436 l 440 436 l 440 506 q 682 540 568 540 q 776 536 728 540 l 776 0 l 699 0 l 676 68 q 407 -7 540 -7 q 401 -7 404 -7 q 115 188 182 -7 q 76 514 76 300 z "},"H":{"ha":886,"x_min":111,"x_max":803,"o":"m 111 0 l 111 1017 l 214 1017 l 214 543 l 700 543 l 700 1017 l 803 1017 l 803 0 l 700 0 l 700 440 l 214 440 l 214 0 l 111 0 z "},"I":{"ha":297,"x_min":111,"x_max":214,"o":"m 111 0 l 111 1017 l 214 1017 l 214 0 l 111 0 z "},"J":{"ha":499,"x_min":49,"x_max":415,"o":"m 49 29 l 54 104 q 186 82 146 82 q 313 226 310 82 q 313 229 313 228 l 313 1017 l 415 1017 l 415 229 q 364 42 415 92 q 343 25 353 32 q 203 -8 290 -8 q 49 29 106 -8 z "},"K":{"ha":821,"x_min":111,"x_max":772,"o":"m 111 0 l 111 1017 l 214 1017 l 214 561 l 328 561 l 647 1017 l 772 1017 l 422 510 l 772 0 l 647 0 l 328 458 l 215 458 l 215 0 l 111 0 z "},"L":{"ha":774,"x_min":111,"x_max":725,"o":"m 111 175 l 111 1017 l 214 1017 l 214 175 q 268 104 214 110 q 296 103 279 103 l 297 103 l 300 103 l 725 103 l 725 0 l 300 0 q 133 69 172 0 q 111 175 111 111 z "},"M":{"ha":1113,"x_min":76,"x_max":1036,"o":"m 76 0 l 143 1017 l 285 1017 l 556 171 l 818 1017 l 958 1017 l 1036 0 l 933 0 l 871 831 l 610 0 l 504 0 l 235 831 l 179 0 l 76 0 z "},"N":{"ha":944,"x_min":111,"x_max":861,"o":"m 111 0 l 111 1017 l 217 1017 l 758 192 l 758 1017 l 861 1017 l 861 0 l 758 0 l 215 825 l 215 0 l 111 0 z "},"O":{"ha":939,"x_min":90,"x_max":876,"o":"m 90 501 q 219 958 90 854 q 465 1024 296 1021 q 485 1024 475 1024 q 733 972 657 1024 q 874 614 856 890 q 876 501 876 561 q 763 68 876 172 q 511 -6 686 -1 q 485 -6 497 -6 q 233 43 308 -6 q 96 365 115 117 q 90 501 90 426 m 193 501 q 256 167 193 247 q 432 99 304 106 q 485 97 456 97 q 693 150 635 97 q 772 432 765 217 q 774 501 774 465 q 699 869 774 790 q 540 921 653 917 q 485 921 519 921 q 311 897 358 921 q 203 682 225 856 q 193 501 193 607 z "},"P":{"ha":807,"x_min":83,"x_max":744,"o":"m 83 0 l 83 1017 l 501 1017 q 744 722 743 1013 q 581 421 744 456 q 501 414 547 414 q 213 438 411 414 q 186 442 189 440 l 186 0 l 83 0 m 186 517 l 501 517 q 615 575 585 517 q 640 722 640 626 q 518 913 638 904 q 501 913 510 913 l 186 913 l 186 517 z "},"Q":{"ha":939,"x_min":90,"x_max":876,"o":"m 90 501 q 210 954 90 849 q 450 1024 285 1019 q 482 1024 465 1024 q 732 972 654 1024 q 874 608 857 890 q 876 501 876 558 q 761 68 876 172 q 508 -6 683 -1 q 482 -6 494 -6 q 231 43 307 -6 q 96 363 115 117 q 90 501 90 426 m 193 501 q 253 168 193 247 q 425 99 300 106 q 482 97 450 97 q 693 151 633 97 q 772 440 767 219 q 774 501 774 469 q 696 869 774 790 q 535 921 649 917 q 482 921 515 921 q 310 897 356 921 q 203 685 224 856 q 193 501 193 608 m 440 -46 l 513 -46 q 646 -94 581 -94 q 746 -74 690 -93 l 746 -185 q 663 -199 708 -199 q 482 -131 547 -199 q 440 -46 449 -93 z "},"R":{"ha":824,"x_min":83,"x_max":789,"o":"m 83 0 l 83 1017 l 517 1017 q 751 711 750 1014 q 575 419 751 444 l 789 0 l 678 0 l 464 415 l 186 435 l 186 0 l 83 0 m 186 526 l 517 526 q 607 551 583 526 q 647 711 647 593 q 549 910 647 893 q 517 913 533 913 l 186 913 l 186 526 z "},"S":{"ha":811,"x_min":90,"x_max":749,"o":"m 90 686 l 90 778 q 254 1014 90 975 q 365 1025 301 1025 q 713 992 460 1025 l 713 908 l 365 922 q 336 924 349 924 q 210 867 239 924 q 193 778 193 833 l 193 686 q 260 558 193 578 q 335 550 286 550 l 532 550 q 749 329 742 550 q 749 311 749 319 l 749 217 q 557 -6 749 24 q 468 -11 518 -11 q 149 19 363 -11 q 121 24 132 22 l 121 107 q 468 92 274 92 q 642 181 619 92 q 646 217 646 199 l 646 311 q 557 446 646 432 q 532 447 544 447 l 338 447 q 100 592 135 447 q 90 686 90 631 z "},"T":{"ha":803,"x_min":63,"x_max":768,"o":"m 63 914 l 63 1017 l 768 1017 l 768 914 l 463 914 l 463 0 l 360 0 l 360 914 l 63 914 z "},"U":{"ha":940,"x_min":111,"x_max":857,"o":"m 111 444 l 111 1017 l 214 1017 l 214 444 q 299 129 214 192 q 454 96 343 96 q 467 96 461 96 q 488 96 475 96 q 646 122 600 96 q 753 444 753 185 l 753 1017 l 857 1017 l 857 444 q 688 21 857 97 q 488 -7 622 -7 q 461 -7 479 -7 q 260 25 321 -7 q 113 394 122 97 q 111 444 111 419 z "},"V":{"ha":931,"x_min":63,"x_max":896,"o":"m 63 1017 l 175 1017 l 472 164 l 783 1017 l 896 1017 l 522 0 l 419 0 l 63 1017 z "},"W":{"ha":1336,"x_min":63,"x_max":1301,"o":"m 63 1017 l 175 1017 l 471 179 l 722 1017 l 839 1017 l 744 692 l 929 171 l 1189 1017 l 1301 1017 l 983 0 l 881 0 l 690 519 l 522 0 l 419 0 l 63 1017 z "},"X":{"ha":828,"x_min":63,"x_max":793,"o":"m 63 1017 l 175 1017 l 425 590 l 681 1017 l 793 1017 l 493 515 l 786 0 l 674 0 l 425 428 l 179 0 l 67 0 l 357 515 l 63 1017 z "},"Y":{"ha":875,"x_min":63,"x_max":840,"o":"m 63 1017 l 175 1017 l 438 483 l 728 1017 l 840 1017 l 489 361 l 489 0 l 386 0 l 386 361 l 63 1017 z "},"Z":{"ha":782,"x_min":49,"x_max":733,"o":"m 49 0 l 49 103 l 599 914 l 49 914 l 49 1017 l 733 1017 l 733 914 l 183 103 l 733 103 l 733 0 l 49 0 z "},"a":{"ha":721,"x_min":56,"x_max":651,"o":"m 56 175 l 56 260 q 150 425 56 381 q 240 444 190 444 q 468 444 242 444 q 501 444 486 444 q 526 444 515 444 q 542 444 536 444 q 549 444 549 444 q 549 513 549 446 q 549 522 549 518 q 549 530 549 526 q 549 535 549 533 q 549 538 549 538 q 435 651 546 650 q 79 635 308 651 l 79 710 q 439 751 221 749 q 443 751 440 751 q 631 646 581 751 q 651 538 651 599 l 651 0 l 575 0 l 549 89 q 539 85 549 89 q 240 -8 350 -8 q 83 72 133 -8 q 56 175 56 117 m 158 182 q 240 94 161 96 q 549 165 351 94 l 549 364 l 240 342 q 158 251 163 326 l 158 182 z "},"b":{"ha":769,"x_min":83,"x_max":700,"o":"m 83 0 l 83 1090 l 183 1090 l 183 693 q 439 749 303 742 q 457 749 449 749 q 693 497 660 749 q 700 365 700 439 q 515 -1 700 42 q 457 -8 488 -8 q 225 58 360 -8 q 185 82 199 72 l 157 0 l 83 0 m 185 158 q 457 94 342 94 q 597 365 594 103 q 519 632 597 589 q 457 646 493 646 q 185 610 322 646 l 185 158 z "},"c":{"ha":694,"x_min":69,"x_max":639,"o":"m 69 369 q 183 717 69 651 q 313 744 232 744 q 629 708 435 744 l 629 633 q 313 642 624 633 q 215 607 243 642 q 172 364 172 550 q 231 119 172 167 q 313 96 260 96 q 451 99 369 96 q 586 107 532 103 l 639 111 l 639 33 q 313 -7 504 -4 q 128 76 182 -7 q 69 369 69 167 z "},"d":{"ha":769,"x_min":69,"x_max":686,"o":"m 69 365 q 185 714 69 638 q 313 749 238 749 q 553 706 424 749 q 585 693 569 699 l 585 1090 l 686 1090 l 686 0 l 613 0 l 585 82 q 425 11 533 44 q 313 -8 358 -8 q 74 282 100 -8 q 69 365 69 322 m 172 365 q 313 94 175 97 q 585 158 429 94 l 585 610 q 313 646 446 646 q 196 563 226 646 q 172 365 172 494 z "},"f":{"ha":556,"x_min":28,"x_max":528,"o":"m 28 635 l 28 714 l 163 738 l 163 875 q 228 1063 163 1015 q 333 1092 269 1092 q 528 1058 419 1092 l 528 990 l 357 992 q 353 992 356 992 q 269 935 281 992 q 265 875 265 914 l 265 738 l 471 738 l 471 635 l 265 635 l 265 0 l 163 0 l 163 635 l 28 635 z "},"g":{"ha":769,"x_min":63,"x_max":742,"o":"m 67 160 q 113 260 67 226 q 149 275 129 271 q 68 478 72 335 q 228 731 68 688 q 308 740 265 740 l 742 740 l 742 663 l 629 638 q 657 583 656 588 q 672 478 672 540 q 600 269 672 344 q 443 207 540 207 l 226 207 q 169 165 171 204 q 226 118 172 119 l 522 118 q 688 13 647 118 q 701 -74 701 -26 l 701 -161 q 539 -372 701 -349 q 493 -375 517 -375 l 285 -375 q 81 -260 129 -375 q 63 -161 63 -215 l 63 -43 l 118 47 q 67 160 67 85 m 165 -161 q 285 -272 167 -272 l 493 -272 q 599 -161 593 -260 l 599 -81 q 564 6 599 -12 q 504 15 542 15 l 228 15 q 193 18 208 15 q 172 24 178 21 l 165 26 l 165 -161 m 171 478 q 258 315 171 342 q 299 310 278 310 l 435 310 q 563 414 536 310 q 569 468 569 440 q 569 478 569 474 q 513 619 565 589 q 433 638 482 638 l 308 638 q 171 478 172 636 z "},"h":{"ha":756,"x_min":83,"x_max":686,"o":"m 83 0 l 83 1089 l 186 1089 l 186 651 q 346 732 300 717 q 458 750 401 750 q 653 643 590 750 q 686 514 686 585 l 686 0 l 583 0 l 583 514 q 493 643 583 624 q 458 647 476 647 q 258 603 358 647 q 186 568 238 593 l 186 0 l 83 0 z "},"i":{"ha":274,"x_min":69,"x_max":204,"o":"m 69 857 l 69 932 q 103 967 72 965 l 172 967 q 204 932 203 964 l 204 857 q 172 825 201 826 l 103 825 q 69 857 72 829 m 83 0 l 83 738 l 186 738 l 186 0 l 83 0 z "},"j":{"ha":301,"x_min":83,"x_max":218,"o":"m 83 857 l 83 932 q 117 967 86 965 l 186 967 q 218 932 217 964 l 218 857 q 186 825 215 826 l 117 825 q 83 857 86 829 m 99 -375 l 99 738 l 201 738 l 201 -6 q 201 -49 201 -29 q 165 -375 201 -258 l 99 -375 z "},"k":{"ha":694,"x_min":83,"x_max":667,"o":"m 83 0 l 83 1086 l 186 1086 l 186 475 l 242 475 l 524 738 l 667 738 l 339 424 l 667 0 l 539 0 l 242 372 l 186 372 l 186 0 l 83 0 z "},"l":{"ha":417,"x_min":83,"x_max":389,"o":"m 83 263 l 83 1088 l 186 1088 l 186 263 q 242 111 186 138 q 265 103 253 106 q 389 74 265 103 l 389 0 l 267 0 q 83 263 85 3 z "},"m":{"ha":1247,"x_min":83,"x_max":1178,"o":"m 83 0 l 83 738 l 156 738 l 186 649 q 328 724 294 711 q 449 746 388 746 q 629 674 567 746 q 653 638 644 656 q 950 746 785 746 q 1133 654 1068 746 q 1178 508 1178 592 l 1178 0 l 1075 0 l 1075 508 q 1007 631 1075 597 q 950 643 981 643 q 717 589 815 643 q 678 565 697 578 l 678 511 l 678 0 l 575 0 l 575 508 q 506 631 575 597 q 449 643 479 643 q 261 601 354 643 q 186 565 244 593 l 186 0 l 83 0 z "},"n":{"ha":756,"x_min":83,"x_max":686,"o":"m 83 0 l 83 738 l 156 738 l 186 651 q 346 732 300 717 q 458 750 401 750 q 653 643 590 750 q 686 514 686 585 l 686 0 l 583 0 l 583 514 q 496 643 583 621 q 458 647 478 647 q 258 603 358 647 q 186 568 238 593 l 186 0 l 83 0 z "},"o":{"ha":789,"x_min":69,"x_max":719,"o":"m 69 358 q 151 675 69 594 q 394 744 224 744 q 653 658 583 744 q 719 358 719 574 q 640 63 719 140 q 394 -7 567 -7 q 125 94 194 -7 q 69 358 69 178 m 172 358 q 244 124 172 171 q 394 96 288 96 q 554 129 513 96 q 617 358 617 181 q 563 603 617 551 q 414 642 524 640 q 394 642 404 642 q 239 611 279 642 q 172 386 176 565 q 172 358 172 372 z "},"p":{"ha":769,"x_min":83,"x_max":700,"o":"m 83 -375 l 83 738 l 157 738 l 183 656 q 344 726 235 693 q 457 746 411 746 q 696 456 669 746 q 700 372 700 415 q 585 24 700 100 q 457 -11 532 -11 q 217 32 346 -11 q 183 44 199 39 l 183 -375 l 83 -375 m 183 128 q 457 92 322 92 q 574 175 543 92 q 597 372 597 243 q 457 643 594 640 q 183 579 339 643 l 183 128 z "},"q":{"ha":771,"x_min":69,"x_max":688,"o":"m 69 372 q 254 736 69 686 q 325 746 288 746 q 651 718 421 746 q 688 714 675 715 l 688 -375 l 585 -375 l 585 40 q 325 -14 451 -11 q 90 168 139 -14 q 69 372 69 247 m 172 372 q 172 360 172 368 q 172 349 172 351 q 210 143 172 197 q 325 89 249 89 q 546 114 440 89 q 585 124 564 118 l 585 643 l 325 643 q 172 372 174 633 z "},"r":{"ha":592,"x_min":83,"x_max":564,"o":"m 83 0 l 83 738 l 156 738 l 186 644 q 338 724 299 710 q 461 746 399 746 q 564 735 540 746 l 564 633 q 461 642 529 642 q 257 594 361 642 q 186 561 238 586 l 186 0 l 83 0 z "},"s":{"ha":703,"x_min":56,"x_max":647,"o":"m 56 497 l 56 561 q 190 740 56 718 q 247 744 217 744 q 610 722 378 744 l 610 643 l 247 643 q 161 601 171 643 q 158 561 158 588 l 158 497 q 204 421 158 431 q 247 418 219 418 l 467 418 q 636 310 600 418 q 647 239 647 276 l 647 171 q 497 -6 647 7 q 467 -7 482 -7 q 93 19 354 -7 q 86 19 89 19 l 86 96 l 467 96 q 472 96 469 96 q 543 153 533 96 q 544 171 544 163 l 544 239 q 493 313 544 304 q 467 315 481 315 l 247 315 q 79 382 117 315 q 56 497 56 424 z "},"t":{"ha":525,"x_min":28,"x_max":483,"o":"m 28 636 l 28 714 l 165 739 l 190 944 l 268 944 l 268 739 l 483 739 l 483 636 l 268 636 l 268 264 q 324 113 268 139 q 347 104 335 107 q 471 75 347 104 l 471 1 l 349 1 q 165 264 167 4 l 165 636 l 28 636 z "},"u":{"ha":756,"x_min":69,"x_max":672,"o":"m 69 224 l 69 738 l 172 738 l 172 224 q 260 94 172 117 q 297 90 278 90 q 497 135 397 90 q 569 169 518 144 l 569 738 l 672 738 l 672 0 l 600 0 l 569 86 q 410 6 456 21 q 297 -12 354 -12 q 103 94 165 -12 q 69 224 69 153 z "},"v":{"ha":744,"x_min":28,"x_max":717,"o":"m 28 738 l 140 738 l 371 151 l 604 738 l 717 738 l 421 0 l 318 0 l 28 738 z "},"w":{"ha":1113,"x_min":28,"x_max":1085,"o":"m 28 738 l 140 738 l 358 151 l 550 738 l 661 738 l 586 501 l 747 151 l 972 738 l 1085 738 l 803 0 l 700 0 l 536 361 l 415 0 l 304 0 l 28 738 z "},"x":{"ha":728,"x_min":33,"x_max":694,"o":"m 33 0 l 300 369 l 33 738 l 161 738 l 361 454 l 567 738 l 694 738 l 425 365 l 683 0 l 567 0 l 364 281 l 161 0 l 33 0 z "},"y":{"ha":769,"x_min":29,"x_max":739,"o":"m 29 738 l 142 738 l 321 161 q 389 103 340 104 q 413 107 406 103 l 624 738 l 739 738 l 414 -233 l 310 -375 l 246 -375 l 376 0 q 211 149 258 0 q 210 153 210 151 l 29 738 z "},"z":{"ha":633,"x_min":42,"x_max":593,"o":"m 42 635 l 42 738 l 592 738 l 592 635 l 197 104 l 592 104 q 592 76 592 101 q 592 58 592 68 q 592 38 592 47 q 592 19 592 28 q 592 6 592 11 q 592 1 592 1 l 63 1 l 63 104 l 464 635 l 42 635 z "},"া":{"ha":278,"x_min":-14,"x_max":293,"o":"m -14 788 l -14 876 l 22 883 l 122 872 l 117 967 l 174 967 l 206 876 l 293 876 l 293 788 l 221 788 l 221 0 l 118 0 l 118 788 l -14 788 z "},"ি":{"ha":278,"x_min":-17,"x_max":982,"o":"m 188 981 q 208 899 188 922 q 225 883 215 890 l 293 883 l 293 796 l 229 796 l 229 0 l 128 0 l 128 796 l -17 796 l -17 883 l 19 883 l 128 872 q 86 978 86 901 l 86 1061 q 221 1219 86 1203 q 261 1222 240 1221 q 575 1168 346 1222 l 576 1168 l 578 1168 l 579 1168 l 581 1167 l 582 1167 l 583 1167 l 585 1167 l 586 1167 l 588 1165 l 589 1165 q 982 1061 775 1122 l 961 993 l 392 1108 q 283 1122 318 1122 q 190 1076 203 1122 q 188 1050 188 1064 l 188 981 z "},"ী":{"ha":331,"x_min":-742,"x_max":351,"o":"m 204 872 l 275 883 l 350 883 l 350 796 l 204 796 l 204 0 l 103 0 l 103 796 l -25 796 l -25 883 l 100 883 q 38 1114 100 1035 q -75 1168 -7 1167 q -564 1153 -299 1168 q -572 1153 -569 1153 q -632 1142 -625 1150 q -640 1088 -640 1131 q -626 1049 -640 1054 q -489 1044 -614 1043 q -419 1044 -451 1044 q -181 1015 -235 1044 q -122 882 -122 981 l -224 882 q -278 936 -224 925 q -456 944 -317 944 q -692 963 -649 944 q -739 1038 -733 979 q -742 1088 -742 1057 q -706 1218 -742 1192 q -585 1244 -676 1239 q -101 1271 -571 1244 q 203 925 186 1271 q 204 872 204 900 z "},"ে":{"ha":318,"x_min":-76,"x_max":404,"o":"m 244 796 q 200 679 244 796 q 129 301 129 467 q 185 151 129 201 q 215 129 199 140 l 404 25 l 379 -36 q 232 14 379 -36 q 163 46 185 33 q 32 221 50 113 q 26 286 26 250 q 133 781 26 481 q 139 796 139 796 l -76 796 l -76 883 l 336 883 l 336 796 l 244 796 z "},"ৈ":{"ha":375,"x_min":-200,"x_max":461,"o":"m 296 883 q 119 1074 293 1072 l -200 1054 l -194 981 l 111 981 q 194 938 179 981 q 201 883 201 917 l -19 883 l -19 796 l 196 796 q 165 707 183 763 q 115 515 146 651 q 83 286 83 379 q 158 92 83 160 q 219 46 185 67 q 297 11 243 32 q 393 -24 351 -10 l 436 -36 l 461 25 l 272 129 q 188 272 193 172 q 186 301 186 286 q 293 776 186 515 q 301 796 301 796 l 393 796 l 393 883 l 296 883 z "},"ো":{"ha":1139,"x_min":-21,"x_max":1163,"o":"m 856 788 l 856 876 l 892 883 l 992 872 l 986 967 l 1043 967 l 1075 876 l 1163 876 l 1163 788 l 1090 788 l 1090 0 l 988 0 l 988 788 l 856 788 m 300 796 q 256 679 300 796 q 185 301 185 467 q 240 151 185 201 q 271 129 254 140 l 460 25 l 435 -36 q 288 14 435 -36 q 218 46 240 33 q 88 221 106 113 q 82 286 82 250 q 189 781 82 481 q 194 796 194 796 l -21 796 l -21 883 l 392 883 l 392 796 l 300 796 z "},"ৌ":{"ha":1139,"x_min":-76,"x_max":1156,"o":"m 1015 883 l 1156 883 l 1156 796 l 1018 796 l 1018 0 l 917 0 l 917 796 l 800 796 l 800 883 l 836 883 l 917 875 q 828 1014 915 1013 l 353 1014 l 347 1092 q 836 1111 350 1092 q 1006 967 972 1111 q 1015 883 1015 928 m 244 796 q 200 679 244 796 q 129 301 129 467 q 185 151 129 201 q 215 129 199 140 l 404 25 l 379 -36 q 232 14 379 -36 q 163 46 185 33 q 32 221 50 113 q 26 286 26 250 q 133 781 26 481 q 139 796 139 796 l -76 796 l -76 883 l 336 883 l 336 796 l 244 796 z "},"ৗ":{"ha":324,"x_min":-467,"x_max":342,"o":"m 201 883 l 342 883 l 342 796 l 204 796 l 204 0 l 103 0 l 103 796 l -14 796 l -14 883 l 22 883 l 103 875 q 14 1014 101 1013 l -461 1014 l -467 1092 q 22 1111 -464 1092 q 192 967 158 1111 q 201 883 201 928 z "},"়":{"ha":0,"x_min":-285,"x_max":-151,"o":"m -283 -222 l -283 -143 q -256 -114 -281 -115 l -181 -114 q -151 -143 -153 -117 l -151 -222 q -181 -250 -154 -249 l -256 -250 q -283 -222 -282 -247 z "},"ু":{"ha":0,"x_min":-504,"x_max":92,"o":"m -183 0 l -183 11 l -83 11 l -83 0 l -122 -142 q 90 -319 -83 -162 l 58 -362 l -150 -232 q -183 -294 -150 -232 q -275 -374 -233 -372 q -422 -333 -343 -374 q -504 -235 -503 -289 q -467 -118 -504 -186 q -367 -39 -421 -40 q -212 -97 -310 -39 l -183 0 m -237 -186 q -294 -156 -237 -186 q -347 -140 -328 -140 q -396 -190 -379 -140 q -401 -215 -401 -206 q -329 -271 -401 -250 q -297 -276 -308 -276 q -237 -186 -267 -275 z "},"ূ":{"ha":0,"x_min":-524,"x_max":136,"o":"m -211 0 l -211 11 l -312 11 l -312 0 l -344 -65 q -390 -53 -344 -65 q -411 -51 -401 -51 q -506 -137 -471 -51 q -524 -235 -524 -186 q -401 -361 -524 -314 q -260 -390 -326 -390 q -124 -275 -194 -390 q -115 -261 -115 -261 l 101 -361 l 136 -308 q -79 -174 136 -308 q -96 -164 -89 -168 l -165 -164 q -201 -225 -165 -164 q -279 -289 -246 -287 q -397 -254 -344 -289 q -425 -218 -424 -235 q -399 -157 -425 -176 q -376 -150 -387 -150 q -346 -156 -367 -150 q -310 -165 -325 -161 l -293 -171 l -211 0 z "},"ৃ":{"ha":0,"x_min":-479,"x_max":86,"o":"m 53 -454 l -467 -239 l -479 -137 l -149 33 l -100 -51 l -336 -176 q -50 -317 -336 -176 q 86 -390 36 -361 l 53 -454 z "}," ":{"ha":451,"x_min":0,"x_max":0,"o":""},"১":{"ha":782,"x_min":61,"x_max":708,"o":"m 369 753 q 490 638 382 729 q 685 444 643 511 q 708 375 708 406 q 631 132 708 250 q 422 -3 540 -1 q 224 69 322 -1 q 149 127 190 94 q 85 181 108 160 l 61 201 l 119 279 q 276 175 121 278 q 356 129 340 135 q 399 121 378 121 q 547 231 489 121 q 583 361 583 299 q 469 510 583 411 q 425 546 454 522 q 279 689 307 644 q 268 713 272 701 q 254 906 247 774 l 338 915 q 347 829 338 915 q 369 753 356 781 z "},"২":{"ha":828,"x_min":93,"x_max":718,"o":"m 649 415 q 379 286 561 331 q 369 283 369 283 l 718 40 l 676 -37 q 533 38 676 -37 q 93 333 288 175 l 151 426 l 240 368 q 350 393 240 368 q 554 486 490 433 q 585 546 583 513 q 511 644 583 597 l 174 865 l 213 938 q 406 839 213 938 q 574 738 517 778 q 679 640 651 682 q 708 539 708 593 q 649 415 707 474 z "},"৩":{"ha":1146,"x_min":83,"x_max":1049,"o":"m 747 821 q 1008 693 929 821 q 1049 550 1047 629 q 963 224 1049 371 q 622 24 843 25 q 293 221 450 25 q 185 374 238 292 q 108 504 132 457 l 83 551 l 149 596 l 358 315 q 619 142 489 143 q 868 304 781 142 q 928 546 928 415 q 811 700 928 663 q 718 713 768 713 l 371 685 l 356 772 q 504 800 356 772 q 747 821 640 821 z "},"৪":{"ha":944,"x_min":100,"x_max":811,"o":"m 582 544 q 654 606 653 547 l 654 710 q 600 772 653 767 q 583 774 592 774 l 333 774 q 263 724 269 774 q 261 710 261 717 l 261 604 q 333 544 263 546 l 582 544 m 604 883 q 754 815 719 883 q 772 719 772 778 l 772 633 q 718 503 771 525 q 811 397 806 476 q 811 388 811 392 l 811 172 l 811 167 q 753 21 811 54 q 626 -1 711 -1 l 293 -1 q 121 71 158 -1 q 100 169 100 110 l 100 381 q 199 503 100 471 q 203 504 201 504 q 143 633 143 526 l 143 722 q 272 879 143 861 q 328 883 297 883 l 604 883 m 221 174 q 293 108 221 114 q 315 108 303 108 l 599 108 q 693 175 688 118 l 693 360 q 635 428 693 418 q 599 431 618 431 l 315 431 q 226 393 242 431 q 221 357 221 378 l 221 174 z "},"৬":{"ha":1007,"x_min":61,"x_max":926,"o":"m 419 853 l 521 853 l 521 576 q 696 589 521 576 q 732 590 717 590 q 919 488 892 590 q 926 426 926 460 q 843 210 926 335 q 603 14 739 57 q 519 0 561 0 q 286 126 399 0 q 283 131 285 129 q 172 299 228 194 q 89 475 117 403 l 61 547 l 126 578 q 249 365 126 578 q 354 204 313 261 q 511 110 422 113 q 515 110 514 110 q 744 253 644 110 q 818 429 813 356 q 767 483 818 475 q 718 486 749 486 l 419 468 l 419 853 z "},"৯":{"ha":956,"x_min":38,"x_max":864,"o":"m 465 0 q 451 131 465 0 q 431 231 442 188 q 331 357 396 356 q 236 325 299 356 q 196 215 168 294 q 217 164 201 196 l 246 99 l 178 60 q 110 167 178 60 q 103 181 104 176 q 181 408 38 335 q 200 418 190 414 q 342 458 290 458 q 497 347 442 457 q 524 270 511 319 q 544 185 538 221 l 550 149 q 649 206 578 149 q 749 347 747 285 q 413 768 749 460 q 313 857 313 857 l 364 921 q 797 515 704 639 q 864 347 864 425 q 733 124 864 236 q 504 4 619 25 q 465 0 483 0 z "},"৮":{"ha":910,"x_min":64,"x_max":883,"o":"m 171 467 l 171 239 q 267 108 174 110 q 489 239 365 108 q 556 318 525 276 q 600 426 600 379 q 536 492 600 483 q 521 493 528 493 l 171 467 m 64 883 l 171 883 l 171 557 q 256 572 174 557 q 571 601 400 596 q 585 601 579 601 q 674 616 603 601 q 807 644 744 631 l 869 658 l 883 594 q 810 557 883 594 q 690 510 753 531 q 703 488 690 510 q 710 438 710 465 q 675 319 710 381 q 433 57 576 146 q 256 0 340 0 q 89 97 136 0 q 64 221 64 150 l 64 883 z "},"৭":{"ha":761,"x_min":46,"x_max":692,"o":"m 542 135 l 542 351 q 326 338 542 351 q 219 336 269 336 q 61 432 101 336 q 46 513 46 468 q 75 621 47 576 q 344 853 183 789 q 457 878 407 878 q 624 776 578 878 q 646 657 646 725 l 646 163 q 692 13 646 100 l 633 -29 q 599 4 633 -29 q 542 135 543 69 m 542 439 l 542 642 q 489 768 542 749 q 451 774 472 774 q 286 697 388 774 q 206 622 239 661 q 153 514 154 560 q 206 443 153 461 q 233 439 219 439 l 542 439 z "},"০":{"ha":833,"x_min":94,"x_max":744,"o":"m 94 410 q 176 726 94 646 q 419 796 249 796 q 678 710 608 796 q 744 410 744 625 q 665 114 744 192 q 419 44 592 44 q 150 146 219 44 q 94 410 94 229 m 213 410 q 271 181 213 226 q 419 150 311 150 q 568 179 531 150 q 626 389 624 222 q 626 410 626 400 q 583 649 626 599 q 454 690 551 688 q 419 690 439 690 q 274 664 310 690 q 214 472 219 625 q 213 410 213 443 z "},"৫":{"ha":813,"x_min":79,"x_max":746,"o":"m 213 919 l 215 814 l 592 704 l 653 817 l 726 794 q 663 610 726 794 q 619 422 619 474 q 694 311 619 403 q 744 233 744 249 q 624 110 744 185 q 319 -6 471 15 q 140 33 190 -24 q 79 325 79 107 q 96 602 79 443 q 122 824 113 761 q 139 925 132 888 l 213 919 m 557 618 l 210 718 q 192 468 210 718 q 189 343 189 397 q 213 142 189 171 q 415 136 263 83 q 579 228 528 175 q 594 254 593 244 q 547 324 594 263 q 511 390 511 372 l 557 618 z "},"ঁ":{"ha":0,"x_min":-375,"x_max":103,"o":"m -375 1060 l -322 1119 q -235 1049 -322 1119 q -143 999 -168 1000 q -122 1004 -132 999 q -52 1058 -97 1019 q 25 1128 -7 1097 l 58 1160 l 103 1117 q 31 1029 103 1117 q -57 947 -22 972 q -149 913 -107 913 q -368 1053 -214 913 q -375 1060 -375 1060 m -154 1071 l -197 1104 q -203 1135 -214 1118 l -169 1179 q -137 1182 -156 1194 l -94 1150 q -90 1119 -79 1136 l -124 1075 q -154 1071 -137 1061 z "},"ং":{"ha":618,"x_min":122,"x_max":599,"o":"m 122 388 q 258 400 249 400 q 468 258 390 399 q 490 218 474 247 q 599 -24 578 64 l 539 -46 l 382 207 q 232 304 321 304 l 129 296 l 122 388 m 128 681 q 203 857 128 822 q 311 874 240 874 q 463 826 425 874 q 496 681 496 781 q 424 517 496 550 q 311 499 383 499 q 151 563 189 499 q 128 681 128 604 m 219 681 q 249 589 219 603 q 311 582 265 582 q 389 599 375 582 q 404 681 404 618 q 376 782 404 767 q 311 790 360 790 q 238 774 253 790 q 219 681 219 750 z "},"ঃ":{"ha":618,"x_min":128,"x_max":497,"o":"m 219 194 q 249 103 219 117 q 311 96 265 96 q 389 113 375 96 q 404 194 404 132 q 376 296 404 281 q 311 304 360 304 q 238 288 253 304 q 219 194 219 264 m 219 681 q 249 589 219 603 q 311 582 265 582 q 389 599 375 582 q 404 681 404 618 q 376 782 404 767 q 311 790 360 790 q 238 774 253 790 q 219 681 219 750 m 128 194 q 200 369 128 335 q 311 386 239 386 q 463 338 425 386 q 496 194 496 293 q 422 31 496 64 q 311 13 383 13 q 151 76 189 13 q 128 194 128 118 m 128 681 q 200 856 128 821 q 311 874 239 874 q 463 825 425 874 q 496 681 496 779 q 422 517 496 550 q 311 499 383 499 q 151 563 189 499 q 128 681 128 606 z "},"্":{"ha":0,"x_min":-276,"x_max":108,"o":"m -226 -18 q -165 -58 -226 -18 l -164 -60 l -162 -61 q 108 -269 7 -181 l 69 -321 l -276 -106 l -226 -18 z "},"ৎ":{"ha":694,"x_min":96,"x_max":586,"o":"m 574 757 q 303 776 571 757 q 218 690 236 776 q 210 560 210 644 q 303 469 210 514 q 369 440 324 460 q 547 340 506 383 q 586 254 586 300 q 574 138 586 207 q 549 25 561 69 l 536 -21 l 460 -8 q 486 147 460 -8 q 492 217 492 192 q 393 304 492 258 q 331 332 374 314 q 140 439 186 394 q 97 531 97 482 q 142 818 97 746 q 269 885 183 883 q 586 832 410 885 l 574 757 z "},":":{"ha":378,"x_min":118,"x_max":260,"o":"m 118 32 l 118 111 q 151 146 121 144 l 225 146 q 260 111 258 143 l 260 32 q 225 0 257 1 l 151 0 q 118 32 121 4 m 118 625 l 118 704 q 151 739 121 738 l 225 739 q 260 704 258 736 l 260 625 q 225 593 257 594 l 151 593 q 118 625 121 597 z "},";":{"ha":381,"x_min":118,"x_max":263,"o":"m 118 35 l 118 110 q 144 146 118 139 q 153 147 149 147 l 224 147 q 257 110 253 140 l 257 -15 q 164 -124 257 -115 q 125 -122 125 -122 l 125 -78 q 168 -35 168 -78 l 168 0 l 153 0 q 119 25 128 0 q 118 35 118 31 m 121 626 l 121 706 q 154 740 124 739 l 228 740 q 263 706 261 738 l 263 626 q 228 594 260 596 l 154 594 q 121 626 124 599 z "},"<":{"ha":660,"x_min":69,"x_max":590,"o":"m 69 436 l 69 547 l 590 772 l 590 661 l 207 492 l 590 308 l 590 194 l 69 436 z "},"=":{"ha":649,"x_min":28,"x_max":621,"o":"m 28 294 l 28 397 l 621 397 l 621 294 l 28 294 m 28 585 l 28 688 l 621 688 l 621 585 l 28 585 z "},">":{"ha":660,"x_min":69,"x_max":590,"o":"m 69 194 l 69 308 l 453 492 l 69 661 l 69 772 l 590 547 l 590 436 l 69 194 z "},"?":{"ha":751,"x_min":28,"x_max":696,"o":"m 28 922 l 28 999 q 313 1028 242 1026 q 419 1026 364 1029 q 692 829 658 1026 q 696 769 696 800 l 696 629 q 539 415 696 457 q 358 411 461 396 l 358 271 l 254 271 l 254 496 l 451 496 q 579 565 544 500 q 594 629 594 594 l 594 769 q 499 911 594 885 q 404 922 460 922 l 28 922 m 236 32 l 236 111 q 269 146 239 144 l 346 146 q 378 111 376 143 l 378 32 q 346 0 375 1 l 269 0 q 236 32 239 4 z "},"[":{"ha":446,"x_min":118,"x_max":418,"o":"m 118 -53 l 118 931 q 243 1160 118 1121 q 307 1169 272 1169 l 418 1169 l 418 1067 l 307 1067 q 228 988 246 1067 q 221 931 221 961 l 221 -53 q 281 -183 221 -160 q 307 -189 293 -189 l 418 -189 l 418 -292 l 307 -292 q 122 -117 149 -292 q 118 -53 118 -86 z "},"\\":{"ha":556,"x_min":28,"x_max":528,"o":"m 28 1069 l 138 1069 l 528 -100 l 418 -100 l 28 1069 z "},"]":{"ha":446,"x_min":28,"x_max":328,"o":"m 28 -189 l 139 -189 q 218 -110 200 -189 q 225 -53 225 -83 l 225 931 q 165 1061 225 1038 q 139 1067 153 1067 l 28 1067 l 28 1169 l 139 1169 q 324 994 297 1169 q 328 931 328 964 l 328 -53 q 203 -282 328 -243 q 139 -292 174 -292 l 28 -292 l 28 -189 z "},"^":{"ha":544,"x_min":69,"x_max":475,"o":"m 69 738 l 232 918 l 331 918 l 475 738 l 376 738 l 279 836 l 169 738 l 69 738 m 331 918 z "},"_":{"ha":936,"x_min":28,"x_max":908,"o":"m 28 -1 l 28 101 l 908 101 l 908 -1 l 28 -1 z "},"`":{"ha":336,"x_min":28,"x_max":308,"o":"m 28 922 l 160 922 l 308 738 l 213 738 l 28 922 z "},"!":{"ha":374,"x_min":114,"x_max":256,"o":"m 114 32 l 114 111 q 147 146 117 144 l 224 146 q 256 111 254 143 l 256 32 q 224 0 253 1 l 147 0 q 114 32 117 4 m 122 1015 l 246 1015 l 236 272 l 132 272 l 122 1015 z "},"\"":{"ha":528,"x_min":118,"x_max":410,"o":"m 118 924 l 118 1017 l 222 1017 l 222 924 l 208 738 l 133 738 l 118 924 m 306 924 l 306 1017 l 410 1017 l 410 924 l 396 738 l 321 738 l 306 924 z "},"#":{"ha":954,"x_min":28,"x_max":928,"o":"m 28 322 l 39 394 l 260 394 l 296 624 l 75 624 l 88 696 l 307 696 l 358 1017 l 431 1017 l 379 696 l 610 696 l 660 1017 l 732 1017 l 682 696 l 928 696 l 915 624 l 669 624 l 633 393 l 879 393 l 868 321 l 622 321 l 571 0 l 499 0 l 550 321 l 319 322 l 268 0 l 196 0 l 247 322 l 28 322 m 332 394 l 561 393 l 597 624 l 368 624 l 332 394 z "},"%":{"ha":1326,"x_min":58,"x_max":1268,"o":"m 58 658 l 58 843 q 125 996 58 963 q 238 1017 167 1017 l 378 1017 q 540 936 510 1017 q 554 843 554 900 l 554 658 q 488 506 554 539 q 375 485 446 485 l 235 485 q 72 565 103 485 q 58 658 58 601 m 149 658 q 185 581 149 593 q 235 575 203 575 l 375 575 q 458 606 444 575 q 464 658 464 624 l 464 843 q 428 921 464 908 q 378 926 410 926 l 238 926 q 154 896 168 926 q 149 843 149 878 l 149 658 m 315 0 l 924 1017 l 1022 1017 l 414 0 l 315 0 m 772 176 l 772 361 q 839 514 772 481 q 951 535 881 535 l 1092 535 q 1254 454 1224 535 q 1268 361 1268 418 l 1268 176 q 1201 24 1268 57 q 1089 3 1160 3 l 949 3 q 786 83 817 3 q 772 176 772 119 m 863 176 q 899 99 863 111 q 949 93 917 93 l 1089 93 q 1172 124 1158 93 q 1178 176 1178 142 l 1178 361 q 1142 439 1178 426 q 1092 444 1124 444 l 951 444 q 868 414 882 444 q 863 361 863 396 l 863 176 z "},"'":{"ha":257,"x_min":76,"x_max":181,"o":"m 76 924 l 76 1017 l 181 1017 l 181 924 l 167 738 l 92 738 l 76 924 z "},"(":{"ha":465,"x_min":104,"x_max":438,"o":"m 104 453 q 127 675 104 560 q 182 879 150 790 q 247 1042 214 968 q 303 1156 279 1115 l 325 1194 l 438 1194 q 381 1090 438 1194 q 207 453 207 749 q 383 -203 207 122 q 438 -292 415 -260 l 325 -292 q 276 -212 325 -292 q 104 433 110 90 q 104 453 104 444 z "},")":{"ha":465,"x_min":28,"x_max":361,"o":"m 28 -292 q 81 -206 28 -292 q 258 453 256 124 q 78 1106 258 757 q 28 1194 28 1194 l 140 1194 q 196 1089 140 1194 q 361 453 361 750 q 338 208 361 331 q 283 0 315 86 q 218 -155 250 -86 q 164 -258 186 -224 l 140 -292 l 28 -292 z "},"*":{"ha":611,"x_min":69,"x_max":542,"o":"m 69 786 l 69 842 l 263 882 l 269 779 l 69 786 m 164 575 l 197 763 l 297 739 l 215 558 l 164 575 m 244 996 l 299 1018 l 403 854 l 308 811 l 244 996 m 289 661 l 346 747 l 499 621 l 469 576 l 289 661 m 349 793 l 515 899 l 542 850 l 415 715 l 349 793 z "},"+":{"ha":717,"x_min":69,"x_max":647,"o":"m 69 443 l 69 546 l 306 546 l 306 783 l 408 783 l 408 546 l 647 546 l 647 443 l 408 443 l 408 206 l 306 206 l 306 443 l 69 443 z "},",":{"ha":375,"x_min":118,"x_max":257,"o":"m 118 35 l 118 110 q 153 147 121 146 l 224 147 q 257 110 256 144 l 257 -15 q 164 -124 257 -115 q 125 -122 125 -122 l 125 -78 q 168 -35 168 -78 l 168 0 l 153 0 q 118 35 119 3 z "},"-":{"ha":492,"x_min":28,"x_max":464,"o":"m 28 351 l 28 454 l 464 454 l 464 351 l 28 351 z "},".":{"ha":378,"x_min":118,"x_max":260,"o":"m 118 32 l 118 111 q 151 146 121 144 l 225 146 q 260 111 258 143 l 260 32 q 225 0 257 1 l 151 0 q 118 32 121 4 z "},"/":{"ha":556,"x_min":28,"x_max":528,"o":"m 28 -100 l 418 1069 l 528 1069 l 138 -100 l 28 -100 z "},"{":{"ha":444,"x_min":28,"x_max":417,"o":"m 28 417 l 28 510 q 122 528 101 517 q 153 583 151 547 l 153 911 q 253 1124 153 1053 q 417 1169 319 1169 l 417 1067 q 258 947 274 1067 q 256 911 256 929 l 256 583 q 167 471 256 501 q 138 464 151 467 q 243 393 214 453 q 254 349 254 371 l 254 -53 q 339 -179 254 -149 q 417 -189 374 -192 l 417 -292 q 167 -144 219 -292 q 151 -53 151 -101 l 151 343 q 78 414 151 400 q 28 417 53 418 z "},"|":{"ha":340,"x_min":119,"x_max":222,"o":"m 119 -100 l 119 1069 l 222 1069 l 222 -100 l 119 -100 z "},"}":{"ha":444,"x_min":28,"x_max":417,"o":"m 28 -189 q 176 -118 139 -196 q 190 -53 190 -89 l 190 349 q 257 449 190 414 q 307 464 281 460 q 193 553 213 482 q 189 583 189 567 l 189 911 q 57 1065 189 1054 q 28 1067 42 1067 l 28 1169 q 265 1036 200 1169 q 292 911 292 979 l 292 583 q 379 513 292 522 q 403 511 388 513 q 417 510 413 510 l 417 417 q 306 381 338 422 q 293 343 293 364 l 293 -53 q 189 -253 293 -192 q 28 -292 124 -292 l 28 -189 z "},"~":{"ha":608,"x_min":69,"x_max":539,"o":"m 69 794 q 103 824 82 804 q 197 885 160 876 q 232 889 215 889 q 317 860 263 889 q 379 840 353 840 q 490 885 424 840 q 508 896 503 892 l 539 838 q 518 817 532 832 q 407 740 454 751 q 379 738 393 738 q 289 768 347 738 q 228 786 253 786 q 139 757 193 786 q 99 738 114 744 l 69 794 z "},"¯":{"ha":544,"x_min":69,"x_max":475,"o":"m 69 738 l 69 825 l 475 825 l 475 738 l 69 738 z "},"°":{"ha":421,"x_min":69,"x_max":351,"o":"m 69 878 q 135 999 69 956 q 211 1021 171 1021 q 329 956 288 1021 q 351 878 351 919 q 286 757 351 799 q 211 736 251 736 q 92 800 135 736 q 69 878 69 836 m 135 878 q 179 810 135 831 q 211 803 194 803 q 279 846 258 803 q 286 878 286 861 q 243 947 286 926 q 211 954 226 954 q 143 911 164 954 q 135 878 135 894 z "},"±":{"ha":732,"x_min":78,"x_max":656,"o":"m 78 121 l 78 224 l 656 224 l 656 121 l 78 121 m 78 538 l 78 640 l 314 640 l 314 878 l 417 878 l 417 640 l 656 640 l 656 538 l 417 538 l 417 300 l 314 300 l 314 538 l 78 538 z "},"´":{"ha":336,"x_min":28,"x_max":308,"o":"m 28 738 l 176 922 l 308 922 l 124 738 l 28 738 z "},"·":{"ha":378,"x_min":118,"x_max":260,"o":"m 118 492 l 118 571 q 151 606 121 604 l 225 606 q 260 571 258 603 l 260 492 q 225 460 257 461 l 151 460 q 118 492 121 464 z "},"¸":{"ha":350,"x_min":69,"x_max":281,"o":"m 69 -189 l 143 -168 q 188 -51 188 -147 l 281 -51 q 235 -217 281 -182 q 140 -240 203 -240 l 69 -240 l 69 -189 z "},"¼":{"ha":1254,"x_min":76,"x_max":1183,"o":"m 1031 374 q 1079 415 1078 376 l 1079 494 q 1031 538 1071 535 l 847 538 q 797 497 800 538 q 797 494 797 494 l 797 414 q 847 374 799 375 l 1031 374 m 1039 606 q 1147 549 1126 606 q 1156 494 1156 525 l 1156 435 q 1121 347 1156 363 q 1117 346 1118 346 q 1182 267 1181 324 l 1182 119 l 1182 115 q 1132 11 1182 32 q 1054 0 1104 0 l 826 0 q 707 57 729 0 q 697 118 697 82 l 697 263 q 764 347 699 325 q 725 435 725 364 l 725 496 q 819 606 725 594 q 850 607 833 607 q 943 606 876 607 q 1039 606 1011 606 m 769 118 q 835 74 778 75 l 1042 74 q 1107 119 1106 75 l 1107 154 l 1107 249 q 1060 296 1107 292 q 1042 297 1050 297 l 835 297 q 772 265 781 297 q 769 247 769 257 l 769 118 m 306 933 q 404 815 313 919 q 521 644 521 686 q 439 468 521 579 q 435 461 439 467 q 432 457 432 458 q 324 404 392 404 q 189 454 256 406 q 76 544 167 469 l 115 593 q 224 522 151 568 q 324 485 283 485 q 364 500 350 485 q 438 633 436 586 q 346 767 438 665 q 238 907 250 872 q 211 1028 224 950 l 264 1039 q 306 933 294 954 m 306 0 l 789 1017 l 879 1017 l 396 0 l 306 0 z "},"½":{"ha":1250,"x_min":76,"x_max":1174,"o":"m 1124 338 q 1049 294 1103 318 q 953 257 996 271 l 911 242 q 1172 65 942 221 l 1143 10 q 1017 79 1143 10 q 728 279 856 175 l 768 342 l 831 300 q 956 338 831 300 q 1056 385 1031 364 q 1076 426 1076 403 q 1031 497 1075 468 l 783 660 l 811 707 q 969 625 811 707 q 1069 564 1033 589 q 1167 422 1165 493 q 1124 338 1165 376 m 306 933 q 404 815 313 919 q 521 644 521 686 q 439 468 521 579 q 435 461 439 467 q 432 457 432 458 q 324 404 392 404 q 189 454 256 406 q 76 544 167 469 l 115 593 q 224 522 151 568 q 324 485 283 485 q 364 500 350 485 q 438 633 436 586 q 346 767 438 665 q 238 907 250 872 q 211 1028 224 950 l 264 1039 q 306 933 294 954 m 299 0 l 782 1017 l 872 1017 l 389 0 l 299 0 z "},"¾":{"ha":1382,"x_min":51,"x_max":1319,"o":"m 531 1001 q 717 875 686 1001 q 722 821 722 849 q 722 804 722 813 q 707 724 719 760 q 588 518 668 603 q 510 458 549 479 q 429 438 468 439 q 228 557 331 440 q 85 765 179 613 q 53 821 61 803 l 90 854 l 281 619 q 428 518 369 525 q 483 533 456 518 q 621 703 557 571 q 639 749 633 729 q 651 818 651 792 q 511 929 644 926 q 429 924 488 929 q 325 915 371 919 l 278 911 l 268 969 q 438 994 268 969 q 531 1001 496 1001 m 1167 374 q 1217 415 1215 376 l 1217 494 q 1168 538 1208 536 l 983 538 q 935 497 936 538 q 935 494 935 494 l 935 414 q 983 374 936 375 l 1167 374 m 1176 606 q 1285 549 1264 606 q 1293 494 1293 525 l 1293 435 q 1257 347 1293 363 q 1254 346 1254 346 q 1319 267 1317 324 l 1319 119 l 1319 115 q 1269 11 1319 32 q 1192 0 1240 0 l 963 0 q 844 57 867 0 q 835 118 835 82 l 835 263 q 901 347 836 325 q 861 435 863 364 l 861 496 q 956 606 861 594 q 986 607 971 607 q 1079 606 1014 607 q 1176 606 1147 606 m 907 118 q 971 74 915 75 l 1179 74 q 1243 119 1243 75 l 1243 154 l 1243 249 q 1196 296 1243 292 q 1179 297 1188 297 l 971 297 q 908 265 917 297 q 907 247 907 257 l 907 118 m 443 0 l 926 1017 l 1017 1017 l 533 0 l 443 0 z "},"÷":{"ha":717,"x_min":69,"x_max":647,"o":"m 69 439 l 69 542 l 647 542 l 647 439 l 69 439 m 294 240 l 294 315 q 328 350 294 350 l 397 350 q 429 315 429 350 l 429 240 q 397 208 429 208 l 328 208 q 294 240 294 208 m 294 656 l 294 731 q 328 765 294 765 l 397 765 q 429 731 429 765 l 429 656 q 397 624 429 624 l 328 624 q 294 656 294 624 z "},"×":{"ha":636,"x_min":78,"x_max":560,"o":"m 78 326 l 246 493 l 78 661 l 150 735 l 318 567 l 488 735 l 560 663 l 390 493 l 558 326 l 486 253 l 318 421 l 151 254 l 78 326 z "},"­":{"ha":492,"x_min":28,"x_max":464,"o":"m 28 351 l 28 454 l 464 454 l 464 351 l 28 351 z "},"ৄ":{"ha":0,"x_min":-501,"x_max":108,"o":"m -344 -301 l -457 -360 l -444 -461 l 75 -676 l 108 -612 q -314 -399 -56 -517 l -225 -351 l 31 -457 l 64 -393 q -358 -179 -69 -314 l -122 -54 l -171 31 l -501 -140 l -489 -242 l -344 -301 z "},"ৠ":{"ha":1056,"x_min":8,"x_max":1031,"o":"m 803 222 l 663 274 l 663 0 l 561 0 l 22 333 l 22 446 l 411 615 l 371 701 q 306 665 371 701 q 164 626 224 626 q 49 665 89 628 q 8 768 8 704 q 50 853 10 825 q 193 900 97 883 l 206 844 q 122 810 204 843 q 97 769 99 797 q 115 726 99 744 q 167 711 132 711 q 399 810 246 711 q 401 813 401 813 q 413 813 410 817 l 489 650 l 561 682 l 561 883 l 663 882 l 663 375 l 803 315 l 803 883 l 796 975 l 853 975 l 885 883 l 1031 883 l 1031 796 l 904 796 l 904 54 l 803 54 l 803 222 m 561 114 l 561 581 l 121 382 l 561 114 m 882 -446 l 363 -231 l 350 -129 l 681 42 l 729 -43 l 493 -168 q 779 -308 493 -168 q 915 -382 865 -353 l 882 -446 z "},"ৢ":{"ha":903,"x_min":538,"x_max":925,"o":"m 618 -396 l 579 -410 q 557 -367 579 -410 q 554 -356 556 -360 q 593 -256 538 -279 q 625 -246 607 -250 q 728 -243 694 -231 q 772 -321 758 -257 q 782 -362 782 -362 q 836 -353 783 -362 q 868 -314 867 -343 q 858 -268 868 -283 q 761 -197 851 -257 q 647 -87 647 -124 q 726 10 647 -33 q 754 24 740 18 l 779 -14 q 710 -74 714 -60 q 708 -79 708 -78 q 792 -144 708 -94 q 910 -236 893 -208 q 925 -318 925 -262 q 874 -403 925 -375 q 850 -411 861 -408 q 806 -417 835 -414 q 757 -422 778 -421 l 736 -424 l 724 -364 q 697 -297 711 -308 q 639 -300 683 -286 q 606 -353 596 -312 q 618 -396 606 -356 z "},"ৡ":{"ha":875,"x_min":79,"x_max":799,"o":"m 382 -328 l 343 -342 q 321 -299 343 -342 q 318 -287 319 -292 q 357 -187 301 -211 q 389 -178 371 -182 q 492 -175 458 -162 q 536 -253 522 -189 q 546 -294 546 -294 q 600 -285 547 -294 q 632 -246 631 -275 q 622 -200 632 -215 q 525 -129 615 -189 q 411 -19 411 -56 q 490 78 411 35 q 518 92 504 86 l 543 54 q 474 -6 478 8 q 472 -11 472 -10 q 556 -76 472 -26 q 674 -168 657 -140 q 689 -250 689 -194 q 638 -335 689 -307 q 614 -343 625 -340 q 570 -349 599 -346 q 521 -354 542 -353 l 500 -356 l 488 -296 q 461 -229 475 -240 q 403 -232 447 -218 q 369 -285 360 -244 q 382 -328 369 -287 m 208 56 l 142 29 q 114 96 142 29 q 107 121 108 110 q 167 315 75 264 q 239 340 197 331 q 397 349 344 364 q 417 342 407 346 q 501 194 474 318 l 519 97 q 638 119 521 99 q 694 181 681 129 q 699 208 699 194 q 683 306 699 281 q 532 417 667 329 q 308 592 351 533 q 286 646 286 621 q 397 847 286 742 q 460 899 428 875 l 508 846 q 388 672 404 740 q 386 660 386 665 q 508 554 386 633 q 710 418 672 450 q 771 354 754 382 q 799 200 799 304 q 721 49 799 101 q 665 25 693 31 q 454 0 597 10 l 429 113 q 375 253 404 229 q 296 253 356 267 l 294 253 l 293 253 l 292 253 l 290 253 l 289 251 l 288 251 l 286 251 l 285 251 l 283 251 l 282 250 l 281 250 l 279 250 l 278 250 l 276 249 l 275 249 l 274 249 l 272 249 l 271 249 l 269 247 l 268 247 l 267 247 l 265 247 l 264 246 l 263 246 l 261 246 l 260 246 l 258 244 q 192 133 178 228 q 199 96 193 118 q 208 56 208 56 z "},"ৣ":{"ha":0,"x_min":-593,"x_max":157,"o":"m -150 -396 l -189 -410 q -211 -367 -189 -410 q -214 -356 -212 -360 q -175 -256 -231 -279 q -143 -246 -161 -250 q -40 -243 -74 -231 q 4 -321 -10 -257 q 14 -362 14 -362 q 68 -353 15 -362 q 100 -314 99 -343 q 90 -268 100 -283 q -7 -197 83 -257 q -121 -87 -121 -124 q -42 10 -121 -33 q -14 24 -28 18 l 11 -14 q -58 -74 -54 -60 q -60 -79 -60 -78 q 24 -144 -60 -94 q 142 -236 125 -208 q 157 -318 157 -262 q 106 -403 157 -375 q 82 -411 93 -408 q 38 -417 67 -414 q -11 -422 10 -421 l -32 -424 l -44 -364 q -71 -297 -57 -308 q -129 -300 -85 -286 q -162 -353 -172 -312 q -150 -396 -162 -356 m -514 -431 l -553 -444 q -575 -401 -553 -444 q -578 -390 -576 -394 q -539 -290 -594 -314 q -507 -281 -525 -285 q -404 -278 -437 -265 q -360 -356 -374 -292 q -350 -397 -350 -397 q -296 -387 -349 -397 q -264 -349 -265 -378 q -274 -303 -264 -318 q -371 -232 -281 -292 q -485 -122 -485 -158 q -406 -25 -485 -68 q -378 -11 -392 -17 l -353 -49 q -422 -108 -418 -94 q -424 -114 -424 -112 q -340 -179 -424 -129 q -222 -271 -239 -243 q -207 -353 -207 -297 q -258 -437 -207 -410 q -282 -446 -271 -443 q -326 -452 -297 -449 q -375 -457 -354 -456 l -396 -458 l -408 -399 q -435 -332 -421 -343 q -493 -335 -449 -321 q -526 -387 -536 -347 q -514 -431 -526 -390 z "},"₹":{"ha":799,"x_min":76,"x_max":725,"o":"m 354 800 q 411 742 376 799 q 417 733 415 736 q 451 674 451 674 l 85 674 l 85 592 l 453 592 q 322 453 407 456 q 229 453 285 453 q 138 454 174 454 l 101 454 l 76 353 q 432 0 164 240 l 488 61 l 206 358 l 349 358 q 420 383 386 358 q 476 441 454 407 q 513 509 497 475 q 536 567 529 543 l 543 592 l 682 592 l 682 674 l 546 674 q 513 753 546 674 q 485 800 497 782 l 724 800 l 724 883 l 126 883 l 126 800 l 354 800 z "},"…":{"ha":1133,"x_min":118,"x_max":1017,"o":"m 874 32 l 874 111 q 907 146 874 146 l 981 146 q 1015 111 1015 146 l 1015 32 q 981 0 1015 0 l 907 0 q 874 32 874 0 m 496 32 l 496 111 q 529 146 496 146 l 603 146 q 638 111 638 146 l 638 32 q 603 0 638 0 l 529 0 q 496 32 496 0 m 118 32 l 118 111 q 151 146 118 146 l 225 146 q 260 111 260 146 l 260 32 q 225 0 260 0 l 151 0 q 118 32 118 0 z "},"–":{"ha":713,"x_min":28,"x_max":685,"o":"m 28 347 l 28 451 l 685 451 l 685 347 l 28 347 z "},"—":{"ha":1022,"x_min":28,"x_max":994,"o":"m 28 350 l 28 454 l 994 454 l 994 350 l 28 350 z "},"‘":{"ha":375,"x_min":111,"x_max":265,"o":"m 235 1031 q 256 1028 243 1031 l 256 979 l 253 979 q 208 932 208 979 l 208 893 l 225 893 q 264 856 264 893 l 264 774 q 225 732 264 732 l 147 732 q 111 774 111 732 l 111 911 q 235 1031 111 1031 z "},"’":{"ha":375,"x_min":110,"x_max":264,"o":"m 111 907 l 111 989 q 150 1031 111 1031 l 228 1031 q 264 989 264 1031 l 264 851 q 250 783 264 811 q 214 747 235 757 q 158 731 176 731 l 133 731 l 119 733 l 119 782 l 122 782 q 167 831 167 782 l 167 868 l 150 868 q 111 907 111 868 z "},"“":{"ha":581,"x_min":101,"x_max":479,"o":"m 326 774 l 326 911 q 342 978 326 951 q 444 1031 371 1031 l 457 1031 l 472 1028 l 472 979 l 469 979 q 424 932 424 979 l 424 894 l 442 894 q 479 856 479 894 l 479 774 q 442 732 479 732 l 364 732 q 326 774 326 732 m 225 1031 q 246 1028 233 1031 l 246 979 l 243 979 q 199 932 199 979 l 199 894 l 215 894 q 254 856 254 894 l 254 774 q 215 732 254 732 l 138 732 q 101 774 101 732 l 101 911 q 225 1031 101 1031 z "},"”":{"ha":581,"x_min":101,"x_max":479,"o":"m 101 907 l 101 989 q 139 1031 101 1031 l 217 1031 q 254 989 254 1031 l 254 851 q 239 783 254 811 q 203 747 224 757 q 147 731 167 731 l 124 731 l 108 733 l 108 782 l 111 782 q 156 831 156 782 l 156 868 l 139 868 q 101 907 101 868 m 326 907 l 326 989 q 365 1031 326 1031 l 443 1031 q 479 989 479 1031 l 479 851 q 464 783 479 811 q 428 747 450 757 q 372 731 392 731 l 350 731 l 335 733 l 335 782 l 338 782 q 382 831 382 782 l 382 868 l 365 868 q 326 907 326 868 z "},"‚":{"ha":375,"x_min":110,"x_max":264,"o":"m 111 38 l 111 119 q 150 161 111 161 l 228 161 q 264 119 264 161 l 264 -18 q 250 -86 264 -58 q 214 -122 235 -114 q 157 -139 175 -139 l 133 -139 l 119 -136 l 119 -87 l 122 -87 q 167 -39 167 -87 l 167 -1 l 150 -1 q 111 38 111 -1 z "},"।":{"ha":486,"x_min":257,"x_max":353,"o":"m 257 883 l 257 0 l 353 0 l 353 883 l 257 883 z "},"॥":{"ha":743,"x_min":257,"x_max":613,"o":"m 517 883 l 517 0 l 613 0 l 613 883 l 517 883 m 257 883 l 257 0 l 353 0 l 353 883 l 257 883 z "},"ৰ":{"ha":799,"x_min":-19,"x_max":819,"o":"m 710 796 l 710 0 l 608 0 l 83 379 l 83 503 l 608 739 l 608 796 l -19 796 l -19 883 l 819 883 l 819 796 l 710 796 m 608 403 l 608 631 l 414 542 l 608 403 m 608 282 l 315 494 l 188 436 l 608 131 l 608 282 z "},"ৱ":{"ha":817,"x_min":-19,"x_max":826,"o":"m 724 796 l 722 0 l 621 0 l 96 379 l 96 503 l 621 739 l 621 796 l -19 796 l -19 883 l 826 883 l 826 796 l 724 796 m 621 131 l 621 631 l 200 436 l 621 131 m 397 44 l 344 0 q 228 94 344 0 q 164 139 188 126 l 206 228 q 284 168 236 214 q 364 83 332 122 l 397 44 z "},"৲":{"ha":844,"x_min":178,"x_max":636,"o":"m 636 158 l 583 113 q 472 238 583 113 q 178 510 308 411 l 217 608 q 571 254 353 567 q 636 158 611 199 z "},"৴":{"ha":844,"x_min":207,"x_max":703,"o":"m 253 156 l 207 208 q 332 319 207 208 q 604 614 506 483 l 703 575 q 340 210 613 388 q 253 156 289 175 z "},"৷":{"ha":340,"x_min":118,"x_max":219,"o":"m 118 883 l 118 0 l 219 0 l 219 883 l 118 883 z "},"৺":{"ha":833,"x_min":75,"x_max":746,"o":"m 76 826 l 139 897 q 235 819 139 897 q 351 753 322 753 q 465 828 381 753 q 622 978 550 903 q 693 1053 694 1053 l 746 1001 q 638 871 746 1001 q 454 692 521 738 q 346 651 392 651 q 285 670 322 651 q 215 712 247 689 q 147 765 183 735 q 97 808 110 796 q 76 826 83 819 m 339 839 l 288 879 q 281 915 268 896 l 321 968 q 358 972 336 986 l 410 933 q 415 897 429 918 l 375 844 q 339 839 358 828 z "},"৹":{"ha":639,"x_min":115,"x_max":533,"o":"m 115 410 q 194 599 115 560 q 324 621 238 621 q 492 571 449 621 q 532 410 532 522 q 451 231 532 268 q 324 211 407 211 q 144 276 186 211 q 115 410 117 324 m 207 410 q 250 308 207 324 q 324 301 271 301 q 417 319 397 301 q 439 410 439 342 q 400 521 439 503 q 324 529 379 529 q 233 510 253 529 q 207 410 207 485 z "},"৸":{"ha":889,"x_min":82,"x_max":814,"o":"m 622 0 l 814 0 l 814 60 l 724 75 l 724 567 l 667 631 l 292 469 l 292 883 l 82 883 l 82 799 l 190 799 l 190 418 l 247 339 l 622 504 l 622 0 z "},"৵":{"ha":997,"x_min":60,"x_max":917,"o":"m 836 739 q 772 533 836 739 q 653 268 699 319 q 560 210 617 229 q 464 192 503 190 l 425 192 q 469 264 425 192 q 503 396 519 357 q 404 507 478 454 q 379 524 393 514 q 172 522 258 606 q 129 469 150 500 q 60 342 89 411 l 125 311 q 172 382 125 311 q 174 385 174 383 q 257 461 221 453 q 324 444 289 467 q 394 392 385 403 q 408 364 408 376 q 392 316 408 350 q 361 256 376 282 l 344 228 l 269 103 q 378 92 269 103 q 632 114 531 82 q 754 205 700 135 q 838 360 808 275 q 885 526 867 444 q 911 661 904 607 l 917 717 l 836 739 z "},"৶":{"ha":997,"x_min":60,"x_max":933,"o":"m 853 906 q 746 532 853 906 q 658 268 690 346 q 588 139 618 169 q 528 110 560 111 q 476 119 510 110 q 419 136 443 128 l 394 144 q 451 236 394 144 q 503 396 518 357 q 404 507 478 454 q 379 524 393 515 q 171 521 258 606 q 129 469 150 500 q 60 342 89 410 l 125 311 q 174 385 126 314 q 261 463 222 456 q 324 444 290 467 q 396 390 385 403 q 408 364 408 375 q 374 269 408 335 q 304 154 339 204 l 269 103 q 351 56 269 103 q 536 0 464 0 q 733 144 669 1 q 929 854 857 426 q 933 883 932 874 l 853 906 z "},"‍":{"ha":0,"x_min":-254,"x_max":253,"o":"m 50 840 l 244 643 l 193 585 l 42 735 l 42 -242 l -42 -242 l -42 739 l -193 585 l -254 644 l -58 843 l -250 1046 l -193 1103 l 0 907 l 193 1103 l 253 1043 l 50 840 z "},"‌":{"ha":0,"x_min":-42,"x_max":42,"o":"m -42 -231 l -42 1090 l 42 1090 l 42 -231 l -42 -231 z "},"≤":{"ha":660,"x_min":69,"x_max":592,"o":"m 69 144 l 69 247 l 592 247 l 592 144 l 69 144 m 69 547 l 69 658 l 590 883 l 590 772 l 207 603 l 590 419 l 590 306 l 69 547 z "},"$":{"ha":799,"x_min":76,"x_max":722,"o":"m 108 100 l 440 92 q 619 217 619 92 l 619 311 q 504 447 619 447 l 324 447 q 122 525 178 447 q 76 686 76 592 l 76 778 q 147 969 78 915 q 339 1025 215 1022 l 339 1144 l 419 1144 l 419 1021 q 685 992 510 1014 l 685 911 l 351 924 l 322 924 q 279 919 304 924 q 229 903 253 917 q 179 778 179 872 l 179 686 q 324 550 179 550 l 504 550 q 686 472 640 550 q 722 311 722 408 l 722 217 q 625 28 722 79 q 449 -11 553 -11 l 419 -11 l 419 -125 l 339 -125 l 339 -4 l 108 24 l 108 100 z "},"&":{"ha":885,"x_min":46,"x_max":851,"o":"m 46 285 q 158 508 46 413 l 278 610 l 190 728 q 144 850 144 794 q 190 964 144 919 q 286 1014 236 1008 q 386 1018 338 1018 q 657 986 518 1018 l 657 917 l 375 917 q 282 903 313 917 q 251 851 251 889 q 300 747 251 814 l 626 306 l 785 471 l 817 438 l 746 289 l 689 226 l 851 0 l 729 0 l 615 154 l 515 61 q 343 -6 444 -6 q 108 114 192 -6 q 46 285 46 197 m 343 94 q 442 132 396 94 l 553 236 l 336 525 l 228 435 q 146 292 146 368 q 193 174 147 232 q 343 94 254 94 z "},"@":{"ha":1172,"x_min":90,"x_max":1056,"o":"m 90 0 l 90 483 q 142 646 90 588 q 211 692 164 671 q 324 711 258 711 l 622 711 q 772 667 710 711 q 835 517 835 621 l 835 0 l 757 0 l 738 89 l 724 78 q 486 -12 603 -12 q 361 33 413 -12 q 313 150 311 79 l 313 224 q 360 358 313 308 q 492 408 407 408 l 735 408 q 736 488 736 461 q 736 502 736 496 q 736 511 736 508 l 735 514 q 707 589 735 569 q 618 608 679 608 l 324 608 q 228 583 263 608 q 193 483 193 558 l 193 0 q 324 -143 193 -143 l 808 -143 q 921 -108 890 -143 q 951 0 951 -75 l 951 711 q 913 829 951 789 q 808 869 874 869 l 247 869 l 247 935 q 632 972 428 972 l 647 972 l 808 972 q 989 903 922 969 q 1054 711 1054 838 l 1054 0 q 808 -247 1054 -247 l 324 -247 q 153 -183 215 -247 q 90 0 90 -119 m 415 158 q 440 113 415 135 q 496 90 465 90 l 518 90 q 586 104 538 90 q 657 128 635 118 q 735 165 679 139 l 735 336 l 499 314 q 436 283 458 310 q 415 221 414 258 l 415 158 z "},"¡":{"ha":374,"x_min":115,"x_max":250,"o":"m 115 535 l 115 608 q 149 640 115 638 l 217 640 q 239 628 229 639 q 250 604 250 618 l 250 536 q 218 499 247 499 l 149 499 q 115 535 115 499 m 122 -375 l 131 363 l 235 363 l 246 -375 l 122 -375 z "},"¢":{"ha":681,"x_min":54,"x_max":625,"o":"m 74 169 q 56 369 56 247 q 74 569 56 490 q 129 686 92 647 q 206 736 167 725 q 278 747 246 747 l 321 747 l 321 881 l 404 881 l 404 740 q 615 708 508 728 l 615 633 q 346 644 422 644 q 251 640 269 644 q 214 621 233 636 q 183 576 194 606 q 158 360 158 511 q 190 150 158 208 q 299 93 222 93 q 572 104 429 93 l 625 108 l 625 31 q 404 -6 524 1 l 404 -133 l 321 -133 l 321 -10 l 282 -10 q 208 3 250 -10 q 131 53 168 14 q 74 169 92 90 z "},"£":{"ha":828,"x_min":69,"x_max":758,"o":"m 69 0 l 69 82 l 169 103 l 169 458 l 69 458 l 69 521 l 169 544 l 169 701 q 238 950 169 882 q 331 1003 281 993 q 461 1017 403 1017 q 708 1000 556 1017 l 758 994 l 758 915 l 489 915 q 317 888 342 915 q 278 803 282 851 q 272 701 272 754 l 272 544 l 649 521 l 649 458 l 272 458 l 272 103 l 757 103 l 757 0 l 69 0 z "},"¤":{"ha":638,"x_min":71,"x_max":567,"o":"m 183 615 q 314 657 240 657 q 449 610 388 657 l 515 675 l 564 619 l 499 554 q 532 433 532 501 q 493 306 532 364 l 567 232 l 508 181 l 440 249 q 314 204 382 204 q 189 244 244 204 l 124 179 l 72 238 l 135 299 q 92 433 92 358 q 131 563 92 507 l 71 624 l 126 674 l 183 615 m 211 535 q 169 433 169 493 q 211 329 169 374 q 311 285 251 285 q 413 329 371 285 q 454 433 454 374 q 413 536 454 494 q 311 576 371 576 q 211 535 253 576 z "},"¥":{"ha":833,"x_min":28,"x_max":806,"o":"m 707 446 l 707 364 l 454 364 l 454 294 l 707 294 l 707 213 l 454 213 l 454 0 l 351 0 l 351 213 l 114 213 l 114 294 l 351 294 l 351 364 l 114 364 l 114 446 l 350 446 l 28 1017 l 140 1017 l 403 547 l 689 1017 l 806 1017 l 456 446 l 707 446 z "},"¦":{"ha":342,"x_min":119,"x_max":222,"o":"m 119 -100 l 119 356 l 222 356 l 222 -100 l 119 -100 m 119 596 l 119 1069 l 222 1069 l 222 596 l 119 596 z "},"§":{"ha":767,"x_min":76,"x_max":692,"o":"m 78 490 l 78 576 q 139 706 78 686 q 76 819 76 724 l 76 917 q 128 1050 76 1010 q 257 1089 179 1089 q 638 1063 386 1089 l 638 986 l 257 986 q 200 971 218 986 q 179 917 181 956 l 179 819 q 257 754 179 754 l 506 754 q 653 710 615 754 q 690 578 692 665 l 690 492 q 632 368 690 376 q 689 254 689 360 l 689 153 q 625 14 689 44 q 476 -11 575 -11 q 128 15 378 -11 l 128 92 l 497 92 q 563 103 540 92 q 586 153 585 115 l 586 254 q 569 308 586 296 q 506 319 551 319 l 257 319 q 122 356 165 319 q 78 490 78 390 m 179 490 q 197 435 179 447 q 257 422 214 422 l 506 422 q 576 444 564 422 q 586 492 586 460 l 586 578 q 572 636 586 619 q 506 653 560 653 l 257 653 q 194 639 210 653 q 179 575 179 625 l 179 490 z "},"¨":{"ha":633,"x_min":69,"x_max":565,"o":"m 69 808 q 90 858 69 838 q 140 878 111 878 q 189 858 169 878 q 210 808 210 838 q 189 758 210 779 q 140 738 169 738 q 90 758 111 738 q 69 808 69 779 m 424 808 q 444 858 424 838 q 494 878 465 878 q 544 858 524 878 q 564 808 564 838 q 544 758 564 779 q 494 738 524 738 q 444 758 465 738 q 424 808 424 779 z "},"©":{"ha":1126,"x_min":76,"x_max":1050,"o":"m 76 511 q 392 1017 76 1017 l 767 1017 q 992 872 925 1017 q 1050 511 1050 747 q 988 156 1050 299 q 900 42 956 83 q 767 0 843 0 l 392 0 q 261 36 318 0 q 169 126 204 72 q 114 251 136 181 q 76 511 76 371 m 165 511 q 224 217 165 344 q 392 89 282 90 l 767 89 q 907 199 853 90 q 961 511 961 307 q 914 831 961 733 q 857 900 894 871 q 767 928 819 928 l 392 928 q 225 836 286 928 q 165 511 165 744 m 375 269 q 321 500 321 336 q 375 738 321 665 q 521 810 429 810 q 768 776 582 810 l 768 704 q 521 721 651 721 q 410 503 410 721 q 433 347 410 403 q 521 293 457 293 q 776 315 621 293 l 776 243 q 521 204 638 204 q 375 269 428 204 z "},"ª":{"ha":506,"x_min":40,"x_max":464,"o":"m 42 372 l 42 453 l 464 453 l 464 372 l 42 372 m 42 643 l 42 707 q 79 797 42 764 q 181 832 117 832 q 326 831 278 831 q 353 831 343 831 q 369 831 364 831 l 375 832 l 375 864 l 375 876 q 290 946 375 946 q 167 942 238 946 q 58 936 96 938 l 58 994 q 128 1006 82 997 q 301 1026 231 1026 l 307 1026 q 417 992 372 1026 q 461 883 461 956 l 461 525 l 406 525 l 376 593 l 364 586 q 186 519 249 519 q 83 553 124 519 q 42 643 42 585 m 128 661 q 189 606 128 606 q 347 639 264 606 l 375 650 l 375 769 l 189 756 q 128 699 128 750 l 128 661 z "},"«":{"ha":763,"x_min":69,"x_max":693,"o":"m 69 492 l 356 774 l 428 701 l 213 492 l 435 275 l 363 203 l 69 492 m 328 492 l 614 774 l 686 701 l 471 492 l 693 275 l 621 203 l 328 492 z "},"¬":{"ha":732,"x_min":69,"x_max":663,"o":"m 69 356 l 69 458 l 663 458 l 663 221 l 560 221 l 560 356 l 69 356 z "},"®":{"ha":1126,"x_min":76,"x_max":1050,"o":"m 76 511 q 392 1017 76 1017 l 767 1017 q 992 872 925 1017 q 1050 511 1050 747 q 988 156 1050 299 q 900 42 956 83 q 767 0 843 0 l 392 0 q 261 36 318 0 q 169 126 204 72 q 114 251 136 181 q 76 511 76 371 m 165 511 q 224 217 165 344 q 392 89 282 90 l 767 89 q 907 199 853 90 q 961 511 961 307 q 914 831 961 733 q 857 900 894 871 q 767 928 819 928 l 392 928 q 225 836 286 928 q 165 511 165 744 m 363 213 l 363 806 l 608 806 q 794 628 794 806 q 743 478 794 513 q 703 456 717 461 q 661 446 690 451 l 788 213 l 688 213 l 561 449 l 451 465 l 451 213 l 363 213 m 451 526 l 617 526 q 689 546 671 526 q 706 611 706 565 q 697 678 706 657 q 674 706 689 697 q 617 717 650 717 l 451 717 l 451 526 z "},"²":{"ha":538,"x_min":42,"x_max":481,"o":"m 44 1147 q 43 1164 43 1147 q 44 1197 43 1181 l 44 1213 q 299 1233 217 1233 q 479 1044 479 1233 q 454 940 479 996 q 403 847 429 885 q 325 758 375 808 q 258 694 275 708 q 206 650 242 681 l 478 650 l 478 564 l 49 564 l 49 644 q 106 689 60 654 q 179 746 150 722 q 253 811 208 769 q 322 886 296 851 q 389 1033 389 971 q 365 1122 389 1097 q 283 1147 342 1147 l 44 1147 z "},"³":{"ha":564,"x_min":42,"x_max":482,"o":"m 47 583 l 49 643 l 294 644 q 372 664 350 644 q 394 729 394 683 l 394 761 q 300 857 394 854 l 103 864 l 103 929 l 300 939 q 396 1028 396 943 l 396 1058 q 300 1142 396 1142 l 42 1142 l 42 1201 q 214 1226 117 1226 l 313 1226 q 439 1181 397 1226 q 481 1064 481 1133 l 481 1015 q 461 936 481 969 q 413 893 442 904 q 481 763 481 850 l 481 724 q 442 600 481 643 q 306 558 403 558 l 190 558 q 47 583 122 558 z "},"µ":{"ha":825,"x_min":125,"x_max":728,"o":"m 125 -375 l 125 738 l 228 738 l 228 224 q 263 125 228 158 q 351 90 297 90 q 453 101 406 90 q 528 125 500 113 q 625 169 557 136 l 625 738 l 728 738 l 728 0 l 656 0 l 625 86 q 594 69 621 85 q 561 50 568 53 q 532 33 556 47 q 499 18 508 21 q 467 7 489 15 q 431 -4 444 -1 q 353 -12 386 -12 q 228 22 279 -12 l 228 -375 l 125 -375 z "},"¶":{"ha":807,"x_min":56,"x_max":779,"o":"m 56 693 l 56 822 q 119 967 56 915 q 272 1017 185 1017 l 779 1017 l 779 911 l 683 911 l 683 0 l 581 0 l 581 914 l 450 914 l 450 -375 l 347 -375 l 347 517 l 335 510 q 272 493 304 493 q 113 550 169 493 q 56 693 56 607 m 158 696 q 194 617 158 639 q 272 596 231 596 l 347 596 l 347 914 l 272 914 q 185 885 211 914 q 158 819 158 856 l 158 696 z "},"¹":{"ha":376,"x_min":22,"x_max":286,"o":"m 286 1225 l 286 564 l 200 564 l 200 1129 l 22 1081 l 22 1149 l 200 1225 l 286 1225 z "},"º":{"ha":542,"x_min":42,"x_max":500,"o":"m 92 572 q 42 769 42 628 q 92 968 42 913 q 272 1024 140 1024 q 453 968 404 1024 q 500 769 500 913 q 451 572 500 628 q 272 518 403 518 q 92 572 142 518 m 57 376 l 57 457 l 483 457 l 483 376 l 57 376 m 136 864 q 128 767 128 828 q 136 674 128 707 q 169 625 146 640 q 211 608 192 611 q 274 604 232 604 q 335 607 315 604 q 375 625 356 611 q 406 672 397 639 q 414 772 414 713 q 407 865 414 832 q 378 914 400 899 q 336 933 356 931 q 271 938 315 938 q 207 935 226 938 q 165 917 188 932 q 136 864 143 900 z "},"»":{"ha":763,"x_min":69,"x_max":693,"o":"m 69 275 l 292 492 l 76 701 l 149 774 l 435 492 l 142 203 l 69 275 m 328 275 l 550 492 l 335 701 l 407 774 l 693 492 l 400 203 l 328 275 z "},"¿":{"ha":754,"x_min":53,"x_max":726,"o":"m 472 -372 l 376 -375 q 339 -374 347 -375 q 329 -372 331 -372 q 56 -111 56 -372 l 56 31 q 150 208 54 150 q 314 249 219 249 q 390 243 350 249 l 390 383 l 497 383 l 499 158 q 383 160 433 160 q 292 158 333 160 q 215 117 250 157 q 176 21 181 76 q 175 -118 175 -90 q 217 -225 175 -181 q 338 -269 257 -269 l 347 -269 l 726 -268 q 724 -306 722 -268 q 724 -344 725 -342 q 617 -358 654 -356 q 533 -367 581 -362 q 472 -372 488 -372 m 375 618 q 386 642 375 632 q 408 654 396 653 l 476 654 q 510 622 510 651 l 510 547 q 481 513 507 514 l 403 513 q 375 547 378 521 l 375 618 z "},"À":{"ha":931,"x_min":63,"x_max":896,"o":"m 256 1292 l 386 1292 l 536 1107 l 439 1107 l 256 1292 m 63 0 l 436 1017 l 539 1017 l 896 0 l 774 0 l 686 283 l 281 283 l 189 0 l 63 0 m 318 386 l 650 386 l 486 860 l 318 386 z "},"Á":{"ha":931,"x_min":63,"x_max":896,"o":"m 439 1107 l 589 1292 l 719 1292 l 536 1107 l 439 1107 m 63 0 l 436 1017 l 539 1017 l 896 0 l 774 0 l 686 283 l 281 283 l 189 0 l 63 0 m 318 386 l 650 386 l 486 860 l 318 386 z "},"Â":{"ha":931,"x_min":63,"x_max":896,"o":"m 285 1107 l 447 1288 l 546 1288 l 690 1107 l 592 1107 l 493 1206 l 385 1107 l 285 1107 m 63 0 l 436 1017 l 539 1017 l 896 0 l 774 0 l 686 283 l 281 283 l 189 0 l 63 0 m 318 386 l 650 386 l 486 860 l 318 386 z "},"Ã":{"ha":931,"x_min":63,"x_max":896,"o":"m 567 1204 q 692 1254 599 1204 l 722 1196 q 689 1169 718 1193 q 568 1108 614 1108 q 482 1132 526 1108 q 411 1156 438 1156 q 367 1147 386 1156 q 322 1128 346 1140 q 282 1107 300 1114 l 253 1164 q 308 1208 290 1194 q 358 1239 328 1224 q 422 1251 392 1253 q 503 1228 456 1250 q 558 1204 549 1204 l 567 1204 m 63 0 l 436 1017 l 539 1017 l 896 0 l 774 0 l 686 283 l 281 283 l 189 0 l 63 0 m 318 386 l 650 386 l 486 860 l 318 386 z "},"Ä":{"ha":931,"x_min":63,"x_max":896,"o":"m 240 1178 q 261 1228 240 1207 q 311 1247 282 1247 q 361 1228 340 1247 q 381 1178 381 1207 q 361 1128 381 1149 q 311 1107 340 1107 q 261 1128 282 1107 q 240 1178 240 1149 m 594 1178 q 615 1228 594 1207 q 665 1247 636 1247 q 714 1228 694 1247 q 735 1178 735 1207 q 714 1128 735 1149 q 665 1107 694 1107 q 615 1128 636 1107 q 594 1178 594 1149 m 63 0 l 436 1017 l 539 1017 l 896 0 l 774 0 l 686 283 l 281 283 l 189 0 l 63 0 m 318 386 l 650 386 l 486 860 l 318 386 z "},"Å":{"ha":931,"x_min":63,"x_max":896,"o":"m 367 1083 q 417 1033 385 1051 q 489 1014 450 1014 q 558 1033 526 1014 q 610 1083 592 1051 q 628 1167 628 1117 q 586 1257 628 1215 q 488 1299 546 1299 q 389 1257 429 1299 q 347 1167 347 1215 q 367 1083 347 1117 m 411 1156 q 433 1210 411 1188 q 489 1232 457 1232 q 542 1210 519 1232 q 564 1156 564 1188 q 542 1103 564 1125 q 489 1081 519 1081 q 433 1103 457 1081 q 411 1156 411 1125 m 63 0 l 436 1017 l 539 1017 l 896 0 l 774 0 l 686 283 l 281 283 l 189 0 l 63 0 m 318 386 l 650 386 l 486 860 l 318 386 z "},"Æ":{"ha":1279,"x_min":42,"x_max":1217,"o":"m 711 1018 l 772 1017 l 1217 994 l 1217 913 l 772 913 q 714 889 724 913 q 703 839 706 871 l 703 551 l 1161 538 l 1161 456 l 703 442 l 703 168 q 719 114 703 126 q 749 103 736 103 l 774 103 l 789 103 l 1215 101 l 1215 17 l 789 -7 l 768 -7 q 600 168 600 -7 l 600 315 l 308 315 l 154 0 l 42 0 l 456 839 q 517 936 492 913 q 556 974 542 960 q 592 994 569 988 q 625 1008 613 1003 q 661 1015 638 1014 q 694 1017 686 1017 q 711 1018 703 1018 m 600 418 l 600 906 l 360 418 l 600 418 z "},"Ç":{"ha":803,"x_min":75,"x_max":754,"o":"m 421 -50 l 514 -50 q 485 -199 514 -158 q 374 -239 456 -239 l 303 -239 l 303 -187 l 376 -167 q 421 -50 421 -147 m 754 911 q 414 925 504 925 q 275 892 325 925 q 203 767 226 857 q 179 508 179 678 q 415 94 179 94 l 754 104 l 754 22 q 415 -8 590 -8 q 76 511 76 -8 q 147 901 76 775 q 415 1028 219 1028 q 754 993 567 1028 l 754 911 z "},"È":{"ha":788,"x_min":110,"x_max":725,"o":"m 244 1285 l 376 1285 l 525 1100 l 429 1100 l 244 1285 m 111 836 q 158 975 111 932 q 278 1017 207 1017 l 286 1017 l 725 994 l 725 914 l 286 914 q 236 900 253 914 q 217 875 218 888 q 214 836 214 861 l 214 558 l 669 544 l 669 463 l 214 449 l 214 171 q 229 119 214 136 q 258 100 244 103 q 300 99 272 99 l 725 99 l 725 19 l 300 -4 l 279 -4 q 111 171 111 -4 l 111 836 z "},"É":{"ha":788,"x_min":110,"x_max":725,"o":"m 399 1100 l 547 1285 l 679 1285 l 494 1100 l 399 1100 m 111 836 q 158 975 111 932 q 278 1017 207 1017 l 286 1017 l 725 994 l 725 914 l 286 914 q 236 900 253 914 q 217 875 218 888 q 214 836 214 861 l 214 558 l 669 544 l 669 463 l 214 449 l 214 171 q 229 119 214 136 q 258 100 244 103 q 300 99 272 99 l 725 99 l 725 19 l 300 -4 l 279 -4 q 111 171 111 -4 l 111 836 z "},"Ê":{"ha":788,"x_min":110,"x_max":725,"o":"m 236 1107 l 399 1288 l 497 1288 l 642 1107 l 543 1107 l 444 1206 l 336 1107 l 236 1107 m 111 836 q 158 975 111 932 q 278 1017 207 1017 l 286 1017 l 725 994 l 725 914 l 286 914 q 236 900 253 914 q 217 875 218 888 q 214 836 214 861 l 214 558 l 669 544 l 669 463 l 214 449 l 214 171 q 229 119 214 136 q 258 100 244 103 q 300 99 272 99 l 725 99 l 725 19 l 300 -4 l 279 -4 q 111 171 111 -4 l 111 836 z "},"Ë":{"ha":788,"x_min":110,"x_max":725,"o":"m 193 1171 q 214 1219 193 1200 q 264 1240 235 1240 q 314 1219 293 1240 q 333 1171 333 1200 q 314 1121 333 1142 q 264 1100 293 1100 q 214 1121 235 1100 q 193 1171 193 1142 m 547 1171 q 568 1219 547 1200 q 618 1240 589 1240 q 667 1219 647 1240 q 688 1171 688 1200 q 667 1121 688 1142 q 618 1100 647 1100 q 568 1121 589 1100 q 547 1171 547 1142 m 111 836 q 158 975 111 932 q 278 1017 207 1017 l 286 1017 l 725 994 l 725 914 l 286 914 q 236 900 253 914 q 217 875 218 888 q 214 836 214 861 l 214 558 l 669 544 l 669 463 l 214 449 l 214 171 q 229 119 214 136 q 258 100 244 103 q 300 99 272 99 l 725 99 l 725 19 l 300 -4 l 279 -4 q 111 171 111 -4 l 111 836 z "},"Ì":{"ha":297,"x_min":-69,"x_max":214,"o":"m -69 1292 l 61 1292 l 211 1107 l 114 1107 l -69 1292 m 111 0 l 111 1017 l 214 1017 l 214 0 l 111 0 z "},"Í":{"ha":297,"x_min":111,"x_max":394,"o":"m 114 1107 l 264 1292 l 394 1292 l 211 1107 l 114 1107 m 111 0 l 111 1017 l 214 1017 l 214 0 l 111 0 z "},"Î":{"ha":297,"x_min":-40,"x_max":365,"o":"m -40 1107 l 122 1288 l 221 1288 l 365 1107 l 267 1107 l 168 1206 l 60 1107 l -40 1107 m 111 0 l 111 1017 l 214 1017 l 214 0 l 111 0 z "},"Ï":{"ha":297,"x_min":-85,"x_max":411,"o":"m -85 1178 q -64 1228 -85 1207 q -14 1247 -43 1247 q 36 1228 15 1247 q 56 1178 56 1207 q 36 1128 56 1149 q -14 1107 15 1107 q -64 1128 -43 1107 q -85 1178 -85 1149 m 269 1178 q 290 1228 269 1207 q 340 1247 311 1247 q 389 1228 369 1247 q 410 1178 410 1207 q 389 1128 410 1149 q 340 1107 369 1107 q 290 1128 311 1107 q 269 1178 269 1149 m 111 0 l 111 1017 l 214 1017 l 214 0 l 111 0 z "},"Ð":{"ha":913,"x_min":21,"x_max":850,"o":"m 21 481 l 21 556 l 111 556 l 111 1015 q 490 1017 111 1017 q 722 929 643 1017 q 826 729 803 842 q 850 522 850 614 q 839 364 850 432 q 800 228 828 294 q 733 111 774 161 q 631 31 693 61 q 490 0 568 0 l 111 0 l 111 481 l 21 481 m 214 107 l 490 107 q 681 219 619 107 q 743 506 743 331 q 490 907 743 907 l 214 906 l 214 556 l 407 556 l 407 481 l 214 481 l 214 107 z "},"Ñ":{"ha":944,"x_min":111,"x_max":861,"o":"m 565 1204 q 690 1254 597 1204 l 721 1196 q 686 1169 717 1193 q 567 1108 613 1108 q 481 1132 525 1108 q 411 1156 436 1156 q 364 1147 385 1156 q 322 1128 344 1140 q 281 1107 299 1114 l 251 1164 q 308 1208 289 1194 q 358 1239 326 1224 q 422 1251 390 1253 q 500 1228 454 1250 q 556 1204 547 1204 l 565 1204 m 111 0 l 111 1017 l 217 1017 l 758 192 l 758 1017 l 861 1017 l 861 0 l 758 0 l 215 825 l 215 0 l 111 0 z "},"Ò":{"ha":939,"x_min":90,"x_max":878,"o":"m 253 1292 l 383 1292 l 533 1107 l 436 1107 l 253 1292 m 101 303 q 90 503 90 388 q 103 706 90 618 q 142 849 115 792 q 200 942 168 906 q 279 994 231 976 q 485 1024 358 1024 q 740 968 667 1024 q 842 814 811 914 q 876 531 876 692 q 858 278 876 369 q 811 129 842 185 q 731 44 782 74 q 622 4 678 14 q 492 -6 567 -6 q 368 0 415 -6 q 272 22 321 6 q 193 75 224 40 q 138 164 163 108 q 101 303 113 219 m 197 625 q 193 468 193 569 q 206 288 193 367 q 258 165 219 208 q 346 110 296 122 q 475 97 396 97 q 599 106 554 97 q 679 139 643 115 q 735 210 715 164 q 774 501 774 301 q 740 794 774 719 q 715 847 726 826 q 682 883 704 868 q 644 906 660 897 q 597 917 628 913 q 544 919 565 919 q 485 921 522 921 q 426 920 446 921 q 375 917 406 919 q 326 906 343 913 q 288 883 310 897 q 253 847 265 868 q 228 794 242 825 q 208 722 214 764 q 197 625 201 681 z "},"Ó":{"ha":939,"x_min":90,"x_max":878,"o":"m 436 1107 l 586 1292 l 717 1292 l 533 1107 l 436 1107 m 101 303 q 90 503 90 388 q 103 706 90 618 q 142 849 115 792 q 200 942 168 906 q 279 994 231 976 q 485 1024 358 1024 q 740 968 667 1024 q 842 814 811 914 q 876 531 876 692 q 858 278 876 369 q 811 129 842 185 q 731 44 782 74 q 622 4 678 14 q 492 -6 567 -6 q 368 0 415 -6 q 272 22 321 6 q 193 75 224 40 q 138 164 163 108 q 101 303 113 219 m 197 625 q 193 468 193 569 q 206 288 193 367 q 258 165 219 208 q 346 110 296 122 q 475 97 396 97 q 599 106 554 97 q 679 139 643 115 q 735 210 715 164 q 774 501 774 301 q 740 794 774 719 q 715 847 726 826 q 682 883 704 868 q 644 906 660 897 q 597 917 628 913 q 544 919 565 919 q 485 921 522 921 q 426 920 446 921 q 375 917 406 919 q 326 906 343 913 q 288 883 310 897 q 253 847 265 868 q 228 794 242 825 q 208 722 214 764 q 197 625 201 681 z "},"Ô":{"ha":939,"x_min":90,"x_max":878,"o":"m 282 1107 l 444 1288 l 543 1288 l 688 1107 l 589 1107 l 490 1206 l 382 1107 l 282 1107 m 101 303 q 90 503 90 388 q 103 706 90 618 q 142 849 115 792 q 200 942 168 906 q 279 994 231 976 q 485 1024 358 1024 q 740 968 667 1024 q 842 814 811 914 q 876 531 876 692 q 858 278 876 369 q 811 129 842 185 q 731 44 782 74 q 622 4 678 14 q 492 -6 567 -6 q 368 0 415 -6 q 272 22 321 6 q 193 75 224 40 q 138 164 163 108 q 101 303 113 219 m 197 625 q 193 468 193 569 q 206 288 193 367 q 258 165 219 208 q 346 110 296 122 q 475 97 396 97 q 599 106 554 97 q 679 139 643 115 q 735 210 715 164 q 774 501 774 301 q 740 794 774 719 q 715 847 726 826 q 682 883 704 868 q 644 906 660 897 q 597 917 628 913 q 544 919 565 919 q 485 921 522 921 q 426 920 446 921 q 375 917 406 919 q 326 906 343 913 q 288 883 310 897 q 253 847 265 868 q 228 794 242 825 q 208 722 214 764 q 197 625 201 681 z "},"Õ":{"ha":939,"x_min":90,"x_max":878,"o":"m 564 1204 q 689 1254 596 1204 l 719 1196 q 686 1169 715 1193 q 565 1108 611 1108 q 479 1132 524 1108 q 408 1156 435 1156 q 364 1147 383 1156 q 319 1128 343 1140 q 279 1107 297 1114 l 250 1164 q 306 1208 288 1194 q 356 1239 325 1224 q 419 1251 389 1253 q 500 1228 453 1250 q 556 1204 546 1204 l 564 1204 m 101 303 q 90 503 90 388 q 103 706 90 618 q 142 849 115 792 q 200 942 168 906 q 279 994 231 976 q 485 1024 358 1024 q 740 968 667 1024 q 842 814 811 914 q 876 531 876 692 q 858 278 876 369 q 811 129 842 185 q 731 44 782 74 q 622 4 678 14 q 492 -6 567 -6 q 368 0 415 -6 q 272 22 321 6 q 193 75 224 40 q 138 164 163 108 q 101 303 113 219 m 197 625 q 193 468 193 569 q 206 288 193 367 q 258 165 219 208 q 346 110 296 122 q 475 97 396 97 q 599 106 554 97 q 679 139 643 115 q 735 210 715 164 q 774 501 774 301 q 740 794 774 719 q 715 847 726 826 q 682 883 704 868 q 644 906 660 897 q 597 917 628 913 q 544 919 565 919 q 485 921 522 921 q 426 920 446 921 q 375 917 406 919 q 326 906 343 913 q 288 883 310 897 q 253 847 265 868 q 228 794 242 825 q 208 722 214 764 q 197 625 201 681 z "},"Ö":{"ha":939,"x_min":90,"x_max":878,"o":"m 238 1178 q 258 1228 238 1207 q 308 1247 279 1247 q 358 1228 338 1247 q 378 1178 378 1207 q 358 1128 378 1149 q 308 1107 338 1107 q 258 1128 279 1107 q 238 1178 238 1149 m 592 1178 q 613 1228 592 1207 q 663 1247 633 1247 q 711 1228 692 1247 q 732 1178 732 1207 q 711 1128 732 1149 q 663 1107 692 1107 q 613 1128 633 1107 q 592 1178 592 1149 m 101 303 q 90 503 90 388 q 103 706 90 618 q 142 849 115 792 q 200 942 168 906 q 279 994 231 976 q 485 1024 358 1024 q 740 968 667 1024 q 842 814 811 914 q 876 531 876 692 q 858 278 876 369 q 811 129 842 185 q 731 44 782 74 q 622 4 678 14 q 492 -6 567 -6 q 368 0 415 -6 q 272 22 321 6 q 193 75 224 40 q 138 164 163 108 q 101 303 113 219 m 197 625 q 193 468 193 569 q 206 288 193 367 q 258 165 219 208 q 346 110 296 122 q 475 97 396 97 q 599 106 554 97 q 679 139 643 115 q 735 210 715 164 q 774 501 774 301 q 740 794 774 719 q 715 847 726 826 q 682 883 704 868 q 644 906 660 897 q 597 917 628 913 q 544 919 565 919 q 485 921 522 921 q 426 920 446 921 q 375 917 406 919 q 326 906 343 913 q 288 883 310 897 q 253 847 265 868 q 228 794 242 825 q 208 722 214 764 q 197 625 201 681 z "},"Ø":{"ha":939,"x_min":90,"x_max":876,"o":"m 158 892 q 243 978 189 947 q 350 1015 297 1007 q 483 1024 403 1024 q 733 972 658 1024 l 763 1017 l 847 1017 l 786 922 q 876 501 876 806 q 811 129 876 251 q 728 44 781 74 q 621 4 676 14 q 483 -6 565 -6 q 225 47 303 -6 l 194 0 l 110 0 l 172 99 q 90 486 90 210 q 158 892 90 764 m 236 197 l 678 886 q 563 919 639 915 q 485 921 536 921 q 408 919 433 921 q 346 911 383 918 q 290 886 308 903 q 250 842 272 871 q 217 767 228 811 q 193 472 193 661 q 236 197 193 282 m 483 97 q 622 111 571 97 q 708 169 672 126 q 760 292 746 214 q 774 501 774 371 q 726 828 774 738 l 283 139 q 483 97 340 97 z "},"Ù":{"ha":940,"x_min":111,"x_max":857,"o":"m 251 1292 l 383 1292 l 532 1107 l 436 1107 l 251 1292 m 111 444 l 111 1017 l 214 1017 l 214 444 q 231 244 214 318 q 289 139 246 169 q 367 103 332 108 q 442 96 401 96 l 488 96 q 610 106 586 96 q 654 128 633 115 q 688 156 675 139 q 714 200 700 174 q 736 261 728 226 q 753 444 753 338 l 753 1017 l 857 1017 l 857 444 q 833 225 857 315 q 778 92 808 136 q 689 24 746 47 q 593 -3 631 0 q 519 -7 556 -7 l 461 -7 q 419 -6 438 -7 q 367 -3 400 -6 q 314 6 332 -1 q 267 22 296 11 q 222 50 239 32 q 186 90 207 67 q 154 147 165 114 q 132 225 143 183 q 111 444 111 304 z "},"Ú":{"ha":940,"x_min":111,"x_max":857,"o":"m 436 1107 l 585 1292 l 717 1292 l 532 1107 l 436 1107 m 111 444 l 111 1017 l 214 1017 l 214 444 q 231 244 214 318 q 289 139 246 169 q 367 103 332 108 q 442 96 401 96 l 488 96 q 610 106 586 96 q 654 128 633 115 q 688 156 675 139 q 714 200 700 174 q 736 261 728 226 q 753 444 753 338 l 753 1017 l 857 1017 l 857 444 q 833 225 857 315 q 778 92 808 136 q 689 24 746 47 q 593 -3 631 0 q 519 -7 556 -7 l 461 -7 q 419 -6 438 -7 q 367 -3 400 -6 q 314 6 332 -1 q 267 22 296 11 q 222 50 239 32 q 186 90 207 67 q 154 147 165 114 q 132 225 143 183 q 111 444 111 304 z "},"Û":{"ha":940,"x_min":111,"x_max":857,"o":"m 281 1107 l 444 1288 l 542 1288 l 686 1107 l 589 1107 l 489 1206 l 381 1107 l 281 1107 m 111 444 l 111 1017 l 214 1017 l 214 444 q 231 244 214 318 q 289 139 246 169 q 367 103 332 108 q 442 96 401 96 l 488 96 q 610 106 586 96 q 654 128 633 115 q 688 156 675 139 q 714 200 700 174 q 736 261 728 226 q 753 444 753 338 l 753 1017 l 857 1017 l 857 444 q 833 225 857 315 q 778 92 808 136 q 689 24 746 47 q 593 -3 631 0 q 519 -7 556 -7 l 461 -7 q 419 -6 438 -7 q 367 -3 400 -6 q 314 6 332 -1 q 267 22 296 11 q 222 50 239 32 q 186 90 207 67 q 154 147 165 114 q 132 225 143 183 q 111 444 111 304 z "},"Ü":{"ha":940,"x_min":111,"x_max":857,"o":"m 257 1128 q 236 1169 236 1150 q 242 1206 236 1192 q 257 1228 249 1218 q 307 1247 278 1247 q 357 1228 336 1247 q 378 1178 378 1207 q 357 1128 378 1149 q 307 1107 336 1107 q 257 1128 278 1107 m 592 1178 q 611 1228 592 1207 q 661 1247 632 1247 q 711 1228 692 1247 q 731 1178 731 1207 q 711 1128 731 1149 q 661 1107 690 1107 q 613 1128 633 1107 q 592 1178 592 1149 m 111 444 l 111 1017 l 214 1017 l 214 444 q 231 244 214 318 q 289 139 246 169 q 367 103 332 108 q 442 96 401 96 l 488 96 q 610 106 586 96 q 654 128 633 115 q 688 156 675 139 q 714 200 700 174 q 736 261 728 226 q 753 444 753 338 l 753 1017 l 857 1017 l 857 444 q 833 225 857 315 q 778 92 808 136 q 689 24 746 47 q 593 -3 631 0 q 519 -7 556 -7 l 461 -7 q 419 -6 438 -7 q 367 -3 400 -6 q 314 6 332 -1 q 267 22 296 11 q 222 50 239 32 q 186 90 207 67 q 154 147 165 114 q 132 225 143 183 q 111 444 111 304 z "},"Ý":{"ha":875,"x_min":63,"x_max":840,"o":"m 403 1107 l 553 1292 l 683 1292 l 500 1107 l 403 1107 m 489 0 l 386 0 l 386 361 l 63 1017 l 175 1017 l 438 483 l 728 1017 l 840 1017 l 489 361 l 489 0 z "},"Þ":{"ha":774,"x_min":83,"x_max":704,"o":"m 186 233 l 186 0 l 83 0 l 83 1013 l 186 1013 l 186 817 l 460 817 q 704 521 704 814 q 589 236 704 299 q 525 211 554 217 q 472 207 496 207 l 378 207 q 186 233 322 207 m 186 310 l 460 310 l 464 310 q 563 353 525 310 q 600 524 600 397 q 546 686 597 654 q 460 713 506 713 l 186 713 l 186 310 z "},"ß":{"ha":792,"x_min":83,"x_max":764,"o":"m 304 99 l 550 92 q 626 117 593 92 q 661 183 660 143 l 661 249 q 631 294 661 278 q 558 319 601 310 q 474 342 517 328 q 400 392 431 356 q 371 488 371 426 q 403 592 371 549 q 539 711 433 633 q 608 850 608 764 q 393 976 608 976 q 244 931 303 976 q 186 786 186 885 l 186 0 l 83 0 l 83 786 q 167 994 83 911 q 393 1079 250 1079 q 561 1053 492 1079 q 664 986 631 1028 q 713 846 713 925 q 667 703 713 774 q 601 632 639 658 q 565 603 589 621 q 533 576 542 585 q 508 554 524 568 q 489 531 494 540 q 474 483 474 507 q 503 444 474 458 q 576 419 533 429 q 661 394 619 410 q 733 344 704 381 q 764 249 764 307 l 764 183 q 617 -1 764 39 q 542 -11 581 -11 q 456 -6 503 -11 q 364 6 410 -1 q 304 15 319 14 l 304 99 z "},"à":{"ha":721,"x_min":56,"x_max":651,"o":"m 138 1019 l 269 1019 l 418 835 l 322 835 l 138 1019 m 79 710 q 443 751 229 751 q 592 699 533 751 q 651 538 651 646 l 651 0 l 575 0 l 549 89 l 528 79 q 240 -8 347 -8 q 108 40 161 -8 q 56 175 56 89 l 56 260 q 106 394 56 344 q 240 444 154 444 l 472 444 l 549 444 q 550 514 550 490 q 549 538 550 536 q 429 651 549 651 q 79 635 310 651 l 79 710 m 158 182 q 240 94 158 94 q 367 113 290 94 q 497 147 444 131 l 549 165 l 549 364 l 240 342 q 178 313 199 338 q 158 251 158 288 l 158 182 z "},"á":{"ha":721,"x_min":56,"x_max":651,"o":"m 315 835 l 464 1019 l 596 1019 l 411 835 l 315 835 m 79 710 q 443 751 229 751 q 592 699 533 751 q 651 538 651 646 l 651 0 l 575 0 l 549 89 l 528 79 q 240 -8 347 -8 q 108 40 161 -8 q 56 175 56 89 l 56 260 q 106 394 56 344 q 240 444 154 444 l 472 444 l 549 444 q 550 514 550 490 q 549 538 550 536 q 429 651 549 651 q 79 635 310 651 l 79 710 m 158 182 q 240 94 158 94 q 367 113 290 94 q 497 147 444 131 l 549 165 l 549 364 l 240 342 q 178 313 199 338 q 158 251 158 288 l 158 182 z "},"â":{"ha":721,"x_min":56,"x_max":651,"o":"m 163 835 l 325 1015 l 424 1015 l 568 835 l 469 835 l 371 933 l 263 835 l 163 835 m 79 710 q 443 751 229 751 q 592 699 533 751 q 651 538 651 646 l 651 0 l 575 0 l 549 89 l 528 79 q 240 -8 347 -8 q 108 40 161 -8 q 56 175 56 89 l 56 260 q 106 394 56 344 q 240 444 154 444 l 472 444 l 549 444 q 550 514 550 490 q 549 538 550 536 q 429 651 549 651 q 79 635 310 651 l 79 710 m 158 182 q 240 94 158 94 q 367 113 290 94 q 497 147 444 131 l 549 165 l 549 364 l 240 342 q 178 313 199 338 q 158 251 158 288 l 158 182 z "},"ã":{"ha":721,"x_min":56,"x_max":651,"o":"m 438 932 q 563 982 469 932 l 593 924 q 558 897 589 921 q 439 836 485 836 q 353 860 397 836 q 283 883 308 883 q 236 875 257 883 q 194 856 217 868 q 153 835 171 842 l 124 892 q 181 936 161 922 q 231 967 199 951 q 294 979 263 981 q 372 956 326 978 q 428 932 419 932 l 438 932 m 79 710 q 443 751 229 751 q 592 699 533 751 q 651 538 651 646 l 651 0 l 575 0 l 549 89 l 528 79 q 240 -8 347 -8 q 108 40 161 -8 q 56 175 56 89 l 56 260 q 106 394 56 344 q 240 444 154 444 l 472 444 l 549 444 q 550 514 550 490 q 549 538 550 536 q 429 651 549 651 q 79 635 310 651 l 79 710 m 158 182 q 240 94 158 94 q 367 113 290 94 q 497 147 444 131 l 549 165 l 549 364 l 240 342 q 178 313 199 338 q 158 251 158 288 l 158 182 z "},"ä":{"ha":721,"x_min":56,"x_max":651,"o":"m 115 906 q 136 956 115 935 q 186 975 157 975 q 236 956 215 975 q 256 906 256 935 q 236 856 256 876 q 186 835 215 835 q 136 856 157 835 q 115 906 115 876 m 469 906 q 490 956 469 935 q 540 975 511 975 q 589 956 569 975 q 610 906 610 935 q 589 856 610 876 q 540 835 569 835 q 490 856 511 835 q 469 906 469 876 m 79 710 q 443 751 229 751 q 592 699 533 751 q 651 538 651 646 l 651 0 l 575 0 l 549 89 l 528 79 q 240 -8 347 -8 q 108 40 161 -8 q 56 175 56 89 l 56 260 q 106 394 56 344 q 240 444 154 444 l 472 444 l 549 444 q 550 514 550 490 q 549 538 550 536 q 429 651 549 651 q 79 635 310 651 l 79 710 m 158 182 q 240 94 158 94 q 367 113 290 94 q 497 147 444 131 l 549 165 l 549 364 l 240 342 q 178 313 199 338 q 158 251 158 288 l 158 182 z "},"å":{"ha":721,"x_min":56,"x_max":651,"o":"m 224 935 q 265 1036 224 994 q 365 1078 307 1078 q 464 1036 424 1078 q 506 935 506 994 q 464 833 506 875 q 365 793 424 793 q 265 833 307 793 q 224 935 224 875 m 311 989 q 289 936 289 967 q 311 882 289 904 q 365 860 333 860 q 419 881 397 860 q 440 935 440 903 q 418 989 440 967 q 364 1011 396 1011 q 311 989 333 1011 m 79 710 q 443 751 229 751 q 592 699 533 751 q 651 538 651 646 l 651 0 l 575 0 l 549 89 l 528 79 q 240 -8 347 -8 q 108 40 161 -8 q 56 175 56 89 l 56 260 q 106 394 56 344 q 240 444 154 444 l 472 444 l 549 444 q 550 514 550 490 q 549 538 550 536 q 429 651 549 651 q 79 635 310 651 l 79 710 m 158 182 q 240 94 158 94 q 367 113 290 94 q 497 147 444 131 l 549 165 l 549 364 l 240 342 q 178 313 199 338 q 158 251 158 288 l 158 182 z "},"æ":{"ha":1210,"x_min":56,"x_max":1156,"o":"m 79 718 q 447 760 206 760 q 615 679 560 760 q 711 736 651 722 q 861 751 772 751 q 992 744 949 751 q 1076 713 1035 738 q 1136 633 1118 688 q 1154 490 1154 579 q 964 321 1154 321 l 653 321 q 682 147 653 192 q 793 104 711 104 q 1140 118 1046 104 l 1140 40 q 793 1 1003 1 q 667 25 710 1 q 579 99 624 47 l 556 89 q 354 17 433 35 q 240 0 275 0 q 108 49 161 0 q 56 183 56 97 l 56 239 q 106 374 56 324 q 240 424 154 424 q 472 422 394 422 q 549 424 549 422 q 550 514 550 483 q 550 531 550 524 q 550 542 550 538 l 549 546 q 433 660 549 660 q 79 643 317 660 l 79 718 m 158 190 q 240 103 158 103 q 367 121 290 103 q 497 156 444 139 l 549 174 l 549 351 l 240 329 q 178 300 199 325 q 158 239 158 275 l 158 190 m 653 422 l 964 422 q 1051 490 1051 422 q 1019 622 1051 597 q 874 649 989 649 q 703 619 731 649 q 658 528 664 578 q 653 422 653 478 z "},"ç":{"ha":694,"x_min":68,"x_max":639,"o":"m 69 369 q 86 564 69 486 q 139 681 104 642 q 214 733 174 718 q 336 747 254 747 q 629 708 419 747 l 629 633 q 360 644 436 644 q 265 640 283 644 q 228 621 247 636 q 197 576 208 606 q 172 360 172 511 q 204 150 172 208 q 313 93 236 93 q 586 104 443 93 l 639 108 l 639 31 q 313 -10 506 -7 q 215 6 256 -10 q 140 58 175 19 q 88 175 106 97 q 69 369 69 253 m 361 -51 l 454 -51 q 425 -200 454 -160 q 314 -240 396 -240 l 243 -240 l 243 -189 l 317 -168 q 361 -51 361 -149 z "},"è":{"ha":729,"x_min":68,"x_max":675,"o":"m 158 1013 l 292 1013 l 439 828 l 344 828 l 158 1013 m 69 372 q 86 569 69 494 q 147 681 103 643 q 244 731 190 719 q 383 743 297 743 q 511 736 468 743 q 596 704 554 729 q 656 625 638 679 q 674 482 674 571 q 483 313 674 313 l 172 313 q 201 139 172 183 q 313 96 231 96 q 660 110 565 96 l 660 32 q 313 -7 522 -7 q 121 74 172 -7 q 69 372 69 154 m 172 414 l 483 414 q 571 482 571 414 q 539 614 571 589 q 393 640 508 640 q 222 611 250 640 q 178 519 183 569 q 172 414 172 469 z "},"é":{"ha":729,"x_min":68,"x_max":675,"o":"m 331 828 l 478 1013 l 611 1013 l 425 828 l 331 828 m 69 372 q 86 569 69 494 q 147 681 103 643 q 244 731 190 719 q 383 743 297 743 q 511 736 468 743 q 596 704 554 729 q 656 625 638 679 q 674 482 674 571 q 483 313 674 313 l 172 313 q 201 139 172 183 q 313 96 231 96 q 660 110 565 96 l 660 32 q 313 -7 522 -7 q 121 74 172 -7 q 69 372 69 154 m 172 414 l 483 414 q 571 482 571 414 q 539 614 571 589 q 393 640 508 640 q 222 611 250 640 q 178 519 183 569 q 172 414 172 469 z "},"ê":{"ha":729,"x_min":68,"x_max":675,"o":"m 178 828 l 340 1008 l 439 1008 l 583 828 l 485 828 l 386 926 l 278 828 l 178 828 m 69 372 q 86 569 69 494 q 147 681 103 643 q 244 731 190 719 q 383 743 297 743 q 511 736 468 743 q 596 704 554 729 q 656 625 638 679 q 674 482 674 571 q 483 313 674 313 l 172 313 q 201 139 172 183 q 313 96 231 96 q 660 110 565 96 l 660 32 q 313 -7 522 -7 q 121 74 172 -7 q 69 372 69 154 m 172 414 l 483 414 q 571 482 571 414 q 539 614 571 589 q 393 640 508 640 q 222 611 250 640 q 178 519 183 569 q 172 414 172 469 z "},"ë":{"ha":729,"x_min":68,"x_max":675,"o":"m 129 899 q 150 947 129 928 q 200 968 171 968 q 250 947 229 968 q 269 899 269 928 q 250 849 269 869 q 200 828 229 828 q 150 849 171 828 q 129 899 129 869 m 483 899 q 504 947 483 928 q 554 968 525 968 q 603 947 583 968 q 624 899 624 928 q 603 849 624 869 q 554 828 583 828 q 504 849 525 828 q 483 899 483 869 m 69 372 q 86 569 69 494 q 147 681 103 643 q 244 731 190 719 q 383 743 297 743 q 511 736 468 743 q 596 704 554 729 q 656 625 638 679 q 674 482 674 571 q 483 313 674 313 l 172 313 q 201 139 172 183 q 313 96 231 96 q 660 110 565 96 l 660 32 q 313 -7 522 -7 q 121 74 172 -7 q 69 372 69 154 m 172 414 l 483 414 q 571 482 571 414 q 539 614 571 589 q 393 640 508 640 q 222 611 250 640 q 178 519 183 569 q 172 414 172 469 z "},"ì":{"ha":269,"x_min":-97,"x_max":186,"o":"m -97 1013 l 33 1013 l 183 828 l 86 828 l -97 1013 m 83 0 l 83 738 l 186 738 l 186 0 l 83 0 z "},"í":{"ha":269,"x_min":83,"x_max":367,"o":"m 86 828 l 236 1013 l 367 1013 l 183 828 l 86 828 m 83 0 l 83 738 l 186 738 l 186 0 l 83 0 z "},"î":{"ha":269,"x_min":-68,"x_max":338,"o":"m -68 828 l 94 1008 l 193 1008 l 338 828 l 239 828 l 140 926 l 32 828 l -68 828 m 83 0 l 83 738 l 186 738 l 186 0 l 83 0 z "},"ï":{"ha":269,"x_min":-112,"x_max":383,"o":"m -112 899 q -92 947 -112 928 q -42 968 -71 968 q 8 947 -12 968 q 28 899 28 928 q 8 849 28 869 q -42 828 -12 828 q -92 849 -71 828 q -112 899 -112 869 m 242 899 q 263 947 242 928 q 313 968 283 968 q 361 947 342 968 q 382 899 382 928 q 361 849 382 869 q 313 828 342 828 q 263 849 283 828 q 242 899 242 869 m 83 0 l 83 738 l 186 738 l 186 0 l 83 0 z "},"ð":{"ha":747,"x_min":56,"x_max":692,"o":"m 110 86 q 56 364 56 174 q 111 644 56 553 q 303 738 168 738 l 442 738 q 539 717 519 738 q 436 900 504 832 l 235 819 l 201 903 l 353 964 q 199 997 289 997 l 172 997 l 172 1088 q 463 1006 356 1088 l 626 1071 l 661 988 l 535 938 q 692 367 692 744 q 626 85 692 169 q 442 0 561 0 l 303 0 q 110 86 164 0 m 176 536 q 158 376 158 476 q 169 222 158 276 q 201 142 179 167 q 244 111 224 118 q 303 106 267 106 l 442 106 q 557 169 525 106 q 589 379 589 235 q 558 579 589 524 q 442 635 529 635 l 303 635 q 224 617 253 635 q 176 536 194 597 z "},"ñ":{"ha":756,"x_min":83,"x_max":686,"o":"m 464 931 q 589 981 496 931 l 619 922 q 586 894 615 919 q 465 835 511 835 q 379 858 424 835 q 308 882 335 882 q 264 875 283 882 q 219 853 243 867 q 179 833 197 840 l 150 890 q 206 936 188 921 q 256 964 225 950 q 319 978 289 979 q 400 953 353 976 q 456 931 446 931 l 464 931 m 83 0 l 83 738 l 156 738 l 186 651 q 217 669 190 653 q 250 688 243 685 q 279 703 256 690 q 313 719 303 717 q 344 731 322 722 q 381 742 367 739 q 458 750 425 750 q 625 681 564 750 q 686 514 686 611 l 686 0 l 583 0 l 583 514 q 549 614 583 579 q 460 647 514 647 q 358 636 406 647 q 283 614 311 625 q 186 568 254 601 l 186 0 l 83 0 z "},"ò":{"ha":789,"x_min":69,"x_max":719,"o":"m 175 1013 l 308 1013 l 456 828 l 361 828 l 175 1013 m 140 75 q 69 369 69 157 q 140 664 69 582 q 396 744 211 744 q 650 661 581 744 q 719 365 719 579 q 650 72 719 151 q 396 -7 581 -7 q 140 75 211 -7 m 181 489 q 172 353 172 438 q 186 214 172 268 q 231 135 199 160 q 297 103 264 110 q 394 96 332 96 q 494 103 458 96 q 561 136 529 110 q 604 214 592 161 q 617 363 617 268 q 606 514 617 457 q 565 600 596 571 q 500 635 535 628 q 403 642 464 642 q 311 638 342 642 q 250 618 281 633 q 206 572 219 603 q 181 489 190 542 z "},"ó":{"ha":789,"x_min":69,"x_max":719,"o":"m 347 828 l 494 1013 l 628 1013 l 442 828 l 347 828 m 140 75 q 69 369 69 157 q 140 664 69 582 q 396 744 211 744 q 650 661 581 744 q 719 365 719 579 q 650 72 719 151 q 396 -7 581 -7 q 140 75 211 -7 m 181 489 q 172 353 172 438 q 186 214 172 268 q 231 135 199 160 q 297 103 264 110 q 394 96 332 96 q 494 103 458 96 q 561 136 529 110 q 604 214 592 161 q 617 363 617 268 q 606 514 617 457 q 565 600 596 571 q 500 635 535 628 q 403 642 464 642 q 311 638 342 642 q 250 618 281 633 q 206 572 219 603 q 181 489 190 542 z "},"ô":{"ha":789,"x_min":69,"x_max":719,"o":"m 199 828 l 361 1008 l 460 1008 l 604 828 l 506 828 l 407 926 l 299 828 l 199 828 m 140 75 q 69 369 69 157 q 140 664 69 582 q 396 744 211 744 q 650 661 581 744 q 719 365 719 579 q 650 72 719 151 q 396 -7 581 -7 q 140 75 211 -7 m 181 489 q 172 353 172 438 q 186 214 172 268 q 231 135 199 160 q 297 103 264 110 q 394 96 332 96 q 494 103 458 96 q 561 136 529 110 q 604 214 592 161 q 617 363 617 268 q 606 514 617 457 q 565 600 596 571 q 500 635 535 628 q 403 642 464 642 q 311 638 342 642 q 250 618 281 633 q 206 572 219 603 q 181 489 190 542 z "},"õ":{"ha":789,"x_min":69,"x_max":719,"o":"m 486 925 q 611 975 518 925 l 642 917 q 608 889 638 914 q 488 829 533 829 q 401 853 446 829 q 331 876 357 876 q 286 869 306 876 q 242 847 265 861 q 201 828 219 835 l 172 885 q 228 931 210 915 q 278 958 247 944 q 342 972 311 974 q 422 947 375 971 q 478 925 468 925 l 486 925 m 140 75 q 69 369 69 157 q 140 664 69 582 q 396 744 211 744 q 650 661 581 744 q 719 365 719 579 q 650 72 719 151 q 396 -7 581 -7 q 140 75 211 -7 m 181 489 q 172 353 172 438 q 186 214 172 268 q 231 135 199 160 q 297 103 264 110 q 394 96 332 96 q 494 103 458 96 q 561 136 529 110 q 604 214 592 161 q 617 363 617 268 q 606 514 617 457 q 565 600 596 571 q 500 635 535 628 q 403 642 464 642 q 311 638 342 642 q 250 618 281 633 q 206 572 219 603 q 181 489 190 542 z "},"ö":{"ha":789,"x_min":69,"x_max":719,"o":"m 149 899 q 169 947 149 928 q 219 968 190 968 q 269 947 249 968 q 289 899 289 928 q 269 849 289 869 q 219 828 249 828 q 169 849 190 828 q 149 899 149 869 m 503 899 q 524 947 503 928 q 574 968 544 968 q 622 947 603 968 q 643 899 643 928 q 622 849 643 869 q 574 828 603 828 q 524 849 544 828 q 503 899 503 869 m 140 75 q 69 369 69 157 q 140 664 69 582 q 396 744 211 744 q 650 661 581 744 q 719 365 719 579 q 650 72 719 151 q 396 -7 581 -7 q 140 75 211 -7 m 181 489 q 172 353 172 438 q 186 214 172 268 q 231 135 199 160 q 297 103 264 110 q 394 96 332 96 q 494 103 458 96 q 561 136 529 110 q 604 214 592 161 q 617 363 617 268 q 606 514 617 457 q 565 600 596 571 q 500 635 535 628 q 403 642 464 642 q 311 638 342 642 q 250 618 281 633 q 206 572 219 603 q 181 489 190 542 z "},"ø":{"ha":789,"x_min":69,"x_max":719,"o":"m 132 85 q 69 372 69 164 q 140 664 69 582 q 394 744 211 744 q 590 710 522 744 l 611 738 l 703 738 l 649 664 q 719 367 719 582 q 650 72 719 151 q 394 -7 581 -7 q 183 38 256 -7 l 156 0 l 71 0 l 132 85 m 181 489 q 172 336 172 438 q 200 176 172 236 l 529 625 q 415 642 489 642 q 311 638 342 642 q 250 618 281 633 q 206 572 219 603 q 181 489 190 542 m 246 122 q 372 96 286 96 q 494 103 458 96 q 561 136 529 110 q 604 214 592 161 q 617 358 617 268 q 583 576 617 518 l 246 122 z "},"ù":{"ha":756,"x_min":69,"x_max":672,"o":"m 153 1013 l 283 1013 l 433 828 l 336 828 l 153 1013 m 69 224 l 69 738 l 172 738 l 172 224 q 207 125 172 158 q 296 90 242 90 q 397 101 350 90 q 472 125 444 113 q 569 169 501 136 l 569 738 l 672 738 l 672 0 l 600 0 l 569 86 q 539 69 565 85 q 506 50 513 53 q 476 33 500 47 q 443 18 453 21 q 411 7 433 15 q 375 -4 389 -1 q 297 -12 331 -12 q 131 57 192 -12 q 69 224 69 126 z "},"ú":{"ha":756,"x_min":69,"x_max":672,"o":"m 322 828 l 472 1013 l 603 1013 l 419 828 l 322 828 m 69 224 l 69 738 l 172 738 l 172 224 q 207 125 172 158 q 296 90 242 90 q 397 101 350 90 q 472 125 444 113 q 569 169 501 136 l 569 738 l 672 738 l 672 0 l 600 0 l 569 86 q 539 69 565 85 q 506 50 513 53 q 476 33 500 47 q 443 18 453 21 q 411 7 433 15 q 375 -4 389 -1 q 297 -12 331 -12 q 131 57 192 -12 q 69 224 69 126 z "},"û":{"ha":756,"x_min":69,"x_max":672,"o":"m 168 828 l 331 1008 l 429 1008 l 574 828 l 475 828 l 376 926 l 268 828 l 168 828 m 69 224 l 69 738 l 172 738 l 172 224 q 207 125 172 158 q 296 90 242 90 q 397 101 350 90 q 472 125 444 113 q 569 169 501 136 l 569 738 l 672 738 l 672 0 l 600 0 l 569 86 q 539 69 565 85 q 506 50 513 53 q 476 33 500 47 q 443 18 453 21 q 411 7 433 15 q 375 -4 389 -1 q 297 -12 331 -12 q 131 57 192 -12 q 69 224 69 126 z "},"ü":{"ha":756,"x_min":69,"x_max":672,"o":"m 124 899 q 144 947 124 928 q 194 968 165 968 q 244 947 224 968 q 264 899 264 928 q 244 849 264 869 q 194 828 224 828 q 144 849 165 828 q 124 899 124 869 m 478 899 q 499 947 478 928 q 549 968 519 968 q 597 947 578 968 q 618 899 618 928 q 597 849 618 869 q 549 828 578 828 q 499 849 519 828 q 478 899 478 869 m 69 224 l 69 738 l 172 738 l 172 224 q 207 125 172 158 q 296 90 242 90 q 397 101 350 90 q 472 125 444 113 q 569 169 501 136 l 569 738 l 672 738 l 672 0 l 600 0 l 569 86 q 539 69 565 85 q 506 50 513 53 q 476 33 500 47 q 443 18 453 21 q 411 7 433 15 q 375 -4 389 -1 q 297 -12 331 -12 q 131 57 192 -12 q 69 224 69 126 z "},"ý":{"ha":769,"x_min":29,"x_max":739,"o":"m 336 828 l 485 1013 l 617 1013 l 432 828 l 336 828 m 29 738 l 142 738 l 321 161 q 339 125 331 133 q 356 111 349 117 q 369 106 363 107 q 383 103 376 104 q 394 103 389 103 q 413 107 407 106 l 624 738 l 739 738 l 414 -233 l 310 -375 l 246 -375 l 376 0 q 210 153 257 0 l 29 738 z "},"þ":{"ha":769,"x_min":97,"x_max":714,"o":"m 97 -375 l 97 1086 l 200 1086 l 200 654 q 322 715 238 681 q 474 750 408 750 q 589 718 539 750 q 664 631 638 686 q 714 371 714 525 q 650 67 714 157 q 578 8 624 32 q 475 -14 532 -14 q 340 0 418 -14 q 200 40 263 15 l 200 -375 l 97 -375 m 471 89 q 575 150 540 89 q 611 358 611 213 q 574 575 611 503 q 471 647 536 647 q 200 578 363 640 l 200 124 q 311 100 265 104 q 375 94 357 96 q 471 89 447 89 z "},"ÿ":{"ha":769,"x_min":29,"x_max":739,"o":"m 157 849 q 136 892 136 871 q 142 925 136 913 q 157 949 149 939 q 207 968 178 968 q 257 947 236 968 q 278 899 278 928 q 257 849 278 869 q 207 828 236 828 q 157 849 178 828 m 492 899 q 511 947 492 928 q 561 968 532 968 q 611 947 592 968 q 631 899 631 928 q 611 849 631 869 q 561 828 590 828 q 513 849 533 828 q 492 899 492 869 m 29 738 l 142 738 l 321 161 q 339 125 331 133 q 356 111 349 117 q 369 106 363 107 q 383 103 376 104 q 394 103 389 103 q 413 107 407 106 l 624 738 l 739 738 l 414 -233 l 310 -375 l 246 -375 l 376 0 q 210 153 257 0 l 29 738 z "},"Ā":{"ha":931,"x_min":63,"x_max":896,"o":"m 285 1107 l 285 1194 l 690 1194 l 690 1107 l 285 1107 m 63 0 l 436 1017 l 539 1017 l 896 0 l 774 0 l 686 283 l 281 283 l 189 0 l 63 0 m 318 386 l 650 386 l 486 860 l 318 386 z "},"ā":{"ha":721,"x_min":56,"x_max":651,"o":"m 176 835 l 176 922 l 582 922 l 582 835 l 176 835 m 79 710 q 443 751 229 751 q 592 699 533 751 q 651 538 651 646 l 651 0 l 575 0 l 549 89 l 528 79 q 240 -8 347 -8 q 108 40 161 -8 q 56 175 56 89 l 56 260 q 106 394 56 344 q 240 444 154 444 l 472 444 l 549 444 q 550 514 550 490 q 549 538 550 536 q 429 651 549 651 q 79 635 310 651 l 79 710 m 158 182 q 240 94 158 94 q 367 113 290 94 q 497 147 444 131 l 549 165 l 549 364 l 240 342 q 178 313 199 338 q 158 251 158 288 l 158 182 z "},"Ă":{"ha":931,"x_min":63,"x_max":896,"o":"m 328 1265 l 393 1265 q 422 1200 393 1226 q 489 1172 450 1172 q 554 1197 526 1172 q 582 1265 582 1222 l 647 1265 q 597 1150 647 1192 q 486 1107 549 1107 q 376 1150 425 1107 q 328 1265 328 1194 m 63 0 l 436 1017 l 539 1017 l 896 0 l 774 0 l 686 283 l 281 283 l 189 0 l 63 0 m 318 386 l 650 386 l 486 860 l 318 386 z "},"ă":{"ha":721,"x_min":56,"x_max":651,"o":"m 219 993 l 285 993 q 314 928 285 954 q 381 900 342 900 q 446 925 418 900 q 474 993 474 950 l 539 993 q 489 878 539 919 q 378 835 440 835 q 268 878 317 835 q 219 993 219 922 m 79 710 q 443 751 229 751 q 592 699 533 751 q 651 538 651 646 l 651 0 l 575 0 l 549 89 l 528 79 q 240 -8 347 -8 q 108 40 161 -8 q 56 175 56 89 l 56 260 q 106 394 56 344 q 240 444 154 444 l 472 444 l 549 444 q 550 514 550 490 q 549 538 550 536 q 429 651 549 651 q 79 635 310 651 l 79 710 m 158 182 q 240 94 158 94 q 367 113 290 94 q 497 147 444 131 l 549 165 l 549 364 l 240 342 q 178 313 199 338 q 158 251 158 288 l 158 182 z "},"Ą":{"ha":931,"x_min":63,"x_max":896,"o":"m 783 -115 q 869 -168 783 -165 l 869 -251 q 833 -253 856 -253 q 776 -240 811 -253 q 721 -197 742 -228 q 696 -128 696 -162 q 725 -60 696 -94 q 811 0 753 -25 l 865 0 q 783 -115 783 -68 m 63 0 l 436 1017 l 539 1017 l 896 0 l 774 0 l 686 283 l 281 283 l 189 0 l 63 0 m 318 386 l 650 386 l 486 860 l 318 386 z "},"ą":{"ha":721,"x_min":56,"x_max":651,"o":"m 558 -115 q 646 -168 558 -165 l 646 -251 q 610 -253 632 -253 q 553 -240 588 -253 q 496 -197 517 -228 q 471 -128 471 -162 q 500 -60 471 -94 q 588 0 528 -25 l 642 0 q 558 -115 558 -68 m 79 710 q 443 751 229 751 q 592 699 533 751 q 651 538 651 646 l 651 0 l 575 0 l 549 89 l 528 79 q 240 -8 347 -8 q 108 40 161 -8 q 56 175 56 89 l 56 260 q 106 394 56 344 q 240 444 154 444 l 472 444 l 549 444 q 550 514 550 490 q 549 538 550 536 q 429 651 549 651 q 79 635 310 651 l 79 710 m 158 182 q 240 94 158 94 q 367 113 290 94 q 497 147 444 131 l 549 165 l 549 364 l 240 342 q 178 313 199 338 q 158 251 158 288 l 158 182 z "},"Ć":{"ha":803,"x_min":75,"x_max":754,"o":"m 408 1111 l 558 1296 l 689 1296 l 506 1111 l 408 1111 m 754 911 q 414 925 504 925 q 275 892 325 925 q 203 767 226 857 q 179 508 179 678 q 415 94 179 94 l 754 104 l 754 22 q 415 -8 590 -8 q 76 511 76 -8 q 147 901 76 775 q 415 1028 219 1028 q 754 993 567 1028 l 754 911 z "},"ć":{"ha":694,"x_min":68,"x_max":639,"o":"m 325 831 l 474 1015 l 606 1015 l 421 831 l 325 831 m 69 369 q 86 564 69 486 q 139 678 104 640 q 214 731 174 717 q 344 744 254 744 q 629 708 435 744 l 629 633 q 356 642 436 642 q 254 635 275 642 q 211 603 232 626 q 172 381 172 554 q 203 153 172 208 q 313 96 235 96 q 586 107 443 96 l 639 111 l 639 33 q 313 -7 506 -4 q 217 7 256 -7 q 142 58 176 21 q 88 175 106 97 q 69 369 69 253 z "},"Ĉ":{"ha":803,"x_min":75,"x_max":754,"o":"m 254 1111 l 417 1292 l 515 1292 l 660 1111 l 561 1111 l 463 1210 l 354 1111 l 254 1111 m 754 911 q 414 925 504 925 q 275 892 325 925 q 203 767 226 857 q 179 508 179 678 q 415 94 179 94 l 754 104 l 754 22 q 415 -8 590 -8 q 76 511 76 -8 q 147 901 76 775 q 415 1028 219 1028 q 754 993 567 1028 l 754 911 z "},"ĉ":{"ha":694,"x_min":68,"x_max":639,"o":"m 190 831 l 353 1011 l 451 1011 l 596 831 l 497 831 l 399 929 l 290 831 l 190 831 m 69 369 q 86 564 69 486 q 139 678 104 640 q 214 731 174 717 q 344 744 254 744 q 629 708 435 744 l 629 633 q 356 642 436 642 q 254 635 275 642 q 211 603 232 626 q 172 381 172 554 q 203 153 172 208 q 313 96 235 96 q 586 107 443 96 l 639 111 l 639 33 q 313 -7 506 -4 q 217 7 256 -7 q 142 58 176 21 q 88 175 106 97 q 69 369 69 253 z "},"Ċ":{"ha":803,"x_min":75,"x_max":754,"o":"m 403 1146 l 403 1221 q 436 1256 403 1256 l 506 1256 q 538 1221 538 1256 l 538 1146 q 506 1114 538 1114 l 436 1114 q 403 1146 403 1114 m 754 911 q 414 925 504 925 q 275 892 325 925 q 203 767 226 857 q 179 508 179 678 q 415 94 179 94 l 754 104 l 754 22 q 415 -8 590 -8 q 76 511 76 -8 q 147 901 76 775 q 415 1028 219 1028 q 754 993 567 1028 l 754 911 z "},"ċ":{"ha":694,"x_min":68,"x_max":639,"o":"m 340 865 l 340 940 q 374 975 340 975 l 443 975 q 475 940 475 975 l 475 865 q 443 833 475 833 l 374 833 q 340 865 340 833 m 69 369 q 86 564 69 486 q 139 678 104 640 q 214 731 174 717 q 344 744 254 744 q 629 708 435 744 l 629 633 q 356 642 436 642 q 254 635 275 642 q 211 603 232 626 q 172 381 172 554 q 203 153 172 208 q 313 96 235 96 q 586 107 443 96 l 639 111 l 639 33 q 313 -7 506 -4 q 217 7 256 -7 q 142 58 176 21 q 88 175 106 97 q 69 369 69 253 z "},"Č":{"ha":803,"x_min":75,"x_max":754,"o":"m 261 1292 l 361 1292 l 472 1193 l 568 1292 l 667 1292 l 522 1111 l 424 1111 l 261 1292 m 754 911 q 414 925 504 925 q 275 892 325 925 q 203 767 226 857 q 179 508 179 678 q 415 94 179 94 l 754 104 l 754 22 q 415 -8 590 -8 q 76 511 76 -8 q 147 901 76 775 q 415 1028 219 1028 q 754 993 567 1028 l 754 911 z "},"č":{"ha":694,"x_min":68,"x_max":639,"o":"m 169 1011 l 269 1011 l 381 913 l 476 1011 l 575 1011 l 431 831 l 332 831 l 169 1011 m 69 369 q 86 564 69 486 q 139 678 104 640 q 214 731 174 717 q 344 744 254 744 q 629 708 435 744 l 629 633 q 356 642 436 642 q 254 635 275 642 q 211 603 232 626 q 172 381 172 554 q 203 153 172 208 q 313 96 235 96 q 586 107 443 96 l 639 111 l 639 33 q 313 -7 506 -4 q 217 7 256 -7 q 142 58 176 21 q 88 175 106 97 q 69 369 69 253 z "},"Ď":{"ha":913,"x_min":111,"x_max":850,"o":"m 239 1281 l 339 1281 l 450 1182 l 546 1281 l 644 1281 l 500 1100 l 401 1100 l 239 1281 m 111 0 l 111 1017 l 489 1017 q 647 983 579 1017 q 751 897 714 949 q 813 774 789 846 q 850 504 850 658 q 800 228 850 353 q 629 31 742 86 q 489 0 567 0 l 111 0 m 214 107 l 489 107 q 636 164 576 107 q 747 494 747 268 q 681 817 747 721 q 489 914 615 914 l 214 914 l 214 107 z "},"ď":{"ha":769,"x_min":69,"x_max":856,"o":"m 81 233 q 69 369 69 294 q 78 506 69 446 q 111 625 88 567 q 313 749 163 749 q 443 733 364 749 q 585 693 522 718 l 585 1090 l 686 1090 l 686 0 l 613 0 l 585 82 q 464 25 550 57 q 308 -8 376 -8 q 190 25 240 -8 q 115 117 140 58 q 81 233 90 174 m 172 365 q 313 94 172 94 q 585 158 428 94 l 585 610 q 313 646 446 646 q 206 586 240 646 q 172 365 172 526 m 856 1083 l 856 990 l 840 804 l 767 804 l 753 990 l 751 1083 l 856 1083 z "},"Đ":{"ha":913,"x_min":21,"x_max":850,"o":"m 21 481 l 21 556 l 111 556 l 111 1015 q 490 1017 111 1017 q 722 929 643 1017 q 826 729 803 842 q 850 522 850 614 q 839 364 850 432 q 800 228 828 294 q 733 111 774 161 q 631 31 693 61 q 490 0 568 0 l 111 0 l 111 481 l 21 481 m 214 107 l 490 107 q 681 219 619 107 q 743 506 743 331 q 490 907 743 907 l 214 906 l 214 556 l 407 556 l 407 481 l 214 481 l 214 107 z "},"đ":{"ha":769,"x_min":69,"x_max":786,"o":"m 81 233 q 69 369 69 294 q 78 506 69 446 q 111 625 88 567 q 313 749 163 749 q 443 733 364 749 q 585 693 522 718 l 585 856 l 415 856 l 415 931 l 585 931 l 585 1090 l 686 1090 l 686 931 l 786 931 l 786 856 l 686 856 l 686 0 l 613 0 l 585 82 q 464 25 550 57 q 308 -8 376 -8 q 190 25 240 -8 q 115 117 140 58 q 81 233 90 174 m 172 365 q 313 94 172 94 q 585 158 428 94 l 585 610 q 313 646 446 646 q 206 586 240 646 q 172 365 172 526 z "},"Ē":{"ha":788,"x_min":110,"x_max":725,"o":"m 240 1104 l 240 1192 l 646 1192 l 646 1104 l 240 1104 m 111 836 q 158 975 111 932 q 278 1017 207 1017 l 286 1017 l 725 994 l 725 914 l 286 914 q 236 900 253 914 q 217 875 218 888 q 214 836 214 861 l 214 558 l 669 544 l 669 463 l 214 449 l 214 171 q 229 119 214 136 q 258 100 244 103 q 300 99 272 99 l 725 99 l 725 19 l 300 -4 l 279 -4 q 111 171 111 -4 l 111 836 z "},"ē":{"ha":729,"x_min":68,"x_max":675,"o":"m 179 826 l 179 914 l 585 914 l 585 826 l 179 826 m 69 372 q 86 569 69 494 q 147 681 103 643 q 244 731 190 719 q 383 743 297 743 q 511 736 468 743 q 596 704 554 729 q 656 625 638 679 q 674 482 674 571 q 483 313 674 313 l 172 313 q 201 139 172 183 q 313 96 231 96 q 660 110 565 96 l 660 32 q 313 -7 522 -7 q 121 74 172 -7 q 69 372 69 154 m 172 414 l 483 414 q 571 482 571 414 q 539 614 571 589 q 393 640 508 640 q 222 611 250 640 q 178 519 183 569 q 172 414 172 469 z "},"Ė":{"ha":788,"x_min":110,"x_max":725,"o":"m 378 1135 l 378 1210 q 411 1244 378 1244 l 481 1244 q 513 1210 513 1244 l 513 1135 q 481 1103 513 1103 l 411 1103 q 378 1135 378 1103 m 111 836 q 158 975 111 932 q 278 1017 207 1017 l 286 1017 l 725 994 l 725 914 l 286 914 q 236 900 253 914 q 217 875 218 888 q 214 836 214 861 l 214 558 l 669 544 l 669 463 l 214 449 l 214 171 q 229 119 214 136 q 258 100 244 103 q 300 99 272 99 l 725 99 l 725 19 l 300 -4 l 279 -4 q 111 171 111 -4 l 111 836 z "},"ė":{"ha":729,"x_min":68,"x_max":675,"o":"m 311 860 l 311 935 q 344 969 311 969 l 414 969 q 439 960 429 969 q 447 935 447 950 l 447 860 q 414 828 447 828 l 344 828 q 321 836 331 828 q 311 860 311 846 m 69 372 q 86 569 69 494 q 147 681 103 643 q 244 731 190 719 q 383 743 297 743 q 511 736 468 743 q 596 704 554 729 q 656 625 638 679 q 674 482 674 571 q 483 313 674 313 l 172 313 q 201 139 172 183 q 313 96 231 96 q 660 110 565 96 l 660 32 q 313 -7 522 -7 q 121 74 172 -7 q 69 372 69 154 m 172 414 l 483 414 q 571 482 571 414 q 539 614 571 589 q 393 640 508 640 q 222 611 250 640 q 178 519 183 569 q 172 414 172 469 z "},"Ę":{"ha":788,"x_min":110,"x_max":729,"o":"m 643 -96 q 729 -149 643 -147 l 729 -232 q 693 -235 715 -235 q 636 -222 671 -235 q 579 -179 600 -208 q 554 -110 554 -143 q 583 -42 554 -76 q 671 19 611 -7 l 725 19 q 643 -96 643 -50 m 111 836 q 158 975 111 932 q 278 1017 207 1017 l 286 1017 l 725 994 l 725 914 l 286 914 q 236 900 253 914 q 217 875 218 888 q 214 836 214 861 l 214 558 l 669 544 l 669 463 l 214 449 l 214 171 q 229 119 214 136 q 258 100 244 103 q 300 99 272 99 l 725 99 l 725 19 l 300 -4 l 279 -4 q 111 171 111 -4 l 111 836 z "},"ę":{"ha":729,"x_min":68,"x_max":675,"o":"m 660 32 q 576 -83 576 -35 q 593 -117 576 -100 q 664 -136 610 -135 l 664 -219 q 628 -222 650 -222 q 569 -208 606 -222 q 514 -167 535 -196 q 489 -97 489 -131 q 517 -28 489 -62 q 606 32 546 7 l 660 32 m 69 372 q 86 569 69 494 q 147 681 103 643 q 244 731 190 719 q 383 743 297 743 q 511 736 468 743 q 596 704 554 729 q 656 625 638 679 q 674 482 674 571 q 483 313 674 313 l 172 313 q 201 139 172 183 q 313 96 231 96 q 660 110 565 96 l 660 32 q 313 -7 522 -7 q 121 74 172 -7 q 69 372 69 154 m 172 414 l 483 414 q 571 482 571 414 q 539 614 571 589 q 393 640 508 640 q 222 611 250 640 q 178 519 183 569 q 172 414 172 469 z "},"Ě":{"ha":788,"x_min":110,"x_max":725,"o":"m 235 1281 l 335 1281 l 446 1182 l 542 1281 l 640 1281 l 496 1100 l 397 1100 l 235 1281 m 111 836 q 158 975 111 932 q 278 1017 207 1017 l 286 1017 l 725 994 l 725 914 l 286 914 q 236 900 253 914 q 217 875 218 888 q 214 836 214 861 l 214 558 l 669 544 l 669 463 l 214 449 l 214 171 q 229 119 214 136 q 258 100 244 103 q 300 99 272 99 l 725 99 l 725 19 l 300 -4 l 279 -4 q 111 171 111 -4 l 111 836 z "},"ě":{"ha":729,"x_min":68,"x_max":675,"o":"m 181 1001 l 281 1001 l 392 903 l 488 1001 l 586 1001 l 442 821 l 343 821 l 181 1001 m 69 372 q 86 569 69 494 q 147 681 103 643 q 244 731 190 719 q 383 743 297 743 q 511 736 468 743 q 596 704 554 729 q 656 625 638 679 q 674 482 674 571 q 483 313 674 313 l 172 313 q 201 139 172 183 q 313 96 231 96 q 660 110 565 96 l 660 32 q 313 -7 522 -7 q 121 74 172 -7 q 69 372 69 154 m 172 414 l 483 414 q 571 482 571 414 q 539 614 571 589 q 393 640 508 640 q 222 611 250 640 q 178 519 183 569 q 172 414 172 469 z "},"Ĝ":{"ha":853,"x_min":76,"x_max":776,"o":"m 264 1111 l 426 1292 l 525 1292 l 669 1111 l 571 1111 l 472 1210 l 364 1111 l 264 1111 m 83 344 q 76 522 76 417 q 89 714 76 629 q 135 872 101 797 q 401 1028 203 1028 q 569 1017 456 1028 q 754 990 682 1004 l 754 908 q 685 913 742 908 q 583 919 628 917 q 401 925 494 925 q 225 831 269 925 q 179 507 179 735 q 229 188 179 279 q 407 94 279 96 q 521 111 454 94 q 631 142 588 126 l 674 158 l 674 436 l 440 436 l 440 506 q 682 540 567 540 q 776 536 726 540 l 776 0 l 699 0 l 676 68 q 407 -7 540 -7 l 399 -7 q 261 19 321 -7 q 167 89 201 46 q 110 203 131 133 q 83 344 89 274 z "},"ĝ":{"ha":769,"x_min":63,"x_max":742,"o":"m 179 829 l 342 1010 l 440 1010 l 585 829 l 486 829 l 388 928 l 279 829 l 179 829 m 67 160 q 88 233 67 199 q 149 275 108 267 q 68 467 68 326 q 131 674 68 607 q 308 740 194 740 l 742 740 l 742 663 l 629 638 q 639 619 631 635 q 651 597 647 606 q 661 569 656 588 q 672 488 672 536 q 664 399 672 439 q 632 311 654 358 q 561 236 610 265 q 443 207 513 207 l 226 207 q 169 165 169 207 q 226 118 169 118 l 522 118 q 654 67 607 118 q 701 -74 701 14 l 701 -161 q 667 -297 701 -236 q 601 -354 646 -333 q 493 -375 557 -375 l 285 -375 q 122 -321 183 -375 q 63 -161 63 -267 l 63 -43 l 118 47 q 67 160 67 83 m 228 15 q 165 26 190 15 l 165 -161 q 285 -272 165 -272 l 493 -272 q 599 -161 599 -272 l 599 -81 q 581 -6 599 -28 q 504 15 561 15 l 228 15 m 171 478 q 189 381 171 419 q 299 310 222 310 l 435 310 q 539 361 510 310 q 569 468 569 411 q 539 594 569 551 q 433 638 510 638 l 308 638 q 171 478 171 638 z "},"Ğ":{"ha":853,"x_min":76,"x_max":776,"o":"m 307 1269 l 372 1269 q 400 1203 372 1231 q 467 1176 429 1176 q 533 1201 506 1176 q 561 1269 561 1226 l 626 1269 q 578 1153 626 1196 q 467 1111 528 1111 q 356 1156 404 1111 q 307 1269 307 1199 m 83 344 q 76 522 76 417 q 89 714 76 629 q 135 872 101 797 q 401 1028 203 1028 q 569 1017 456 1028 q 754 990 682 1004 l 754 908 q 685 913 742 908 q 583 919 628 917 q 401 925 494 925 q 225 831 269 925 q 179 507 179 735 q 229 188 179 279 q 407 94 279 96 q 521 111 454 94 q 631 142 588 126 l 674 158 l 674 436 l 440 436 l 440 506 q 682 540 567 540 q 776 536 726 540 l 776 0 l 699 0 l 676 68 q 407 -7 540 -7 l 399 -7 q 261 19 321 -7 q 167 89 201 46 q 110 203 131 133 q 83 344 89 274 z "},"ğ":{"ha":769,"x_min":63,"x_max":742,"o":"m 221 988 l 286 988 q 314 922 286 949 q 381 894 343 894 q 447 919 419 894 q 475 988 475 944 l 540 988 q 492 872 540 914 q 381 829 442 829 q 269 872 318 829 q 221 988 221 917 m 67 160 q 88 233 67 199 q 149 275 108 267 q 68 467 68 326 q 131 674 68 607 q 308 740 194 740 l 742 740 l 742 663 l 629 638 q 639 619 631 635 q 651 597 647 606 q 661 569 656 588 q 672 488 672 536 q 664 399 672 439 q 632 311 654 358 q 561 236 610 265 q 443 207 513 207 l 226 207 q 169 165 169 207 q 226 118 169 118 l 522 118 q 654 67 607 118 q 701 -74 701 14 l 701 -161 q 667 -297 701 -236 q 601 -354 646 -333 q 493 -375 557 -375 l 285 -375 q 122 -321 183 -375 q 63 -161 63 -267 l 63 -43 l 118 47 q 67 160 67 83 m 228 15 q 165 26 190 15 l 165 -161 q 285 -272 165 -272 l 493 -272 q 599 -161 599 -272 l 599 -81 q 581 -6 599 -28 q 504 15 561 15 l 228 15 m 171 478 q 189 381 171 419 q 299 310 222 310 l 435 310 q 539 361 510 310 q 569 468 569 411 q 539 594 569 551 q 433 638 510 638 l 308 638 q 171 478 171 638 z "},"Ġ":{"ha":853,"x_min":76,"x_max":776,"o":"m 388 1143 l 388 1218 q 421 1253 388 1253 l 490 1253 q 522 1218 522 1253 l 522 1143 q 490 1111 522 1111 l 421 1111 q 388 1143 388 1111 m 83 344 q 76 522 76 417 q 89 714 76 629 q 135 872 101 797 q 401 1028 203 1028 q 569 1017 456 1028 q 754 990 682 1004 l 754 908 q 685 913 742 908 q 583 919 628 917 q 401 925 494 925 q 225 831 269 925 q 179 507 179 735 q 229 188 179 279 q 407 94 279 96 q 521 111 454 94 q 631 142 588 126 l 674 158 l 674 436 l 440 436 l 440 506 q 682 540 567 540 q 776 536 726 540 l 776 0 l 699 0 l 676 68 q 407 -7 540 -7 l 399 -7 q 261 19 321 -7 q 167 89 201 46 q 110 203 131 133 q 83 344 89 274 z "},"ġ":{"ha":769,"x_min":63,"x_max":742,"o":"m 318 864 l 318 939 q 351 974 318 974 l 421 974 q 453 939 453 974 l 453 864 q 421 832 453 832 l 351 832 q 318 864 318 832 m 67 160 q 88 233 67 199 q 149 275 108 267 q 68 467 68 326 q 131 674 68 607 q 308 740 194 740 l 742 740 l 742 663 l 629 638 q 639 619 631 635 q 651 597 647 606 q 661 569 656 588 q 672 488 672 536 q 664 399 672 439 q 632 311 654 358 q 561 236 610 265 q 443 207 513 207 l 226 207 q 169 165 169 207 q 226 118 169 118 l 522 118 q 654 67 607 118 q 701 -74 701 14 l 701 -161 q 667 -297 701 -236 q 601 -354 646 -333 q 493 -375 557 -375 l 285 -375 q 122 -321 183 -375 q 63 -161 63 -267 l 63 -43 l 118 47 q 67 160 67 83 m 228 15 q 165 26 190 15 l 165 -161 q 285 -272 165 -272 l 493 -272 q 599 -161 599 -272 l 599 -81 q 581 -6 599 -28 q 504 15 561 15 l 228 15 m 171 478 q 189 381 171 419 q 299 310 222 310 l 435 310 q 539 361 510 310 q 569 468 569 411 q 539 594 569 551 q 433 638 510 638 l 308 638 q 171 478 171 638 z "},"Ģ":{"ha":853,"x_min":76,"x_max":776,"o":"m 467 -336 q 436 -346 450 -343 q 414 -349 421 -349 q 390 -346 407 -349 l 390 -306 l 393 -306 q 429 -267 429 -306 l 429 -236 l 415 -236 q 383 -206 383 -236 l 383 -137 q 415 -104 383 -104 l 479 -104 q 508 -137 508 -104 l 508 -250 q 497 -306 508 -283 q 467 -336 485 -328 m 83 344 q 76 522 76 417 q 89 714 76 629 q 135 872 101 797 q 401 1028 203 1028 q 569 1017 456 1028 q 754 990 682 1004 l 754 908 q 685 913 742 908 q 583 919 628 917 q 401 925 494 925 q 225 831 269 925 q 179 507 179 735 q 229 188 179 279 q 407 94 279 96 q 521 111 454 94 q 631 142 588 126 l 674 158 l 674 436 l 440 436 l 440 506 q 682 540 567 540 q 776 536 726 540 l 776 0 l 699 0 l 676 68 q 407 -7 540 -7 l 399 -7 q 261 19 321 -7 q 167 89 201 46 q 110 203 131 133 q 83 344 89 274 z "},"ģ":{"ha":769,"x_min":63,"x_max":742,"o":"m 358 1056 q 392 1065 376 1063 q 413 1068 406 1068 q 436 1067 421 1068 l 436 1026 l 433 1026 q 397 988 397 1026 l 397 956 l 411 956 q 442 925 442 956 l 442 857 q 411 824 442 824 l 347 824 q 317 857 317 824 l 317 969 q 329 1025 317 1003 q 358 1056 342 1047 m 67 158 q 89 232 67 197 q 149 275 110 267 q 88 358 107 301 q 68 478 68 414 q 131 674 68 607 q 308 740 194 740 l 742 740 l 742 663 l 629 638 q 639 619 631 635 q 651 597 647 606 q 661 571 656 588 q 672 493 672 538 q 667 417 672 449 q 647 347 663 386 q 610 278 633 307 q 542 228 586 249 q 443 207 499 207 l 226 207 q 186 197 204 207 q 169 161 169 186 q 183 128 169 138 q 226 115 199 119 l 500 81 q 647 17 592 69 q 701 -115 701 -35 l 701 -161 q 646 -324 701 -268 q 493 -375 594 -375 l 285 -375 q 122 -321 183 -375 q 63 -161 63 -267 l 63 -43 l 118 47 q 67 158 67 83 m 165 -161 q 285 -272 165 -272 l 493 -272 q 590 -219 569 -272 q 599 -161 599 -196 l 599 -122 q 476 -17 599 -33 l 242 14 l 165 26 l 165 -161 m 171 478 q 189 381 171 418 q 299 310 222 310 l 435 310 q 565 424 540 310 q 569 460 569 446 q 539 596 569 554 q 433 638 510 638 l 308 638 q 171 478 171 638 z "},"Ĥ":{"ha":886,"x_min":111,"x_max":803,"o":"m 254 1107 l 417 1288 l 515 1288 l 660 1107 l 561 1107 l 463 1206 l 354 1107 l 254 1107 m 111 0 l 111 1017 l 214 1017 l 214 543 l 700 543 l 700 1017 l 803 1017 l 803 0 l 700 0 l 700 440 l 214 440 l 214 0 l 111 0 z "},"ĥ":{"ha":756,"x_min":-71,"x_max":686,"o":"m -71 1172 l 92 1353 l 190 1353 l 335 1172 l 236 1172 l 138 1271 l 29 1172 l -71 1172 m 83 0 l 83 1089 l 186 1089 l 186 651 q 217 669 190 653 q 250 688 243 685 q 279 703 256 690 q 313 719 303 717 q 344 731 322 722 q 381 742 367 739 q 458 750 425 750 q 625 681 564 750 q 686 514 686 611 l 686 0 l 583 0 l 583 514 q 550 614 583 581 q 461 647 515 647 q 358 636 406 647 q 283 614 311 625 q 186 568 254 601 l 186 0 l 83 0 z "},"Ħ":{"ha":914,"x_min":26,"x_max":885,"o":"m 26 717 l 26 792 l 111 792 l 111 1017 l 214 1017 l 214 792 l 700 792 l 700 1017 l 803 1017 l 803 792 l 885 792 l 885 717 l 803 717 l 803 0 l 700 0 l 700 440 l 214 440 l 214 0 l 111 0 l 111 717 l 26 717 m 214 543 l 700 543 l 700 717 l 214 717 l 214 543 z "},"ħ":{"ha":756,"x_min":-24,"x_max":688,"o":"m -24 847 l -24 922 l 83 922 l 83 1089 l 190 1089 l 190 922 l 376 922 l 376 847 l 190 847 l 190 651 q 468 750 363 750 l 472 750 l 482 750 q 631 683 575 750 q 686 517 686 615 l 686 0 l 579 0 l 579 513 q 547 614 576 579 q 447 650 517 650 q 190 568 349 644 l 190 0 l 83 0 l 83 847 l -24 847 z "},"Ĩ":{"ha":297,"x_min":-72,"x_max":397,"o":"m 242 1204 q 367 1254 274 1204 l 397 1196 q 364 1169 393 1193 q 243 1108 289 1108 q 157 1132 201 1108 q 86 1156 113 1156 q 42 1147 61 1156 q -3 1128 21 1140 q -43 1107 -25 1114 l -72 1164 q -17 1208 -35 1194 q 33 1239 3 1224 q 97 1251 65 1253 q 178 1228 131 1250 q 233 1204 224 1204 l 242 1204 m 111 0 l 111 1017 l 214 1017 l 214 0 l 111 0 z "},"ĩ":{"ha":269,"x_min":-100,"x_max":369,"o":"m 214 925 q 339 975 246 925 l 369 917 q 336 889 365 914 q 215 829 261 829 q 129 853 174 829 q 58 876 85 876 q 14 869 33 876 q -31 847 -7 861 q -71 828 -53 835 l -100 885 q -44 931 -62 915 q 6 958 -25 944 q 69 972 38 974 q 150 947 103 971 q 206 925 196 925 l 214 925 m 83 0 l 83 738 l 186 738 l 186 0 l 83 0 z "},"Ī":{"ha":297,"x_min":-40,"x_max":365,"o":"m -40 1107 l -40 1194 l 365 1194 l 365 1107 l -40 1107 m 111 0 l 111 1017 l 214 1017 l 214 0 l 111 0 z "},"ī":{"ha":269,"x_min":-68,"x_max":338,"o":"m -68 828 l -68 915 l 338 915 l 338 828 l -68 828 m 83 0 l 83 738 l 186 738 l 186 0 l 83 0 z "},"Į":{"ha":297,"x_min":22,"x_max":214,"o":"m 193 0 q 110 -115 110 -67 q 126 -150 110 -132 q 197 -168 143 -167 l 197 -251 q 161 -254 183 -254 q 103 -242 139 -254 q 47 -197 68 -228 q 22 -128 22 -162 q 50 -60 22 -94 q 139 0 79 -25 l 193 0 m 111 0 l 111 1017 l 214 1017 l 214 0 l 111 0 z "},"į":{"ha":274,"x_min":-3,"x_max":204,"o":"m 168 0 q 85 -115 85 -67 q 101 -150 85 -132 q 172 -168 118 -167 l 172 -251 q 136 -254 158 -254 q 78 -242 114 -254 q 22 -197 43 -228 q -3 -128 -3 -162 q 25 -60 -3 -94 q 114 0 54 -25 l 168 0 m 69 857 l 69 932 q 103 967 69 967 l 172 967 q 204 932 204 967 l 204 857 q 172 825 204 825 l 103 825 q 69 857 69 825 m 83 0 l 83 738 l 186 738 l 186 0 l 83 0 z "},"İ":{"ha":297,"x_min":93,"x_max":231,"o":"m 94 1139 l 94 1214 q 128 1249 94 1249 l 197 1249 q 222 1239 213 1249 q 231 1214 231 1229 l 231 1139 q 197 1107 231 1107 l 128 1107 q 104 1117 114 1107 q 94 1139 94 1125 m 111 0 l 111 1017 l 214 1017 l 214 0 l 111 0 z "},"ı":{"ha":269,"x_min":83,"x_max":186,"o":"m 83 0 l 83 738 l 186 738 l 186 0 l 83 0 z "},"Ĵ":{"ha":499,"x_min":49,"x_max":567,"o":"m 161 1107 l 324 1288 l 422 1288 l 567 1107 l 468 1107 l 369 1206 l 261 1107 l 161 1107 m 343 25 q 197 -8 290 -8 q 49 29 106 -8 l 54 104 q 193 82 143 82 q 313 229 311 82 l 313 1017 l 415 1017 l 415 229 q 343 25 415 71 z "},"ĵ":{"ha":301,"x_min":-56,"x_max":350,"o":"m -56 832 l 107 1054 l 206 1054 l 350 832 l 267 832 l 153 958 l 31 832 l -56 832 m 96 -375 l 96 738 l 206 738 l 206 -6 l 206 -33 q 169 -375 206 -225 l 96 -375 z "},"Ķ":{"ha":821,"x_min":111,"x_max":772,"o":"m 447 -328 q 414 -339 429 -336 q 393 -342 400 -342 q 369 -339 386 -342 l 369 -299 l 372 -299 q 408 -261 408 -299 l 408 -229 l 394 -229 q 364 -197 364 -229 l 364 -131 q 394 -97 364 -97 l 458 -97 q 489 -131 489 -97 l 489 -243 q 476 -299 489 -276 q 447 -328 464 -321 m 111 0 l 111 1017 l 214 1017 l 214 561 l 328 561 l 647 1017 l 772 1017 l 422 510 l 772 0 l 647 0 l 328 458 l 215 458 l 215 0 l 111 0 z "},"ķ":{"ha":694,"x_min":83,"x_max":667,"o":"m 381 -328 q 350 -339 364 -336 q 328 -342 335 -342 q 304 -339 321 -342 l 304 -299 l 307 -299 q 343 -261 343 -299 l 343 -229 l 329 -229 q 297 -197 297 -229 l 297 -131 q 329 -97 297 -97 l 393 -97 q 422 -131 422 -97 l 422 -243 q 411 -299 422 -276 q 381 -328 399 -321 m 83 0 l 83 1086 l 186 1086 l 186 475 l 242 475 l 524 738 l 667 738 l 339 424 l 667 0 l 539 0 l 242 372 l 186 372 l 186 0 l 83 0 z "},"ĸ":{"ha":719,"x_min":83,"x_max":692,"o":"m 83 0 l 83 738 l 186 738 l 186 417 l 303 417 l 564 738 l 692 738 l 396 367 l 672 0 l 543 0 l 299 314 l 188 314 l 186 0 l 83 0 z "},"Ĺ":{"ha":774,"x_min":111,"x_max":725,"o":"m 114 1107 l 264 1292 l 394 1292 l 211 1107 l 114 1107 m 111 175 l 111 1017 l 214 1017 l 214 175 q 243 111 214 122 q 300 103 265 103 l 725 103 l 725 0 l 300 0 q 172 28 221 0 q 111 175 111 63 z "},"ĺ":{"ha":417,"x_min":83,"x_max":411,"o":"m 131 1171 l 279 1356 l 411 1356 l 226 1171 l 131 1171 m 83 263 l 83 1088 l 186 1088 l 186 263 q 206 144 186 178 q 265 103 225 113 q 389 74 379 74 l 389 0 l 267 0 q 83 263 83 0 z "},"Ļ":{"ha":774,"x_min":111,"x_max":725,"o":"m 450 -328 q 419 -339 433 -336 q 397 -342 404 -342 q 374 -339 390 -342 l 374 -299 l 376 -299 q 413 -261 413 -299 l 413 -229 l 399 -229 q 367 -197 367 -229 l 367 -131 q 399 -97 367 -97 l 463 -97 q 492 -131 492 -97 l 492 -243 q 481 -299 492 -276 q 450 -328 468 -321 m 111 175 l 111 1017 l 214 1017 l 214 175 q 243 111 214 122 q 300 103 265 103 l 725 103 l 725 0 l 300 0 q 172 28 221 0 q 111 175 111 63 z "},"ļ":{"ha":417,"x_min":83,"x_max":389,"o":"m 256 -328 q 222 -339 238 -336 q 201 -342 208 -342 q 178 -339 194 -342 l 178 -299 l 181 -299 q 217 -261 217 -299 l 217 -229 l 203 -229 q 172 -197 172 -229 l 172 -131 q 203 -97 172 -97 l 267 -97 q 297 -131 297 -97 l 297 -243 q 285 -299 297 -276 q 256 -328 272 -321 m 83 263 l 83 1088 l 186 1088 l 186 263 q 206 144 186 178 q 265 103 225 113 q 389 74 379 74 l 389 0 l 267 0 q 83 263 83 0 z "},"Ľ":{"ha":774,"x_min":111,"x_max":725,"o":"m 111 175 l 111 1017 l 214 1017 l 214 175 q 243 111 214 122 q 300 103 265 103 l 725 103 l 725 0 l 300 0 q 172 28 221 0 q 111 175 111 63 m 321 1072 l 424 1072 l 424 979 l 410 793 l 336 793 l 321 979 l 321 1072 z "},"ľ":{"ha":417,"x_min":83,"x_max":394,"o":"m 83 263 l 83 1088 l 186 1088 l 186 263 q 203 144 186 175 q 265 103 218 115 q 389 74 379 74 l 389 0 l 267 0 q 125 58 168 0 q 83 263 83 117 m 292 1085 l 394 1085 l 394 992 l 381 806 l 307 806 l 292 992 l 292 1085 z "},"Ł":{"ha":772,"x_min":-4,"x_max":725,"o":"m 111 1017 l 214 1017 l 214 624 l 408 707 l 407 624 l 214 539 l 214 175 q 243 111 214 122 q 300 103 265 103 l 725 103 l 725 0 l 300 0 q 172 28 221 0 q 111 175 111 63 l 111 494 l -4 444 l -4 529 l 111 579 l 111 1017 z "},"ł":{"ha":458,"x_min":14,"x_max":431,"o":"m 125 1088 l 228 1088 l 228 689 l 426 775 l 425 692 l 228 606 l 228 263 q 247 144 228 178 q 307 103 267 113 q 431 74 421 74 l 431 0 l 308 0 q 125 263 125 0 l 125 561 l 14 513 l 14 597 l 125 644 l 125 1088 z "},"Ń":{"ha":944,"x_min":111,"x_max":861,"o":"m 453 1107 l 600 1292 l 733 1292 l 547 1107 l 453 1107 m 111 0 l 111 1017 l 217 1017 l 758 192 l 758 1017 l 861 1017 l 861 0 l 758 0 l 215 825 l 215 0 l 111 0 z "},"ń":{"ha":756,"x_min":83,"x_max":686,"o":"m 332 833 l 481 1018 l 613 1018 l 428 833 l 332 833 m 83 0 l 83 738 l 156 738 l 186 651 q 217 669 190 653 q 250 688 243 685 q 279 703 256 690 q 313 719 303 717 q 344 731 322 722 q 381 742 367 739 q 458 750 425 750 q 625 681 564 750 q 686 514 686 611 l 686 0 l 583 0 l 583 514 q 549 614 583 579 q 460 647 514 647 q 358 636 406 647 q 283 614 311 625 q 186 568 254 601 l 186 0 l 83 0 z "},"Ņ":{"ha":944,"x_min":111,"x_max":861,"o":"m 506 -328 q 475 -339 489 -336 q 453 -342 460 -342 q 429 -339 446 -342 l 429 -299 l 432 -299 q 468 -261 468 -299 l 468 -229 l 454 -229 q 422 -197 422 -229 l 422 -131 q 454 -97 422 -97 l 518 -97 q 547 -131 547 -97 l 547 -243 q 536 -299 547 -276 q 506 -328 524 -321 m 111 0 l 111 1017 l 217 1017 l 758 192 l 758 1017 l 861 1017 l 861 0 l 758 0 l 215 825 l 215 0 l 111 0 z "},"ņ":{"ha":756,"x_min":83,"x_max":686,"o":"m 408 -328 q 375 -339 390 -336 q 354 -342 361 -342 q 331 -339 347 -342 l 331 -299 l 333 -299 q 369 -261 369 -299 l 369 -229 l 356 -229 q 325 -197 325 -229 l 325 -131 q 356 -97 325 -97 l 419 -97 q 450 -131 450 -97 l 450 -243 q 438 -299 450 -276 q 408 -328 425 -321 m 83 0 l 83 738 l 156 738 l 186 651 q 217 669 190 653 q 250 688 243 685 q 279 703 256 690 q 313 719 303 717 q 344 731 322 722 q 381 742 367 739 q 458 750 425 750 q 625 681 564 750 q 686 514 686 611 l 686 0 l 583 0 l 583 514 q 549 614 583 579 q 460 647 514 647 q 358 636 406 647 q 283 614 311 625 q 186 568 254 601 l 186 0 l 83 0 z "},"Ň":{"ha":944,"x_min":111,"x_max":861,"o":"m 297 1288 l 397 1288 l 508 1189 l 604 1288 l 703 1288 l 558 1107 l 460 1107 l 297 1288 m 111 0 l 111 1017 l 217 1017 l 758 192 l 758 1017 l 861 1017 l 861 0 l 758 0 l 215 825 l 215 0 l 111 0 z "},"ň":{"ha":756,"x_min":83,"x_max":686,"o":"m 197 1014 l 297 1014 l 408 915 l 504 1014 l 603 1014 l 458 833 l 360 833 l 197 1014 m 83 0 l 83 738 l 156 738 l 186 651 q 217 669 190 653 q 250 688 243 685 q 279 703 256 690 q 313 719 303 717 q 344 731 322 722 q 381 742 367 739 q 458 750 425 750 q 625 681 564 750 q 686 514 686 611 l 686 0 l 583 0 l 583 514 q 549 614 583 579 q 460 647 514 647 q 358 636 406 647 q 283 614 311 625 q 186 568 254 601 l 186 0 l 83 0 z "},"Ŋ":{"ha":942,"x_min":111,"x_max":858,"o":"m 111 0 l 111 1017 l 217 1017 l 756 206 l 756 1017 l 858 1017 l 858 -117 q 769 -317 858 -269 q 678 -349 725 -340 q 561 -357 631 -357 l 561 -278 q 603 -268 575 -274 q 647 -258 632 -262 q 688 -242 664 -254 q 724 -214 711 -229 q 756 -97 756 -172 l 756 0 l 217 825 l 214 0 l 111 0 z "},"ŋ":{"ha":769,"x_min":83,"x_max":686,"o":"m 83 0 l 83 738 l 156 738 l 186 651 q 217 669 190 653 q 250 688 243 685 q 279 703 256 690 q 313 719 303 717 q 344 731 322 722 q 381 742 367 739 q 458 750 425 750 q 625 681 564 750 q 686 514 686 611 l 686 0 l 685 -125 q 653 -251 681 -192 q 619 -293 642 -274 q 583 -322 596 -312 q 540 -344 572 -332 q 458 -372 501 -360 l 417 -319 q 501 -272 461 -304 q 553 -224 542 -239 q 583 -131 583 -176 l 583 514 q 549 614 583 579 q 460 647 514 647 q 358 636 406 647 q 283 614 311 625 q 186 568 254 601 l 186 0 l 83 0 z "},"Ō":{"ha":939,"x_min":90,"x_max":878,"o":"m 282 1107 l 282 1194 l 688 1194 l 688 1107 l 282 1107 m 101 303 q 90 503 90 388 q 103 706 90 618 q 142 849 115 792 q 200 942 168 906 q 279 994 231 976 q 485 1024 358 1024 q 740 968 667 1024 q 842 814 811 914 q 876 531 876 692 q 858 278 876 369 q 811 129 842 185 q 731 44 782 74 q 622 4 678 14 q 492 -6 567 -6 q 368 0 415 -6 q 272 22 321 6 q 193 75 224 40 q 138 164 163 108 q 101 303 113 219 m 197 625 q 193 468 193 569 q 206 288 193 367 q 258 165 219 208 q 346 110 296 122 q 475 97 396 97 q 599 106 554 97 q 679 139 643 115 q 735 210 715 164 q 774 501 774 301 q 740 794 774 719 q 715 847 726 826 q 682 883 704 868 q 644 906 660 897 q 597 917 628 913 q 544 919 565 919 q 485 921 522 921 q 426 920 446 921 q 375 917 406 919 q 326 906 343 913 q 288 883 310 897 q 253 847 265 868 q 228 794 242 825 q 208 722 214 764 q 197 625 201 681 z "},"ō":{"ha":789,"x_min":69,"x_max":719,"o":"m 192 828 l 192 915 l 597 915 l 597 828 l 192 828 m 140 75 q 69 369 69 157 q 140 664 69 582 q 396 744 211 744 q 650 661 581 744 q 719 365 719 579 q 650 72 719 151 q 396 -7 581 -7 q 140 75 211 -7 m 181 489 q 172 353 172 438 q 186 214 172 268 q 231 135 199 160 q 297 103 264 110 q 394 96 332 96 q 494 103 458 96 q 561 136 529 110 q 604 214 592 161 q 617 363 617 268 q 606 514 617 457 q 565 600 596 571 q 500 635 535 628 q 403 642 464 642 q 311 638 342 642 q 250 618 281 633 q 206 572 219 603 q 181 489 190 542 z "},"Ő":{"ha":939,"x_min":90,"x_max":878,"o":"m 343 1107 l 492 1292 l 624 1292 l 439 1107 l 343 1107 m 531 1107 l 679 1292 l 811 1292 l 626 1107 l 531 1107 m 101 303 q 90 503 90 388 q 103 706 90 618 q 142 849 115 792 q 200 942 168 906 q 279 994 231 976 q 485 1024 358 1024 q 740 968 667 1024 q 842 814 811 914 q 876 531 876 692 q 858 278 876 369 q 811 129 842 185 q 731 44 782 74 q 622 4 678 14 q 492 -6 567 -6 q 368 0 415 -6 q 272 22 321 6 q 193 75 224 40 q 138 164 163 108 q 101 303 113 219 m 197 625 q 193 468 193 569 q 206 288 193 367 q 258 165 219 208 q 346 110 296 122 q 475 97 396 97 q 599 106 554 97 q 679 139 643 115 q 735 210 715 164 q 774 501 774 301 q 740 794 774 719 q 715 847 726 826 q 682 883 704 868 q 644 906 660 897 q 597 917 628 913 q 544 919 565 919 q 485 921 522 921 q 426 920 446 921 q 375 917 406 919 q 326 906 343 913 q 288 883 310 897 q 253 847 265 868 q 228 794 242 825 q 208 722 214 764 q 197 625 201 681 z "},"ő":{"ha":789,"x_min":69,"x_max":721,"o":"m 253 828 l 401 1013 l 533 1013 l 349 828 l 253 828 m 440 828 l 589 1013 l 721 1013 l 536 828 l 440 828 m 140 75 q 69 369 69 157 q 140 664 69 582 q 396 744 211 744 q 650 661 581 744 q 719 365 719 579 q 650 72 719 151 q 396 -7 581 -7 q 140 75 211 -7 m 181 489 q 172 353 172 438 q 186 214 172 268 q 231 135 199 160 q 297 103 264 110 q 394 96 332 96 q 494 103 458 96 q 561 136 529 110 q 604 214 592 161 q 617 363 617 268 q 606 514 617 457 q 565 600 596 571 q 500 635 535 628 q 403 642 464 642 q 311 638 342 642 q 250 618 281 633 q 206 572 219 603 q 181 489 190 542 z "},"Œ":{"ha":1465,"x_min":90,"x_max":1389,"o":"m 200 656 q 193 478 193 589 q 206 288 193 367 q 257 165 219 208 q 344 110 294 122 q 483 97 394 97 q 622 111 571 97 q 708 169 672 126 q 760 292 746 214 q 774 471 774 371 q 769 625 774 571 q 758 722 765 681 q 739 794 753 764 q 715 847 726 826 q 682 883 704 868 q 643 906 660 897 q 594 917 626 913 q 492 921 551 921 q 408 919 433 921 q 346 911 383 918 q 290 886 308 903 q 250 842 272 871 q 217 767 228 811 q 200 656 207 721 m 101 303 q 90 514 90 388 q 110 739 90 640 q 161 892 129 836 q 246 978 192 947 q 353 1015 300 1007 q 500 1024 404 1024 q 668 1003 596 1024 q 788 921 740 982 q 933 1017 822 1017 l 949 1017 l 1389 994 l 1389 914 l 949 914 q 897 900 915 914 q 878 875 881 888 q 876 836 876 861 l 876 558 l 1333 544 l 1333 463 l 876 449 l 876 171 q 892 119 876 136 q 921 100 907 103 q 963 99 935 99 l 1389 99 l 1389 19 l 963 -4 l 942 -4 q 785 92 815 -4 q 665 14 738 35 q 503 -6 593 -6 q 367 0 414 -6 q 271 22 319 6 q 192 75 222 40 q 138 164 163 108 q 101 303 113 219 z "},"œ":{"ha":1274,"x_min":69,"x_max":1219,"o":"m 140 75 q 69 369 69 157 q 140 664 69 582 q 403 744 211 744 q 663 646 594 744 q 761 724 697 704 q 918 743 824 743 q 1056 736 1013 743 q 1140 704 1099 729 q 1200 625 1182 679 q 1218 482 1218 571 q 1028 313 1218 313 l 718 313 l 718 285 q 747 142 718 188 q 857 96 775 96 q 1204 110 1110 96 l 1204 32 q 857 -7 1067 -7 q 660 85 711 -7 q 401 -7 592 -7 q 140 75 211 -7 m 181 489 q 172 353 172 438 q 186 214 172 268 q 231 135 199 160 q 297 103 264 110 q 394 96 332 96 q 575 147 535 96 q 614 369 614 200 q 569 589 614 538 q 394 642 525 642 q 311 638 342 642 q 250 618 281 633 q 206 572 219 603 q 181 489 190 542 m 1028 414 q 1115 482 1115 414 q 1083 614 1115 589 q 938 640 1053 640 q 800 625 839 640 q 744 585 760 610 q 717 446 717 538 q 718 414 717 429 l 1028 414 z "},"Ŕ":{"ha":824,"x_min":83,"x_max":789,"o":"m 356 1100 l 504 1285 l 636 1285 l 451 1100 l 356 1100 m 83 0 l 83 1017 l 517 1017 q 751 711 751 1017 q 575 419 751 444 l 789 0 l 678 0 l 464 415 l 186 435 l 186 0 l 83 0 m 186 526 l 517 526 q 619 567 599 526 q 647 725 647 615 q 611 872 647 833 q 517 913 575 913 l 186 913 l 186 526 z "},"ŕ":{"ha":592,"x_min":83,"x_max":583,"o":"m 303 831 l 451 1015 l 583 1015 l 399 831 l 303 831 m 83 0 l 83 738 l 156 738 l 186 644 q 319 717 292 708 q 369 733 347 726 q 476 746 411 746 q 564 735 542 746 l 564 633 q 469 642 531 642 q 361 631 408 642 q 283 607 313 619 q 186 561 256 594 l 186 0 l 83 0 z "},"Ŗ":{"ha":824,"x_min":83,"x_max":789,"o":"m 436 -328 q 406 -339 419 -336 q 383 -342 390 -342 q 360 -339 376 -342 l 360 -299 l 363 -299 q 399 -261 399 -299 l 399 -229 l 385 -229 q 353 -197 353 -229 l 353 -131 q 385 -97 353 -97 l 449 -97 q 478 -131 478 -97 l 478 -243 q 467 -299 478 -276 q 436 -328 454 -321 m 83 0 l 83 1017 l 517 1017 q 751 711 751 1017 q 575 419 751 444 l 789 0 l 678 0 l 464 415 l 186 435 l 186 0 l 83 0 m 186 526 l 517 526 q 619 567 599 526 q 647 725 647 615 q 611 872 647 833 q 517 913 575 913 l 186 913 l 186 526 z "},"ŗ":{"ha":592,"x_min":72,"x_max":564,"o":"m 156 -328 q 125 -339 139 -336 q 103 -342 110 -342 q 79 -339 96 -342 l 79 -299 l 82 -299 q 118 -261 118 -299 l 118 -229 l 104 -229 q 72 -197 72 -229 l 72 -131 q 104 -97 72 -97 l 168 -97 q 197 -131 197 -97 l 197 -243 q 186 -299 197 -276 q 156 -328 174 -321 m 83 0 l 83 738 l 156 738 l 186 644 q 319 717 292 708 q 369 733 347 726 q 476 746 411 746 q 564 735 542 746 l 564 633 q 469 642 531 642 q 361 631 408 642 q 283 607 313 619 q 186 561 256 594 l 186 0 l 83 0 z "},"Ř":{"ha":824,"x_min":83,"x_max":789,"o":"m 196 1288 l 296 1288 l 407 1189 l 503 1288 l 601 1288 l 457 1107 l 358 1107 l 196 1288 m 83 0 l 83 1017 l 517 1017 q 751 711 751 1017 q 575 419 751 444 l 789 0 l 678 0 l 464 415 l 186 435 l 186 0 l 83 0 m 186 526 l 517 526 q 619 567 599 526 q 647 725 647 615 q 611 872 647 833 q 517 913 575 913 l 186 913 l 186 526 z "},"ř":{"ha":592,"x_min":83,"x_max":564,"o":"m 121 1010 l 221 1010 l 332 911 l 428 1010 l 526 1010 l 382 829 l 283 829 l 121 1010 m 83 0 l 83 738 l 156 738 l 186 644 q 319 717 292 708 q 369 733 347 726 q 476 746 411 746 q 564 735 542 746 l 564 633 q 469 642 531 642 q 361 631 408 642 q 283 607 313 619 q 186 561 256 594 l 186 0 l 83 0 z "},"Ś":{"ha":811,"x_min":90,"x_max":749,"o":"m 378 1108 l 526 1293 l 658 1293 l 474 1108 l 378 1108 m 90 686 l 90 778 q 163 972 90 918 q 347 1025 235 1025 q 713 992 460 1025 l 713 908 l 365 922 l 343 922 q 233 897 272 922 q 193 778 193 872 l 193 686 q 228 575 193 600 q 335 550 261 550 l 532 550 q 749 311 749 550 l 749 217 q 658 28 749 76 q 468 -11 583 -11 q 297 1 419 -11 q 121 24 174 14 l 121 107 q 468 92 274 92 q 646 217 646 92 l 646 311 q 621 411 646 376 q 532 447 596 447 l 338 447 q 131 524 179 447 q 90 686 90 588 z "},"ś":{"ha":703,"x_min":54,"x_max":647,"o":"m 299 835 l 447 1019 l 579 1019 l 394 835 l 299 835 m 56 497 l 56 561 q 100 697 56 651 q 261 744 144 744 q 610 722 379 744 l 610 643 l 247 643 q 169 619 183 643 q 158 561 158 601 l 158 497 q 185 429 158 442 q 247 418 207 418 l 467 418 q 600 369 554 418 q 647 239 647 319 l 647 171 q 597 31 647 68 q 467 -7 547 -7 q 86 19 338 -7 l 86 96 l 467 96 q 475 96 467 97 q 494 99 482 94 q 517 108 506 103 q 544 171 544 122 l 544 239 q 528 297 544 278 q 467 315 510 315 l 247 315 q 100 354 146 315 q 56 497 56 393 z "},"Ŝ":{"ha":811,"x_min":90,"x_max":749,"o":"m 232 1108 l 394 1289 l 493 1289 l 638 1108 l 539 1108 l 440 1207 l 332 1108 l 232 1108 m 90 686 l 90 778 q 163 972 90 918 q 347 1025 235 1025 q 713 992 460 1025 l 713 908 l 365 922 l 343 922 q 233 897 272 922 q 193 778 193 872 l 193 686 q 228 575 193 600 q 335 550 261 550 l 532 550 q 749 311 749 550 l 749 217 q 658 28 749 76 q 468 -11 583 -11 q 297 1 419 -11 q 121 24 174 14 l 121 107 q 468 92 274 92 q 646 217 646 92 l 646 311 q 621 411 646 376 q 532 447 596 447 l 338 447 q 131 524 179 447 q 90 686 90 588 z "},"ŝ":{"ha":703,"x_min":54,"x_max":647,"o":"m 149 828 l 311 1008 l 410 1008 l 554 828 l 456 828 l 357 926 l 249 828 l 149 828 m 56 497 l 56 561 q 100 697 56 651 q 261 744 144 744 q 610 722 379 744 l 610 643 l 247 643 q 169 619 183 643 q 158 561 158 601 l 158 497 q 185 429 158 442 q 247 418 207 418 l 467 418 q 600 369 554 418 q 647 239 647 319 l 647 171 q 597 31 647 68 q 467 -7 547 -7 q 86 19 338 -7 l 86 96 l 467 96 q 475 96 467 97 q 494 99 482 94 q 517 108 506 103 q 544 171 544 122 l 544 239 q 528 297 544 278 q 467 315 510 315 l 247 315 q 100 354 146 315 q 56 497 56 393 z "},"Ş":{"ha":811,"x_min":90,"x_max":749,"o":"m 390 -62 l 483 -62 q 454 -211 483 -171 q 343 -251 425 -251 l 272 -251 l 272 -200 l 346 -179 q 390 -62 390 -160 m 90 686 l 90 778 q 163 972 90 918 q 347 1025 235 1025 q 713 992 460 1025 l 713 908 l 365 922 l 343 922 q 233 897 272 922 q 193 778 193 872 l 193 686 q 228 575 193 600 q 335 550 261 550 l 532 550 q 749 311 749 550 l 749 217 q 658 28 749 76 q 468 -11 583 -11 q 297 1 419 -11 q 121 24 174 14 l 121 107 q 468 92 274 92 q 646 217 646 92 l 646 311 q 621 411 646 376 q 532 447 596 447 l 338 447 q 131 524 179 447 q 90 686 90 588 z "},"ş":{"ha":703,"x_min":54,"x_max":647,"o":"m 325 -54 l 418 -54 q 389 -203 418 -162 q 278 -243 360 -243 l 207 -243 l 207 -192 l 281 -171 q 325 -54 325 -151 m 56 497 l 56 561 q 100 697 56 651 q 261 744 144 744 q 610 722 379 744 l 610 643 l 247 643 q 169 619 183 643 q 158 561 158 601 l 158 497 q 185 429 158 442 q 247 418 207 418 l 467 418 q 600 369 554 418 q 647 239 647 319 l 647 171 q 597 31 647 68 q 467 -7 547 -7 q 86 19 338 -7 l 86 96 l 467 96 q 475 96 467 97 q 494 99 482 94 q 517 108 506 103 q 544 171 544 122 l 544 239 q 528 297 544 278 q 467 315 510 315 l 247 315 q 100 354 146 315 q 56 497 56 393 z "},"Š":{"ha":811,"x_min":90,"x_max":749,"o":"m 221 1289 l 321 1289 l 432 1190 l 528 1289 l 626 1289 l 482 1108 l 383 1108 l 221 1289 m 90 686 l 90 778 q 163 972 90 918 q 347 1025 235 1025 q 713 992 460 1025 l 713 908 l 365 922 l 343 922 q 233 897 272 922 q 193 778 193 872 l 193 686 q 228 575 193 600 q 335 550 261 550 l 532 550 q 749 311 749 550 l 749 217 q 658 28 749 76 q 468 -11 583 -11 q 297 1 419 -11 q 121 24 174 14 l 121 107 q 468 92 274 92 q 646 217 646 92 l 646 311 q 621 411 646 376 q 532 447 596 447 l 338 447 q 131 524 179 447 q 90 686 90 588 z "},"š":{"ha":703,"x_min":54,"x_max":647,"o":"m 153 1015 l 253 1015 l 364 917 l 460 1015 l 558 1015 l 414 835 l 315 835 l 153 1015 m 56 497 l 56 561 q 100 697 56 651 q 261 744 144 744 q 610 722 379 744 l 610 643 l 247 643 q 169 619 183 643 q 158 561 158 601 l 158 497 q 185 429 158 442 q 247 418 207 418 l 467 418 q 600 369 554 418 q 647 239 647 319 l 647 171 q 597 31 647 68 q 467 -7 547 -7 q 86 19 338 -7 l 86 96 l 467 96 q 475 96 467 97 q 494 99 482 94 q 517 108 506 103 q 544 171 544 122 l 544 239 q 528 297 544 278 q 467 315 510 315 l 247 315 q 100 354 146 315 q 56 497 56 393 z "},"Ţ":{"ha":803,"x_min":63,"x_max":768,"o":"m 363 -68 l 456 -68 q 426 -217 456 -176 q 315 -257 397 -257 l 244 -257 l 244 -206 l 318 -185 q 363 -68 363 -165 m 63 914 l 63 1017 l 768 1017 l 768 914 l 463 914 l 463 0 l 360 0 l 360 914 l 63 914 z "},"ţ":{"ha":525,"x_min":28,"x_max":483,"o":"m 246 -71 l 339 -71 q 310 -219 339 -179 q 199 -260 281 -260 l 128 -260 l 128 -208 l 201 -187 q 246 -71 246 -168 m 28 636 l 28 714 l 165 739 l 190 944 l 268 944 l 268 739 l 483 739 l 483 636 l 268 636 l 268 264 q 288 147 268 179 q 347 104 307 114 q 471 75 461 75 l 471 1 l 349 1 q 165 264 165 1 l 165 636 l 28 636 z "},"Ť":{"ha":803,"x_min":63,"x_max":768,"o":"m 199 1288 l 299 1288 l 410 1189 l 506 1288 l 604 1288 l 460 1107 l 361 1107 l 199 1288 m 63 914 l 63 1017 l 768 1017 l 768 914 l 463 914 l 463 0 l 360 0 l 360 914 l 63 914 z "},"ť":{"ha":511,"x_min":28,"x_max":483,"o":"m 28 636 l 28 714 l 165 739 l 190 944 l 268 944 l 268 739 l 483 739 l 483 636 l 268 636 l 268 264 q 288 147 268 179 q 347 104 307 114 q 471 75 461 75 l 471 1 l 349 1 q 165 264 165 1 l 165 636 l 28 636 m 460 1111 l 460 1018 l 444 832 l 371 832 l 357 1018 l 356 1111 l 460 1111 z "},"Ŧ":{"ha":803,"x_min":49,"x_max":754,"o":"m 49 914 l 49 1017 l 754 1017 l 754 914 l 449 914 l 449 617 l 615 617 l 615 542 l 449 542 l 449 0 l 346 0 l 346 542 l 179 542 l 179 617 l 346 617 l 346 914 l 49 914 z "},"ŧ":{"ha":511,"x_min":28,"x_max":483,"o":"m 28 636 l 28 714 l 165 739 l 190 944 l 268 944 l 268 739 l 483 739 l 483 636 l 268 636 l 268 447 l 414 447 l 414 372 l 268 372 l 268 264 q 283 142 269 167 q 350 104 299 117 q 458 79 457 79 l 458 1 l 350 1 q 208 61 250 1 q 165 264 165 119 l 165 372 l 53 372 l 53 447 l 165 447 l 165 636 l 28 636 z "},"Ũ":{"ha":940,"x_min":111,"x_max":857,"o":"m 563 1197 q 688 1247 594 1197 l 718 1189 q 683 1161 714 1186 q 564 1101 610 1101 q 478 1125 522 1101 q 408 1149 433 1149 q 361 1142 382 1149 q 319 1119 342 1133 q 278 1100 296 1107 l 249 1157 q 306 1203 286 1188 q 356 1231 324 1217 q 419 1244 388 1246 q 497 1219 451 1243 q 553 1197 544 1197 l 563 1197 m 111 444 l 111 1017 l 214 1017 l 214 444 q 231 244 214 318 q 289 139 246 169 q 367 103 332 108 q 442 96 401 96 l 488 96 q 610 106 586 96 q 654 128 633 115 q 688 156 675 139 q 714 200 700 174 q 736 261 728 226 q 753 444 753 338 l 753 1017 l 857 1017 l 857 444 q 833 225 857 315 q 778 92 808 136 q 689 24 746 47 q 593 -3 631 0 q 519 -7 556 -7 l 461 -7 q 419 -6 438 -7 q 367 -3 400 -6 q 314 6 332 -1 q 267 22 296 11 q 222 50 239 32 q 186 90 207 67 q 154 147 165 114 q 132 225 143 183 q 111 444 111 304 z "},"ũ":{"ha":756,"x_min":69,"x_max":672,"o":"m 450 925 q 575 975 482 925 l 606 917 q 572 889 601 914 q 451 829 497 829 q 365 853 410 829 q 294 876 321 876 q 250 869 269 876 q 206 847 229 861 q 165 828 183 835 l 136 885 q 192 931 174 915 q 242 958 211 944 q 306 972 275 974 q 386 947 339 971 q 442 925 432 925 l 450 925 m 69 224 l 69 738 l 172 738 l 172 224 q 207 125 172 158 q 296 90 242 90 q 397 101 350 90 q 472 125 444 113 q 569 169 501 136 l 569 738 l 672 738 l 672 0 l 600 0 l 569 86 q 539 69 565 85 q 506 50 513 53 q 476 33 500 47 q 443 18 453 21 q 411 7 433 15 q 375 -4 389 -1 q 297 -12 331 -12 q 131 57 192 -12 q 69 224 69 126 z "},"Ū":{"ha":940,"x_min":111,"x_max":857,"o":"m 281 1107 l 281 1194 l 686 1194 l 686 1107 l 281 1107 m 111 444 l 111 1017 l 214 1017 l 214 444 q 231 244 214 318 q 289 139 246 169 q 367 103 332 108 q 442 96 401 96 l 488 96 q 610 106 586 96 q 654 128 633 115 q 688 156 675 139 q 714 200 700 174 q 736 261 728 226 q 753 444 753 338 l 753 1017 l 857 1017 l 857 444 q 833 225 857 315 q 778 92 808 136 q 689 24 746 47 q 593 -3 631 0 q 519 -7 556 -7 l 461 -7 q 419 -6 438 -7 q 367 -3 400 -6 q 314 6 332 -1 q 267 22 296 11 q 222 50 239 32 q 186 90 207 67 q 154 147 165 114 q 132 225 143 183 q 111 444 111 304 z "},"ū":{"ha":756,"x_min":69,"x_max":672,"o":"m 168 828 l 168 915 l 574 915 l 574 828 l 168 828 m 69 224 l 69 738 l 172 738 l 172 224 q 207 125 172 158 q 296 90 242 90 q 397 101 350 90 q 472 125 444 113 q 569 169 501 136 l 569 738 l 672 738 l 672 0 l 600 0 l 569 86 q 539 69 565 85 q 506 50 513 53 q 476 33 500 47 q 443 18 453 21 q 411 7 433 15 q 375 -4 389 -1 q 297 -12 331 -12 q 131 57 192 -12 q 69 224 69 126 z "},"Ŭ":{"ha":940,"x_min":111,"x_max":857,"o":"m 325 1265 l 389 1265 q 418 1200 389 1226 q 486 1172 447 1172 q 550 1197 524 1172 q 578 1265 578 1222 l 644 1265 q 592 1146 644 1189 q 482 1107 543 1107 q 372 1150 421 1107 q 325 1265 325 1194 m 111 444 l 111 1017 l 214 1017 l 214 444 q 231 244 214 318 q 289 139 246 169 q 367 103 332 108 q 442 96 401 96 l 488 96 q 610 106 586 96 q 654 128 633 115 q 688 156 675 139 q 714 200 700 174 q 736 261 728 226 q 753 444 753 338 l 753 1017 l 857 1017 l 857 444 q 833 225 857 315 q 778 92 808 136 q 689 24 746 47 q 593 -3 631 0 q 519 -7 556 -7 l 461 -7 q 419 -6 438 -7 q 367 -3 400 -6 q 314 6 332 -1 q 267 22 296 11 q 222 50 239 32 q 186 90 207 67 q 154 147 165 114 q 132 225 143 183 q 111 444 111 304 z "},"ŭ":{"ha":756,"x_min":69,"x_max":672,"o":"m 222 986 l 288 986 q 317 919 288 947 q 383 893 344 893 q 449 918 421 893 q 476 986 476 943 l 542 986 q 492 869 542 913 q 381 828 443 828 q 271 872 319 828 q 222 986 222 915 m 69 224 l 69 738 l 172 738 l 172 224 q 207 125 172 158 q 296 90 242 90 q 397 101 350 90 q 472 125 444 113 q 569 169 501 136 l 569 738 l 672 738 l 672 0 l 600 0 l 569 86 q 539 69 565 85 q 506 50 513 53 q 476 33 500 47 q 443 18 453 21 q 411 7 433 15 q 375 -4 389 -1 q 297 -12 331 -12 q 131 57 192 -12 q 69 224 69 126 z "},"Ů":{"ha":940,"x_min":111,"x_max":857,"o":"m 343 1249 q 385 1350 343 1308 q 485 1392 426 1392 q 583 1350 543 1392 q 625 1249 625 1308 q 583 1147 625 1189 q 485 1107 543 1107 q 385 1147 426 1107 q 343 1249 343 1189 m 431 1303 q 408 1250 408 1281 q 431 1196 408 1218 q 485 1174 453 1174 q 539 1194 517 1174 q 560 1249 560 1217 q 538 1303 560 1281 q 483 1325 515 1325 q 431 1303 453 1325 m 111 444 l 111 1017 l 214 1017 l 214 444 q 231 244 214 318 q 289 139 246 169 q 367 103 332 108 q 442 96 401 96 l 488 96 q 610 106 586 96 q 654 128 633 115 q 688 156 675 139 q 714 200 700 174 q 736 261 728 226 q 753 444 753 338 l 753 1017 l 857 1017 l 857 444 q 833 225 857 315 q 778 92 808 136 q 689 24 746 47 q 593 -3 631 0 q 519 -7 556 -7 l 461 -7 q 419 -6 438 -7 q 367 -3 400 -6 q 314 6 332 -1 q 267 22 296 11 q 222 50 239 32 q 186 90 207 67 q 154 147 165 114 q 132 225 143 183 q 111 444 111 304 z "},"ů":{"ha":756,"x_min":69,"x_max":672,"o":"m 242 914 q 231 975 231 940 q 250 1042 231 1008 q 300 1093 268 1074 q 372 1113 333 1113 q 442 1093 410 1113 q 493 1042 475 1074 q 511 969 511 1008 q 493 897 511 931 q 442 847 475 865 q 376 828 410 828 q 317 839 343 828 q 272 869 290 850 q 242 914 253 888 m 294 969 q 317 917 294 939 q 372 894 340 894 q 425 917 403 894 q 447 969 447 939 q 425 1024 447 1001 q 372 1046 403 1046 q 317 1022 340 1046 q 294 969 294 1000 m 69 224 l 69 738 l 172 738 l 172 224 q 207 125 172 158 q 296 90 242 90 q 397 101 350 90 q 472 125 444 113 q 569 169 501 136 l 569 738 l 672 738 l 672 0 l 600 0 l 569 86 q 539 69 565 85 q 506 50 513 53 q 476 33 500 47 q 443 18 453 21 q 411 7 433 15 q 375 -4 389 -1 q 297 -12 331 -12 q 131 57 192 -12 q 69 224 69 126 z "},"Ű":{"ha":940,"x_min":111,"x_max":857,"o":"m 342 1107 l 492 1292 l 622 1292 l 439 1107 l 342 1107 m 531 1107 l 678 1292 l 811 1292 l 625 1107 l 531 1107 m 111 444 l 111 1017 l 214 1017 l 214 444 q 231 244 214 318 q 289 139 246 169 q 367 103 332 108 q 442 96 401 96 l 488 96 q 610 106 586 96 q 654 128 633 115 q 688 156 675 139 q 714 200 700 174 q 736 261 728 226 q 753 444 753 338 l 753 1017 l 857 1017 l 857 444 q 833 225 857 315 q 778 92 808 136 q 689 24 746 47 q 593 -3 631 0 q 519 -7 556 -7 l 461 -7 q 419 -6 438 -7 q 367 -3 400 -6 q 314 6 332 -1 q 267 22 296 11 q 222 50 239 32 q 186 90 207 67 q 154 147 165 114 q 132 225 143 183 q 111 444 111 304 z "},"ű":{"ha":756,"x_min":69,"x_max":697,"o":"m 229 828 l 378 1013 l 510 1013 l 325 828 l 229 828 m 417 828 l 565 1013 l 697 1013 l 513 828 l 417 828 m 69 224 l 69 738 l 172 738 l 172 224 q 207 125 172 158 q 296 90 242 90 q 397 101 350 90 q 472 125 444 113 q 569 169 501 136 l 569 738 l 672 738 l 672 0 l 600 0 l 569 86 q 539 69 565 85 q 506 50 513 53 q 476 33 500 47 q 443 18 453 21 q 411 7 433 15 q 375 -4 389 -1 q 297 -12 331 -12 q 131 57 192 -12 q 69 224 69 126 z "},"Ų":{"ha":940,"x_min":111,"x_max":857,"o":"m 507 -6 q 424 -121 424 -72 q 440 -156 425 -139 q 511 -174 457 -172 l 511 -257 q 475 -260 497 -260 q 417 -247 453 -260 q 361 -203 382 -233 q 336 -133 336 -168 q 364 -65 336 -100 q 453 -6 393 -31 l 507 -6 m 111 444 l 111 1017 l 214 1017 l 214 444 q 231 244 214 318 q 289 139 246 169 q 367 103 332 108 q 442 96 401 96 l 488 96 q 610 106 586 96 q 654 128 633 115 q 688 156 675 139 q 714 200 700 174 q 736 261 728 226 q 753 444 753 338 l 753 1017 l 857 1017 l 857 444 q 833 225 857 315 q 778 92 808 136 q 689 24 746 47 q 593 -3 631 0 q 519 -7 556 -7 l 461 -7 q 419 -6 438 -7 q 367 -3 400 -6 q 314 6 332 -1 q 267 22 296 11 q 222 50 239 32 q 186 90 207 67 q 154 147 165 114 q 132 225 143 183 q 111 444 111 304 z "},"ų":{"ha":756,"x_min":69,"x_max":672,"o":"m 581 -115 q 668 -168 581 -165 l 668 -251 q 632 -253 654 -253 q 575 -240 610 -253 q 518 -197 539 -228 q 493 -128 493 -162 q 522 -60 493 -94 q 610 0 550 -25 l 664 0 q 581 -115 581 -68 m 69 224 l 69 738 l 172 738 l 172 224 q 207 125 172 158 q 296 90 242 90 q 397 101 350 90 q 472 125 444 113 q 569 169 501 136 l 569 738 l 672 738 l 672 0 l 600 0 l 569 86 q 539 69 565 85 q 506 50 513 53 q 476 33 500 47 q 443 18 453 21 q 411 7 433 15 q 375 -4 389 -1 q 297 -12 331 -12 q 131 57 192 -12 q 69 224 69 126 z "},"Ŵ":{"ha":1336,"x_min":63,"x_max":1301,"o":"m 493 1100 l 656 1281 l 754 1281 l 899 1100 l 800 1100 l 701 1199 l 593 1100 l 493 1100 m 63 1017 l 175 1017 l 471 179 l 722 1017 l 839 1017 l 744 692 l 929 171 l 1189 1017 l 1301 1017 l 983 0 l 881 0 l 690 519 l 522 0 l 419 0 l 63 1017 z "},"ŵ":{"ha":1113,"x_min":28,"x_max":1085,"o":"m 361 821 l 524 1001 l 622 1001 l 767 821 l 668 821 l 569 919 l 461 821 l 361 821 m 28 738 l 140 738 l 358 151 l 550 738 l 661 738 l 586 501 l 747 151 l 972 738 l 1085 738 l 803 0 l 700 0 l 536 361 l 415 0 l 304 0 l 28 738 z "},"Ŷ":{"ha":875,"x_min":63,"x_max":840,"o":"m 235 1100 l 397 1281 l 496 1281 l 640 1100 l 542 1100 l 443 1199 l 335 1100 l 235 1100 m 489 0 l 386 0 l 386 361 l 63 1017 l 175 1017 l 438 483 l 728 1017 l 840 1017 l 489 361 l 489 0 z "},"ŷ":{"ha":769,"x_min":29,"x_max":739,"o":"m 182 828 l 344 1008 l 443 1008 l 588 828 l 489 828 l 390 926 l 282 828 l 182 828 m 29 738 l 142 738 l 321 161 q 339 125 331 133 q 356 111 349 117 q 369 106 363 107 q 383 103 376 104 q 394 103 389 103 q 413 107 407 106 l 624 738 l 739 738 l 414 -233 l 310 -375 l 246 -375 l 376 0 q 210 153 257 0 l 29 738 z "},"Ÿ":{"ha":875,"x_min":63,"x_max":840,"o":"m 204 1178 q 225 1228 204 1207 q 275 1247 246 1247 q 325 1228 304 1247 q 344 1178 344 1207 q 325 1128 344 1149 q 275 1107 304 1107 q 225 1128 246 1107 q 204 1178 204 1149 m 558 1178 q 579 1228 558 1207 q 629 1247 600 1247 q 678 1228 658 1247 q 699 1178 699 1207 q 678 1128 699 1149 q 629 1107 658 1107 q 579 1128 600 1107 q 558 1178 558 1149 m 489 0 l 386 0 l 386 361 l 63 1017 l 175 1017 l 438 483 l 728 1017 l 840 1017 l 489 361 l 489 0 z "},"Ź":{"ha":782,"x_min":49,"x_max":733,"o":"m 343 1107 l 492 1292 l 624 1292 l 439 1107 l 343 1107 m 49 0 l 49 103 l 599 914 l 49 914 l 49 1017 l 733 1017 l 733 914 l 183 103 l 733 103 l 733 0 l 49 0 z "},"ź":{"ha":633,"x_min":42,"x_max":592,"o":"m 269 828 l 417 1013 l 550 1013 l 364 828 l 269 828 m 42 635 l 42 738 l 592 738 l 592 635 l 197 104 l 592 104 l 592 1 l 63 1 l 63 104 l 464 635 l 42 635 z "},"Ż":{"ha":782,"x_min":49,"x_max":733,"o":"m 324 1139 l 324 1214 q 357 1249 324 1249 l 426 1249 q 458 1214 458 1249 l 458 1139 q 426 1107 458 1107 l 357 1107 q 324 1139 324 1107 m 49 0 l 49 103 l 599 914 l 49 914 l 49 1017 l 733 1017 l 733 914 l 183 103 l 733 103 l 733 0 l 49 0 z "},"ż":{"ha":633,"x_min":42,"x_max":592,"o":"m 250 860 l 250 935 q 283 969 250 969 l 353 969 q 375 960 367 969 q 383 935 383 950 l 383 860 q 353 828 383 828 l 283 828 q 258 836 268 828 q 250 860 250 846 m 42 635 l 42 738 l 592 738 l 592 635 l 197 104 l 592 104 l 592 1 l 63 1 l 63 104 l 464 635 l 42 635 z "},"Ž":{"ha":782,"x_min":49,"x_max":733,"o":"m 189 1288 l 289 1288 l 400 1189 l 494 1288 l 594 1288 l 450 1107 l 350 1107 l 189 1288 m 49 0 l 49 103 l 599 914 l 49 914 l 49 1017 l 733 1017 l 733 914 l 183 103 l 733 103 l 733 0 l 49 0 z "},"ž":{"ha":633,"x_min":42,"x_max":592,"o":"m 114 1008 l 214 1008 l 325 910 l 421 1008 l 519 1008 l 375 828 l 276 828 l 114 1008 m 42 635 l 42 738 l 592 738 l 592 635 l 197 104 l 592 104 l 592 1 l 63 1 l 63 104 l 464 635 l 42 635 z "},"ƒ":{"ha":822,"x_min":28,"x_max":794,"o":"m 163 -181 q 267 -79 233 -181 q 313 122 294 4 l 379 551 l 238 551 l 256 656 l 397 656 l 404 703 q 558 1081 450 1004 q 663 1111 604 1111 q 739 1100 714 1111 l 794 1076 l 785 1008 l 663 1008 q 558 904 594 1008 q 511 703 531 824 l 504 654 l 700 654 l 682 551 l 486 551 l 419 122 q 347 -164 389 -87 q 242 -269 301 -246 q 167 -283 207 -283 q 83 -269 128 -283 q 28 -249 39 -256 l 38 -181 l 163 -181 z "},"ˆ":{"ha":544,"x_min":69,"x_max":475,"o":"m 69 738 l 232 918 l 331 918 l 475 738 l 376 738 l 278 836 l 169 738 l 69 738 z "},"ˇ":{"ha":544,"x_min":69,"x_max":475,"o":"m 69 918 l 169 918 l 281 819 l 376 918 l 475 918 l 331 738 l 232 738 l 69 918 z "},"˘":{"ha":457,"x_min":69,"x_max":389,"o":"m 69 894 l 135 894 q 164 828 135 856 q 231 801 192 801 q 296 826 268 801 q 324 894 324 851 l 389 894 q 339 778 389 821 q 228 736 290 736 q 118 781 167 736 q 69 894 69 824 z "},"˙":{"ha":274,"x_min":69,"x_max":204,"o":"m 69 772 l 69 847 q 103 882 69 882 l 172 882 q 204 847 204 882 l 204 772 q 172 740 204 740 l 103 740 q 69 772 69 740 z "},"˚":{"ha":421,"x_min":69,"x_max":353,"o":"m 69 878 q 111 979 69 938 q 211 1021 153 1021 q 311 979 269 1021 q 351 878 351 938 q 311 778 351 818 q 211 736 269 736 q 111 778 153 736 q 69 878 69 818 m 135 878 q 157 825 135 847 q 211 803 179 803 q 264 825 242 803 q 286 878 286 847 q 264 932 286 910 q 211 954 242 954 q 158 931 181 954 q 135 878 135 908 z "},"˛":{"ha":311,"x_min":67,"x_max":242,"o":"m 238 0 q 154 -115 154 -67 q 171 -150 154 -132 q 242 -168 188 -167 l 242 -251 q 206 -254 228 -254 q 147 -242 183 -254 q 92 -197 113 -228 q 67 -128 67 -162 q 94 -60 67 -94 q 183 0 124 -25 l 238 0 z "},"˜":{"ha":608,"x_min":69,"x_max":539,"o":"m 383 835 q 508 885 415 835 l 539 826 q 506 800 535 824 q 385 739 431 739 q 299 763 343 739 q 228 786 254 786 q 183 778 203 786 q 139 758 163 771 q 99 738 117 744 l 69 794 q 125 839 107 825 q 175 869 144 854 q 239 882 208 883 q 319 858 272 881 q 375 835 365 835 l 383 835 z "},"˝":{"ha":528,"x_min":28,"x_max":496,"o":"m 28 738 l 176 922 l 308 922 l 124 738 l 28 738 m 215 738 l 364 922 l 496 922 l 311 738 l 215 738 z "},"̸":{"ha":893,"x_min":97,"x_max":796,"o":"m 97 225 l 97 792 q 164 958 97 900 q 336 1017 232 1017 l 564 1017 q 739 953 683 1017 q 796 792 796 890 l 796 225 q 564 0 796 0 l 336 0 q 164 54 232 0 q 97 225 97 108 m 200 225 q 214 163 200 186 l 590 913 q 564 914 582 914 l 336 914 q 233 881 267 914 q 200 792 200 846 l 200 225 m 336 103 l 564 103 q 693 225 693 103 l 693 792 q 669 875 693 846 l 285 110 q 336 103 313 103 z "},"Ω":{"ha":1082,"x_min":90,"x_max":992,"o":"m 90 503 l 90 571 q 103 672 90 608 q 144 803 114 738 q 225 917 176 868 q 356 996 274 965 q 551 1026 438 1026 q 756 986 665 1026 q 893 872 844 944 q 985 532 985 738 q 981 411 985 457 q 961 304 976 364 q 814 107 932 192 l 992 93 l 992 0 l 675 0 l 675 108 q 867 343 839 218 q 882 517 882 418 q 867 681 882 617 q 817 803 853 746 q 542 924 742 924 q 193 528 193 924 q 197 406 193 446 q 222 311 201 364 q 285 214 242 260 q 404 108 328 168 l 404 0 l 99 0 l 99 94 l 283 108 q 147 239 186 171 q 114 304 126 275 q 97 378 101 333 q 90 503 90 433 z "},"π":{"ha":888,"x_min":28,"x_max":858,"o":"m 28 635 l 28 738 l 792 738 l 792 635 l 613 635 l 613 231 q 636 126 613 156 q 708 97 658 97 l 858 97 l 858 36 q 703 -7 794 -7 q 561 47 611 -7 q 510 231 510 100 l 510 635 l 250 635 l 250 0 l 147 0 l 147 635 l 28 635 z "},"Ḃ":{"ha":828,"x_min":111,"x_max":772,"o":"m 357 1133 l 357 1208 q 390 1243 357 1243 l 460 1243 q 492 1208 492 1243 l 492 1133 q 460 1101 492 1101 l 390 1101 q 357 1133 357 1101 m 111 0 l 111 1017 l 503 1017 q 703 936 640 1017 q 767 753 767 856 q 639 528 767 568 q 732 453 692 515 q 772 283 772 392 q 718 89 772 167 q 503 0 656 0 l 111 0 m 215 103 l 503 103 q 669 286 669 103 q 628 425 669 369 q 503 481 586 481 l 215 481 l 215 103 m 215 583 l 503 583 q 664 749 664 583 q 503 914 664 914 l 215 914 l 215 583 z "},"ḃ":{"ha":769,"x_min":69,"x_max":700,"o":"m 69 1218 l 69 1293 q 103 1328 69 1328 l 172 1328 q 204 1293 204 1328 l 204 1218 q 172 1186 204 1186 l 103 1186 q 69 1218 69 1186 m 83 0 l 83 1090 l 183 1090 l 183 693 q 325 733 246 718 q 469 749 406 749 q 583 717 532 749 q 658 625 633 685 q 700 365 700 522 q 654 117 700 222 q 579 25 629 58 q 461 -8 529 -8 q 306 25 393 -8 q 185 82 219 57 l 157 0 l 83 0 m 457 94 q 597 365 597 94 q 564 586 597 526 q 457 646 529 646 q 185 610 324 646 l 185 158 q 457 94 342 94 z "},"Ḋ":{"ha":913,"x_min":111,"x_max":850,"o":"m 375 1146 l 375 1221 q 408 1256 375 1256 l 478 1256 q 510 1221 510 1256 l 510 1146 q 478 1114 510 1114 l 408 1114 q 375 1146 375 1114 m 111 0 l 111 1017 l 489 1017 q 647 983 579 1017 q 751 897 714 949 q 813 774 789 846 q 850 504 850 658 q 800 228 850 353 q 629 31 742 86 q 489 0 567 0 l 111 0 m 214 107 l 489 107 q 636 164 576 107 q 747 494 747 268 q 681 817 747 721 q 489 914 615 914 l 214 914 l 214 107 z "},"ḋ":{"ha":769,"x_min":69,"x_max":699,"o":"m 564 1207 l 564 1282 q 597 1317 564 1317 l 667 1317 q 699 1282 699 1317 l 699 1207 q 667 1175 699 1175 l 597 1175 q 564 1207 564 1175 m 81 233 q 69 369 69 294 q 78 506 69 446 q 111 625 88 567 q 313 749 163 749 q 443 733 364 749 q 585 693 522 718 l 585 1090 l 686 1090 l 686 0 l 613 0 l 585 82 q 464 25 550 57 q 308 -8 376 -8 q 190 25 240 -8 q 115 117 140 58 q 81 233 90 174 m 172 365 q 313 94 172 94 q 585 158 428 94 l 585 610 q 313 646 446 646 q 206 586 240 646 q 172 365 172 526 z "},"Ḟ":{"ha":788,"x_min":111,"x_max":725,"o":"m 372 1133 l 372 1208 q 406 1243 372 1243 l 475 1243 q 507 1208 507 1243 l 507 1133 q 475 1101 507 1101 l 406 1101 q 372 1133 372 1101 m 111 0 l 111 836 q 158 975 111 932 q 278 1017 207 1017 l 286 1017 l 725 994 l 725 914 l 286 914 q 236 900 253 914 q 217 875 218 888 q 214 836 214 861 l 214 558 l 669 544 l 669 463 l 214 449 l 214 0 l 111 0 z "},"ḟ":{"ha":556,"x_min":28,"x_max":528,"o":"m 290 1236 l 290 1311 q 324 1346 290 1346 l 393 1346 q 425 1311 425 1346 l 425 1236 q 393 1204 425 1204 l 324 1204 q 290 1236 290 1204 m 28 635 l 28 714 l 163 738 l 163 875 q 201 1039 163 988 q 253 1075 218 1060 q 353 1092 286 1092 q 528 1058 419 1092 l 528 990 l 357 992 q 278 958 293 992 q 265 875 265 929 l 265 738 l 471 738 l 471 635 l 265 635 l 265 0 l 163 0 l 163 635 l 28 635 z "},"Ṁ":{"ha":1113,"x_min":76,"x_max":1036,"o":"m 483 1139 l 483 1214 q 517 1249 483 1249 l 586 1249 q 618 1214 618 1249 l 618 1139 q 586 1107 618 1107 l 517 1107 q 483 1139 483 1107 m 76 0 l 143 1017 l 285 1017 l 556 171 l 818 1017 l 958 1017 l 1036 0 l 933 0 l 871 831 l 610 0 l 504 0 l 235 831 l 179 0 l 76 0 z "},"ṁ":{"ha":1247,"x_min":83,"x_max":1178,"o":"m 632 861 l 632 936 q 665 971 632 971 l 735 971 q 767 936 767 971 l 767 861 q 735 829 767 829 l 665 829 q 632 861 632 829 m 83 0 l 83 738 l 156 738 l 186 649 q 219 669 194 654 q 256 689 246 683 q 289 707 267 696 q 328 722 313 718 l 363 735 q 457 746 396 746 q 574 717 518 746 q 653 638 629 688 q 950 746 783 746 q 1113 679 1047 746 q 1178 508 1178 613 l 1178 0 l 1075 0 l 1075 508 q 1039 606 1075 569 q 950 643 1004 643 q 806 626 867 643 q 678 565 746 610 l 678 0 l 575 0 l 575 508 q 539 606 575 569 q 450 643 504 643 q 353 632 397 643 q 282 610 307 621 q 186 565 257 600 l 186 0 l 83 0 z "},"Ṗ":{"ha":807,"x_min":83,"x_max":746,"o":"m 339 1149 l 339 1224 q 372 1258 339 1258 l 442 1258 q 474 1224 474 1258 l 474 1149 q 442 1117 474 1117 l 372 1117 q 339 1149 339 1117 m 83 0 l 83 1017 l 501 1017 q 744 722 744 1017 q 631 439 744 494 q 567 418 594 422 q 500 414 539 414 q 326 426 461 414 q 186 442 192 439 l 186 0 l 83 0 m 186 517 l 501 517 q 604 557 568 517 q 640 722 640 597 q 586 886 638 851 q 501 913 549 913 l 186 913 l 186 517 z "},"ṗ":{"ha":769,"x_min":83,"x_max":700,"o":"m 347 878 l 347 953 q 381 988 347 988 l 450 988 q 482 953 482 988 l 482 878 q 450 846 482 846 l 381 846 q 347 878 347 846 m 83 -375 l 83 738 l 157 738 l 183 656 q 306 714 218 681 q 461 746 393 746 q 579 713 529 746 q 654 622 629 679 q 700 372 700 515 q 583 21 700 94 q 469 -11 532 -11 q 325 4 406 -11 q 183 44 246 19 l 183 -375 l 83 -375 m 457 92 q 564 151 529 92 q 597 372 597 211 q 457 643 597 643 q 183 579 340 643 l 183 128 q 457 92 322 92 z "},"Ṡ":{"ha":811,"x_min":90,"x_max":749,"o":"m 350 1154 l 350 1229 q 383 1264 350 1264 l 453 1264 q 485 1229 485 1264 l 485 1154 q 453 1122 485 1122 l 383 1122 q 350 1154 350 1122 m 90 686 l 90 778 q 163 972 90 918 q 347 1025 235 1025 q 713 992 460 1025 l 713 908 l 365 922 l 343 922 q 233 897 272 922 q 193 778 193 872 l 193 686 q 228 575 193 600 q 335 550 261 550 l 532 550 q 749 311 749 550 l 749 217 q 658 28 749 76 q 468 -11 583 -11 q 297 1 419 -11 q 121 24 174 14 l 121 107 q 468 92 274 92 q 646 217 646 92 l 646 311 q 621 411 646 376 q 532 447 596 447 l 338 447 q 131 524 179 447 q 90 686 90 588 z "},"ṡ":{"ha":703,"x_min":54,"x_max":647,"o":"m 314 876 l 314 951 q 347 986 314 986 l 417 986 q 449 951 449 986 l 449 876 q 417 844 449 844 l 347 844 q 314 876 314 844 m 56 497 l 56 561 q 100 697 56 651 q 261 744 144 744 q 610 722 379 744 l 610 643 l 247 643 q 169 619 183 643 q 158 561 158 601 l 158 497 q 185 429 158 442 q 247 418 207 418 l 467 418 q 600 369 554 418 q 647 239 647 319 l 647 171 q 597 31 647 68 q 467 -7 547 -7 q 86 19 338 -7 l 86 96 l 467 96 q 475 96 467 97 q 494 99 482 94 q 517 108 506 103 q 544 171 544 122 l 544 239 q 528 297 544 278 q 467 315 510 315 l 247 315 q 100 354 146 315 q 56 497 56 393 z "},"Ṫ":{"ha":803,"x_min":63,"x_max":768,"o":"m 333 1139 l 333 1214 q 367 1249 333 1249 l 436 1249 q 461 1239 451 1249 q 469 1214 469 1229 l 469 1139 q 436 1107 469 1107 l 367 1107 q 343 1117 353 1107 q 333 1139 333 1125 m 63 914 l 63 1017 l 768 1017 l 768 914 l 463 914 l 463 0 l 360 0 l 360 914 l 63 914 z "},"ṫ":{"ha":525,"x_min":28,"x_max":483,"o":"m 161 1061 l 161 1136 q 194 1171 161 1171 l 264 1171 q 296 1136 296 1171 l 296 1061 q 264 1029 296 1029 l 194 1029 q 161 1061 161 1029 m 28 636 l 28 714 l 165 739 l 190 944 l 268 944 l 268 739 l 483 739 l 483 636 l 268 636 l 268 264 q 288 147 268 179 q 347 104 307 114 q 471 75 461 75 l 471 1 l 349 1 q 165 264 165 1 l 165 636 l 28 636 z "},"Ẁ":{"ha":1336,"x_min":63,"x_max":1301,"o":"m 463 1285 l 594 1285 l 743 1100 l 647 1100 l 463 1285 m 63 1017 l 175 1017 l 471 179 l 722 1017 l 839 1017 l 744 692 l 929 171 l 1189 1017 l 1301 1017 l 983 0 l 881 0 l 690 519 l 522 0 l 419 0 l 63 1017 z "},"ẁ":{"ha":1113,"x_min":28,"x_max":1085,"o":"m 331 1006 l 463 1006 l 611 821 l 515 821 l 331 1006 m 28 738 l 140 738 l 358 151 l 550 738 l 661 738 l 586 501 l 747 151 l 972 738 l 1085 738 l 803 0 l 700 0 l 536 361 l 415 0 l 304 0 l 28 738 z "},"Ẃ":{"ha":1336,"x_min":63,"x_max":1301,"o":"m 649 1100 l 797 1285 l 929 1285 l 744 1100 l 649 1100 m 63 1017 l 175 1017 l 471 179 l 722 1017 l 839 1017 l 744 692 l 929 171 l 1189 1017 l 1301 1017 l 983 0 l 881 0 l 690 519 l 522 0 l 419 0 l 63 1017 z "},"ẃ":{"ha":1113,"x_min":28,"x_max":1085,"o":"m 517 821 l 665 1006 l 797 1006 l 613 821 l 517 821 m 28 738 l 140 738 l 358 151 l 550 738 l 661 738 l 586 501 l 747 151 l 972 738 l 1085 738 l 803 0 l 700 0 l 536 361 l 415 0 l 304 0 l 28 738 z "},"Ẅ":{"ha":1336,"x_min":63,"x_max":1301,"o":"m 449 1171 q 469 1219 449 1200 q 519 1240 490 1240 q 569 1219 549 1240 q 589 1171 589 1200 q 569 1121 589 1142 q 519 1100 549 1100 q 469 1121 490 1100 q 449 1171 449 1142 m 803 1171 q 824 1219 803 1200 q 874 1240 844 1240 q 922 1219 903 1240 q 943 1171 943 1200 q 922 1121 943 1142 q 874 1100 903 1100 q 824 1121 844 1100 q 803 1171 803 1142 m 63 1017 l 175 1017 l 471 179 l 722 1017 l 839 1017 l 744 692 l 929 171 l 1189 1017 l 1301 1017 l 983 0 l 881 0 l 690 519 l 522 0 l 419 0 l 63 1017 z "},"ẅ":{"ha":1113,"x_min":28,"x_max":1085,"o":"m 317 892 q 338 942 317 921 q 388 961 358 961 q 436 942 417 961 q 457 892 457 921 q 436 842 457 863 q 388 821 417 821 q 338 842 358 821 q 317 892 317 863 m 671 892 q 692 942 671 921 q 742 961 713 961 q 792 942 771 961 q 811 892 811 921 q 792 842 811 863 q 742 821 771 821 q 692 842 713 821 q 671 892 671 863 m 28 738 l 140 738 l 358 151 l 550 738 l 661 738 l 586 501 l 747 151 l 972 738 l 1085 738 l 803 0 l 700 0 l 536 361 l 415 0 l 304 0 l 28 738 z "},"Ỳ":{"ha":875,"x_min":63,"x_max":840,"o":"m 219 1292 l 350 1292 l 500 1107 l 403 1107 l 219 1292 m 489 0 l 386 0 l 386 361 l 63 1017 l 175 1017 l 438 483 l 728 1017 l 840 1017 l 489 361 l 489 0 z "},"ỳ":{"ha":769,"x_min":29,"x_max":739,"o":"m 165 1013 l 297 1013 l 446 828 l 350 828 l 165 1013 m 29 738 l 142 738 l 321 161 q 339 125 331 133 q 356 111 349 117 q 369 106 363 107 q 383 103 376 104 q 394 103 389 103 q 413 107 407 106 l 624 738 l 739 738 l 414 -233 l 310 -375 l 246 -375 l 376 0 q 210 153 257 0 l 29 738 z "},"„":{"ha":581,"x_min":101,"x_max":479,"o":"m 101 38 l 101 119 q 139 161 101 161 l 217 161 q 254 119 254 161 l 254 -18 q 239 -86 254 -58 q 203 -122 224 -114 q 147 -139 165 -139 l 124 -139 l 108 -136 l 108 -87 l 111 -87 q 156 -39 156 -87 l 156 -1 l 139 -1 q 101 38 101 -1 m 326 38 l 326 119 q 365 161 326 161 l 443 161 q 479 119 479 161 l 479 -18 q 464 -86 479 -58 q 428 -122 450 -114 q 372 -139 390 -139 l 350 -139 l 335 -136 l 335 -87 l 338 -87 q 382 -39 382 -87 l 382 -1 l 365 -1 q 326 38 326 -1 z "},"†":{"ha":533,"x_min":28,"x_max":506,"o":"m 28 679 l 28 761 l 213 775 l 224 1069 l 311 1069 l 322 775 l 506 761 l 506 679 l 322 665 l 310 -100 l 222 -100 l 213 665 l 28 679 z "},"‰":{"ha":1918,"x_min":57,"x_max":1861,"o":"m 58 658 l 58 843 q 97 975 58 935 q 238 1017 136 1017 l 378 1017 q 515 975 476 1017 q 554 843 554 935 l 554 658 q 515 525 554 567 q 375 485 476 485 l 235 485 q 97 525 136 485 q 58 658 58 567 m 149 658 q 167 592 149 608 q 235 575 185 575 l 375 575 q 449 592 433 575 q 464 658 464 608 l 464 843 q 446 910 464 893 q 378 926 428 926 l 238 926 q 164 910 181 926 q 149 843 149 893 l 149 658 m 315 0 l 924 1017 l 1022 1017 l 414 0 l 315 0 m 772 176 l 772 361 q 811 494 772 453 q 951 535 850 535 l 1092 535 q 1229 494 1190 535 q 1268 361 1268 453 l 1268 176 q 1229 44 1268 85 q 1089 3 1190 3 l 949 3 q 811 44 850 3 q 772 176 772 85 m 863 176 q 881 110 863 126 q 949 93 899 93 l 1089 93 q 1163 110 1147 93 q 1178 176 1178 126 l 1178 361 q 1160 428 1178 411 q 1092 444 1142 444 l 951 444 q 878 428 894 444 q 863 361 863 411 l 863 176 m 1364 176 l 1364 361 q 1403 494 1364 453 q 1543 535 1442 535 l 1683 535 q 1821 494 1782 535 q 1860 361 1860 453 l 1860 176 q 1821 44 1860 85 q 1681 3 1782 3 l 1540 3 q 1403 44 1442 3 q 1364 176 1364 85 m 1454 176 q 1472 110 1454 126 q 1540 93 1490 93 l 1681 93 q 1754 110 1739 93 q 1769 176 1769 126 l 1769 361 q 1751 428 1769 411 q 1683 444 1733 444 l 1543 444 q 1469 428 1486 444 q 1454 361 1454 411 l 1454 176 z "},"‹":{"ha":496,"x_min":69,"x_max":435,"o":"m 69 492 l 356 774 l 428 701 l 213 492 l 435 275 l 363 203 l 69 492 z "},"›":{"ha":496,"x_min":69,"x_max":435,"o":"m 69 275 l 292 492 l 76 701 l 149 774 l 435 492 l 142 203 l 69 275 z "},"⁄":{"ha":324,"x_min":-125,"x_max":449,"o":"m -125 0 l 358 1017 l 449 1017 l -35 0 l -125 0 z "},"⁰":{"ha":650,"x_min":82,"x_max":565,"o":"m 83 715 l 83 1069 q 125 1188 83 1153 q 246 1222 167 1222 l 408 1222 q 565 1069 565 1222 l 565 715 q 525 593 565 624 q 408 563 486 563 l 246 563 q 97 633 126 563 q 83 715 83 665 m 171 721 q 186 664 171 678 q 251 649 201 649 l 403 649 q 467 664 453 649 q 481 721 481 681 l 481 1064 q 465 1119 481 1103 q 403 1136 450 1136 l 251 1136 q 186 1119 203 1136 q 171 1064 171 1101 l 171 721 z "},"⁴":{"ha":579,"x_min":22,"x_max":558,"o":"m 390 821 l 390 989 l 429 1056 l 476 1056 l 476 821 l 558 821 l 558 749 l 476 731 l 476 564 l 390 564 l 390 731 l 53 731 l 22 764 l 311 1222 l 410 1222 l 158 821 l 390 821 z "},"⁵":{"ha":582,"x_min":76,"x_max":528,"o":"m 286 974 l 375 971 q 489 926 453 971 q 526 804 526 882 l 526 715 q 486 594 526 633 q 375 557 444 557 q 76 576 189 557 l 76 644 l 369 644 q 440 721 440 644 l 440 819 q 431 861 440 850 q 369 885 406 885 l 210 885 q 149 817 149 885 l 76 817 l 97 1222 l 507 1222 l 507 1136 l 178 1136 l 167 944 q 286 974 196 974 z "},"⁶":{"ha":611,"x_min":76,"x_max":554,"o":"m 183 1217 q 242 1231 210 1228 q 338 1233 275 1233 q 532 1214 400 1233 l 532 1144 l 251 1144 q 163 932 167 1144 q 417 951 340 951 q 522 913 492 951 q 554 811 554 874 l 554 710 q 514 600 554 638 q 408 564 475 564 l 260 564 q 188 578 218 564 q 76 892 76 625 q 131 1172 76 1104 q 183 1217 158 1204 m 163 865 q 256 650 163 650 l 403 650 q 453 667 438 650 q 468 721 468 683 l 468 806 q 453 853 468 840 q 403 865 438 865 l 163 865 z "},"⁷":{"ha":510,"x_min":21,"x_max":488,"o":"m 21 1139 l 21 1225 l 464 1225 l 488 1182 l 235 564 l 138 564 l 375 1139 l 21 1139 z "},"⁸":{"ha":647,"x_min":90,"x_max":556,"o":"m 92 706 l 92 786 q 168 886 92 863 q 92 1011 92 911 l 92 1067 q 133 1193 92 1157 q 253 1229 176 1229 l 406 1229 q 518 1192 481 1229 q 556 1067 556 1154 l 556 1011 l 556 997 q 553 975 556 990 q 535 936 551 960 q 489 907 518 914 q 539 863 522 901 q 556 786 556 824 l 556 706 q 410 561 556 561 l 243 561 q 124 600 156 561 q 92 706 92 639 m 178 711 q 192 663 178 676 q 249 649 207 649 l 404 649 q 469 711 469 649 l 469 781 q 406 853 469 853 l 246 853 q 178 781 178 853 l 178 711 m 178 1017 q 246 940 178 940 l 400 940 q 469 1017 469 940 l 469 1061 q 453 1126 469 1110 q 393 1143 435 1143 l 258 1143 q 194 1125 211 1143 q 178 1061 178 1108 l 178 1017 z "},"⁹":{"ha":611,"x_min":63,"x_max":540,"o":"m 63 983 l 63 1085 q 103 1194 63 1157 q 208 1231 142 1231 l 357 1231 q 429 1217 399 1231 q 540 903 540 1169 q 489 622 540 686 q 436 579 461 592 q 290 561 397 561 q 85 581 183 561 l 85 650 l 364 650 q 454 863 450 650 q 200 843 276 843 q 94 882 125 843 q 63 983 63 921 m 149 989 q 164 942 149 954 q 214 929 179 929 l 454 929 q 365 1144 454 1144 l 214 1144 q 164 1128 179 1144 q 149 1074 149 1111 l 149 989 z "},"₀":{"ha":650,"x_min":82,"x_max":565,"o":"m 83 -125 l 83 229 q 125 347 83 313 q 246 382 167 382 l 408 382 q 565 229 565 382 l 565 -125 q 525 -247 565 -217 q 408 -278 486 -278 l 246 -278 q 97 -207 126 -278 q 83 -125 83 -175 m 171 -119 q 186 -178 171 -162 q 251 -192 201 -192 l 403 -192 q 467 -175 453 -192 q 481 -119 481 -160 l 481 224 q 465 279 481 263 q 403 296 450 296 l 251 296 q 186 278 203 296 q 171 224 171 261 l 171 -119 z "},"₁":{"ha":376,"x_min":22,"x_max":286,"o":"m 286 385 l 286 -276 l 200 -276 l 200 289 l 22 240 l 22 308 l 200 385 l 286 385 z "},"₂":{"ha":538,"x_min":42,"x_max":481,"o":"m 44 307 q 43 324 43 307 q 44 356 43 340 l 44 372 q 299 393 217 393 q 479 204 479 393 q 454 100 479 156 q 403 6 429 44 q 325 -82 375 -32 q 258 -146 275 -132 q 206 -190 242 -160 l 478 -190 l 478 -276 l 49 -276 l 49 -196 q 106 -153 60 -186 q 179 -94 150 -118 q 253 -31 208 -71 q 322 44 296 11 q 389 194 389 131 q 365 282 389 257 q 283 307 342 307 l 44 307 z "},"₃":{"ha":564,"x_min":42,"x_max":482,"o":"m 47 -257 l 49 -197 l 294 -196 q 372 -176 350 -196 q 394 -111 394 -157 l 394 -79 q 300 17 394 14 l 103 24 l 103 89 l 300 99 q 396 188 396 103 l 396 218 q 300 301 396 301 l 42 301 l 42 361 q 214 386 117 386 l 313 386 q 439 339 397 386 q 481 224 481 293 l 481 175 q 461 97 481 129 q 413 53 442 64 q 481 -78 481 10 l 481 -117 q 442 -239 481 -197 q 306 -282 403 -282 l 190 -282 q 47 -257 122 -282 z "},"₄":{"ha":579,"x_min":22,"x_max":558,"o":"m 390 -19 l 390 149 l 429 215 l 476 215 l 476 -19 l 558 -19 l 558 -92 l 476 -110 l 476 -276 l 390 -276 l 390 -110 l 53 -110 l 22 -76 l 311 382 l 410 382 l 158 -19 l 390 -19 z "},"₅":{"ha":582,"x_min":76,"x_max":528,"o":"m 286 133 l 375 131 q 489 86 453 131 q 526 -36 526 42 l 526 -125 q 486 -244 526 -207 q 375 -283 444 -283 q 76 -264 189 -283 l 76 -196 l 369 -196 q 440 -119 440 -196 l 440 -19 q 431 19 440 10 q 369 44 406 44 l 210 44 q 149 -24 149 44 l 76 -24 l 97 382 l 507 382 l 507 296 l 178 296 l 167 104 q 286 133 196 133 z "},"₆":{"ha":611,"x_min":76,"x_max":554,"o":"m 183 375 q 249 390 210 388 q 361 393 288 393 q 532 374 433 393 l 532 304 l 251 304 q 163 92 167 304 q 417 111 340 111 q 522 72 492 111 q 554 -29 554 33 l 554 -131 q 514 -239 554 -203 q 408 -276 475 -276 l 260 -276 q 188 -264 218 -276 q 76 51 76 -215 q 131 332 76 264 q 183 375 158 364 m 163 25 q 256 -190 163 -190 l 403 -190 q 453 -174 438 -190 q 468 -119 468 -157 l 468 -35 q 453 13 468 0 q 403 25 438 25 l 163 25 z "},"₇":{"ha":510,"x_min":21,"x_max":488,"o":"m 21 299 l 21 385 l 464 385 l 488 342 l 235 -276 l 138 -276 l 375 299 l 21 299 z "},"₈":{"ha":647,"x_min":90,"x_max":556,"o":"m 92 -54 q 168 46 92 22 q 92 171 92 71 l 92 226 q 133 353 92 317 q 253 389 176 389 l 406 389 q 518 351 481 389 q 556 226 556 314 l 556 171 l 556 158 q 553 135 556 150 q 535 97 551 119 q 489 67 518 74 q 539 22 522 61 q 556 -54 556 -17 l 556 -135 q 410 -279 556 -279 l 243 -279 q 124 -240 156 -279 q 92 -135 92 -201 l 92 -54 m 178 -60 l 178 -129 q 192 -178 178 -164 q 249 -192 207 -192 l 404 -192 q 469 -129 469 -192 l 469 -60 q 406 13 469 13 l 246 13 q 178 -60 178 13 m 178 176 q 246 100 178 100 l 400 100 q 469 176 469 100 l 469 221 q 453 286 469 269 q 393 303 435 303 l 258 303 q 194 286 211 303 q 178 221 178 268 l 178 176 z "},"₉":{"ha":611,"x_min":63,"x_max":540,"o":"m 63 143 l 63 244 q 103 353 63 317 q 208 390 142 390 l 357 390 q 429 378 399 390 q 540 63 540 329 q 489 -217 540 -154 q 436 -261 461 -249 q 292 -279 397 -279 q 85 -260 185 -279 l 85 -190 l 364 -190 q 454 22 450 -190 q 200 3 276 3 q 94 42 125 3 q 63 143 63 81 m 149 149 q 164 101 149 114 q 214 89 179 89 l 454 89 q 365 304 454 304 l 214 304 q 164 288 179 304 q 149 233 149 271 l 149 149 z "},"€":{"ha":849,"x_min":28,"x_max":821,"o":"m 354 1013 q 499 1028 407 1028 q 815 986 590 1028 l 815 904 q 494 925 589 925 q 353 907 400 925 q 286 847 307 889 q 258 765 265 806 q 253 653 253 724 l 578 643 l 578 579 l 253 569 l 253 429 l 578 419 l 578 354 q 393 350 535 354 q 253 344 251 346 q 475 94 253 94 q 764 111 608 94 l 821 118 l 821 40 q 475 -8 650 -8 q 328 19 389 -8 q 233 85 268 49 q 175 189 199 121 q 150 344 150 256 l 28 354 l 28 419 l 150 429 l 150 569 l 28 581 l 28 640 l 150 653 l 150 678 q 150 719 150 699 q 158 783 151 740 q 175 853 164 825 q 210 918 186 882 q 267 975 233 954 q 354 1013 301 997 z "},"ℓ":{"ha":536,"x_min":42,"x_max":449,"o":"m 167 986 q 285 1026 213 1026 q 403 969 357 1026 q 449 819 449 913 q 389 614 449 726 q 224 408 328 503 l 224 263 q 254 121 224 142 q 286 106 268 111 q 364 86 303 101 q 426 74 425 72 l 426 0 l 304 0 q 163 61 204 1 q 121 263 121 121 l 121 326 q 78 300 100 314 l 42 344 q 121 422 76 376 l 121 878 q 167 986 122 946 m 346 828 q 300 922 346 904 q 275 926 288 926 q 249 919 263 926 q 224 869 224 906 l 224 550 q 346 828 346 715 z "},"№":{"ha":1474,"x_min":100,"x_max":1418,"o":"m 100 0 l 100 906 q 147 1004 100 972 q 204 1025 178 1025 q 333 944 299 1025 l 706 115 q 726 100 714 97 q 739 119 739 103 l 739 789 q 803 964 739 908 q 972 1021 868 1021 l 1235 1019 q 1378 958 1338 1017 q 1418 774 1418 899 q 1378 589 1418 649 q 1235 529 1336 529 l 1143 529 q 997 600 1036 529 q 960 854 960 669 l 1046 854 q 1076 647 1046 688 q 1108 621 1093 626 q 1151 615 1124 615 l 1226 615 q 1306 643 1281 615 q 1332 756 1332 671 q 1319 875 1332 840 q 1286 919 1306 911 q 1226 929 1267 928 q 969 931 1069 931 q 876 896 911 931 q 842 792 842 861 l 842 110 q 803 19 842 50 q 725 -10 763 -10 q 614 68 647 -10 l 238 906 q 217 917 231 921 q 203 896 203 914 l 203 0 l 100 0 z "},"™":{"ha":961,"x_min":28,"x_max":940,"o":"m 28 928 l 28 1017 l 388 1017 l 388 928 l 253 928 l 253 532 l 164 532 l 164 928 l 28 928 m 442 532 l 479 1017 l 567 1017 l 696 688 l 807 1017 l 897 1017 l 940 532 l 851 532 l 828 813 l 735 532 l 661 532 l 551 814 l 531 532 l 442 532 z "},"℮":{"ha":1003,"x_min":83,"x_max":919,"o":"m 919 358 l 242 358 q 238 343 238 358 l 238 158 q 317 76 238 124 q 486 29 394 29 q 650 61 578 29 q 767 146 721 94 l 844 146 q 686 31 764 61 q 501 0 607 0 q 197 106 310 0 q 83 368 83 210 q 200 636 83 526 q 494 740 317 740 q 792 647 672 740 q 919 358 911 556 m 238 394 q 250 382 238 382 l 746 382 l 756 382 q 764 392 764 388 l 764 576 q 676 667 761 622 q 510 714 589 714 q 367 688 431 714 q 269 632 303 661 q 238 585 238 603 l 238 394 z "},"∂":{"ha":897,"x_min":79,"x_max":783,"o":"m 178 75 q 79 317 79 158 q 172 560 79 474 q 439 646 265 646 q 679 567 578 646 q 606 849 668 772 q 408 925 543 925 q 158 854 272 925 l 126 919 q 218 976 186 958 q 410 1028 308 1028 q 783 538 783 1028 q 700 164 783 319 q 586 39 657 85 q 424 -7 515 -7 q 178 75 276 -7 m 244 483 q 182 317 182 422 q 250 154 182 213 q 421 96 319 96 q 547 142 493 96 q 628 253 601 186 q 681 488 681 383 q 443 543 581 543 q 244 483 306 543 z "},"∆":{"ha":1006,"x_min":28,"x_max":978,"o":"m 28 0 l 460 1017 l 563 1017 l 978 0 l 28 0 m 185 103 l 826 103 l 513 881 l 185 103 z "}}}
